SplineFontDB: 3.0
FontName: EBGaramondSC
FullName: EB Garamond Regular SmallCaps
FamilyName: EB Garamond SC
Weight: Regular
Copyright: Created by Georg Duffner with FontForge 2.0 (http://fontforge.sf.net)
UComments: "2010-5-17: Created." 
Version: 000.010g
ItalicAngle: 0
UnderlinePosition: -100
UnderlineWidth: 50
Ascent: 710
Descent: 290
LayerCount: 2
Layer: 0 1 "Back"  1
Layer: 1 1 "Zeichenebene"  0
XUID: [1021 114 2024522534 13590131]
FSType: 0
OS2Version: 0
OS2_WeightWidthSlopeOnly: 0
OS2_UseTypoMetrics: 1
CreationTime: 1274079135
ModificationTime: 1306711683
PfmFamily: 17
TTFWeight: 400
TTFWidth: 5
LineGap: 0
VLineGap: 0
Panose: 2 0 5 2 0 0 0 0 0 0
OS2TypoAscent: 1007
OS2TypoAOffset: 0
OS2TypoDescent: -298
OS2TypoDOffset: 0
OS2TypoLinegap: 0
OS2WinAscent: 1007
OS2WinAOffset: 0
OS2WinDescent: 298
OS2WinDOffset: 0
HheadAscent: 1007
HheadAOffset: 0
HheadDescent: -298
HheadDOffset: 0
OS2FamilyClass: 258
OS2Vendor: 'PfEd'
Lookup: 1 0 0 "loclDEU"  {"loclDEU subtable"  } ['locl' ('latn' <'DEU ' > ) ]
Lookup: 1 0 0 "loclTRK"  {"loclTRK subtable"  } ['locl' ('latn' <'TRK ' 'AZE ' 'CRT ' > ) ]
Lookup: 1 0 0 "loclCAT"  {"loclCAT subtable"  } ['locl' ('latn' <'CAT ' > ) ]
Lookup: 1 0 0 "loclLAT"  {"loclLAT subtable"  } ['locl' ('latn' <'LAT ' > ) ]
Lookup: 4 0 0 "LATliga"  {"LATliga subtable"  } ['locl' ('latn' <'LAT ' > ) ]
Lookup: 1 0 0 "'lnum' Lining Figures lookup 5"  {"'lnum' Lining Figures lookup 5 subtable"  } ['lnum' ('latn' <'dflt' 'DEU ' 'TRK ' 'AZE ' 'CRT ' 'CAT ' 'LAT ' > 'grek' <'dflt' > 'cyrl' <'dflt' > 'DFLT' <'dflt' > ) ]
Lookup: 1 0 0 "'onum' Minuskelziffern lookup 6"  {"'onum' Minuskelziffern lookup 6 subtable" ("oldstyle" ) } ['onum' ('latn' <'dflt' 'DEU ' 'TRK ' 'AZE ' 'CRT ' 'CAT ' 'LAT ' > 'grek' <'dflt' > 'cyrl' <'dflt' > 'DFLT' <'dflt' > ) ]

StartChar: a
Encoding: 97 97 0
Width: 555
VWidth: 0
Flags: W
HStem: -3 24<32.5977 66.9577 182.452 212.952 498.912 529.715> 139 27<198.819 333.7> 443 20G<310.5 314>
LayerCount: 2
Fore
SplineSet
270 337 m 4,0,1
 249 285 249 285 199 176 c 0,2,3
 196 170 196 170 199 168 c 128,-1,4
 202 166 202 166 212 166 c 2,5,-1
 329 166 l 2,6,7
 337 166 337 166 338 167 c 128,-1,8
 339 168 339 168 337 176 c 0,9,10
 331 198 331 198 282 337 c 0,11,12
 279 345 279 345 277.5 347 c 128,-1,13
 276 349 276 349 274.5 347 c 128,-1,14
 273 345 273 345 270 337 c 4,0,1
37 -3 m 4,15,16
 31 -3 31 -3 31.5 8 c 128,-1,17
 32 19 32 19 37 21 c 0,18,19
 73 33 73 33 94 50 c 0,20,21
 112 64 112 64 125 92 c 0,22,23
 170 187 170 187 241 360 c 1,24,25
 245 373 245 373 248 386 c 0,26,27
 249 391 249 391 250 399 c 128,-1,28
 251 407 251 407 252 412.5 c 2,29,-1
 253 418 l 1,30,31
 259 419 259 419 276 431 c 128,-1,32
 293 443 293 443 298 449 c 0,33,34
 310 463 310 463 312 463 c 0,35,36
 316 463 316 463 319 454 c 0,37,38
 339 400 339 400 378.5 288 c 128,-1,39
 418 176 418 176 444 107 c 0,40,41
 455 75 455 75 479 50 c 0,42,43
 501 26 501 26 524 21 c 0,44,45
 530 19 530 19 531 8 c 128,-1,46
 532 -3 532 -3 524 -3 c 0,47,48
 505 -3 505 -3 476 -0.5 c 128,-1,49
 447 2 447 2 428 2 c 0,50,51
 407 2 407 2 373.5 -0.5 c 128,-1,52
 340 -3 340 -3 324 -3 c 0,53,54
 320 -3 320 -3 319 3 c 128,-1,55
 318 9 318 9 320 15 c 128,-1,56
 322 21 322 21 325 21 c 0,57,58
 351 26 351 26 365 48 c 0,59,60
 373 62 373 62 367 89 c 0,61,62
 365 100 365 100 353 132 c 0,63,64
 351 139 351 139 334 139 c 2,65,-1
 192 139 l 2,66,67
 185 139 185 139 180 127 c 0,68,69
 165 87 165 87 164 84 c 0,70,71
 159 61 159 61 165 51 c 0,72,73
 180 27 180 27 207 21 c 0,74,75
 214 20 214 20 214 8.5 c 128,-1,76
 214 -3 214 -3 207 -3 c 0,77,78
 187 -3 187 -3 157 -0.5 c 128,-1,79
 127 2 127 2 108 2 c 0,80,81
 94 2 94 2 72 -0.5 c 128,-1,82
 50 -3 50 -3 37 -3 c 4,15,16
EndSplineSet
EndChar

StartChar: t
Encoding: 116 116 1
Width: 489
VWidth: 0
Flags: W
HStem: -3 25<121.73 164.086 296.914 339.703> 406 41<72.246 180.16 268.66 420.189>
VStem: 23 34<358.276 395.937> 193 75<46.4591 403.896> 424 28<347.656 398.928>
LayerCount: 2
Fore
SplineSet
377 406 m 4,0,1
 303 406 303 406 279 404 c 0,2,3
 268 403 268 403 268 374 c 2,4,5
 268 81 l 2,6,7
 268 58 268 58 281 46 c 0,8,9
 301 28 301 28 333 22 c 0,10,11
 338 21 338 21 340 14.5 c 128,-1,12
 342 8 342 8 340 2.5 c 128,-1,13
 338 -3 338 -3 333 -3 c 0,14,15
 314 -3 314 -3 281.5 0.5 c 128,-1,16
 249 4 249 4 228 4 c 0,17,18
 208 4 208 4 177 0.5 c 128,-1,19
 146 -3 146 -3 128 -3 c 0,20,21
 124 -3 124 -3 122 2.5 c 128,-1,22
 120 8 120 8 121.5 14.5 c 128,-1,23
 123 21 123 21 128 22 c 0,24,25
 160 28 160 28 180 46 c 0,26,27
 193 58 193 58 193 81 c 2,28,-1
 193 374 l 2,29,30
 193 402 193 402 181 404 c 128,-1,31
 169 406 169 406 107 406 c 0,32,33
 73 406 73 406 57 378 c 0,34,35
 53 371 53 371 42.5 360.5 c 128,-1,36
 32 350 32 350 25 350 c 0,37,38
 11 350 11 350 23 376 c 0,39,40
 29 388 29 388 32 402 c 128,-1,41
 35 416 35 416 37 439 c 128,-1,42
 39 462 39 462 40 467 c 0,43,44
 42 482 42 482 53 482 c 0,45,46
 60 482 60 482 72 461 c 0,47,48
 79 447 79 447 116 447 c 2,49,-1
 387 447 l 2,50,51
 427 447 427 447 438 460 c 1,52,53
 450 472 450 472 462 472 c 0,54,55
 465 472 465 472 468 468 c 128,-1,56
 471 464 471 464 469 460 c 0,57,58
 460 442 460 442 452 366 c 0,59,60
 451 361 451 361 450 357 c 128,-1,61
 449 353 449 353 446.5 350 c 128,-1,62
 444 347 444 347 440 347 c 0,63,64
 431 348 431 348 424 370 c 0,65,66
 424 371 424 371 423 376 c 128,-1,67
 422 381 422 381 421.5 383 c 128,-1,68
 421 385 421 385 419 389 c 128,-1,69
 417 393 417 393 415.5 394.5 c 128,-1,70
 414 396 414 396 410.5 399 c 128,-1,71
 407 402 407 402 402.5 403 c 128,-1,72
 398 404 398 404 391.5 405 c 128,-1,73
 385 406 385 406 377 406 c 4,0,1
EndSplineSet
EndChar

StartChar: l
Encoding: 108 108 2
Width: 444
VWidth: 0
Flags: W
HStem: -1 22<19.3836 56.1625> 2 30<175.271 350.335> 428 24<31.3807 69.0295 192.197 246.501>
VStem: 89 75<40.2419 405.613>
LayerCount: 2
Fore
SplineSet
242 429 m 0,0,1
 234 427 234 427 222 424.5 c 128,-1,2
 210 422 210 422 203.5 420 c 128,-1,3
 197 418 197 418 189.5 414.5 c 128,-1,4
 182 411 182 411 177 406 c 0,5,6
 164 393 164 393 164 353 c 2,7,-1
 164 86 l 2,8,9
 164 32 164 32 218 32 c 2,10,-1
 314 32 l 2,11,12
 319 32 319 32 332.5 37 c 128,-1,13
 346 42 346 42 354 50 c 0,14,15
 374 70 374 70 395 114 c 0,16,17
 400 123 400 123 423 121 c 0,18,19
 427 121 427 121 430 118.5 c 128,-1,20
 433 116 433 116 432 112 c 0,21,22
 414 46 414 46 410 10 c 0,23,24
 410 6 410 6 405 2 c 128,-1,25
 400 -2 400 -2 395 -2 c 0,26,27
 339 -2 339 -2 249.5 0 c 128,-1,28
 160 2 160 2 129 2 c 2,29,-1
 23 -1 l 2,30,31
 21 -1 21 -1 19.5 4.5 c 128,-1,32
 18 10 18 10 19 15.5 c 128,-1,33
 20 21 20 21 23 21 c 0,34,35
 57 30 57 30 69 42 c 0,36,37
 89 62 89 62 89 84 c 2,38,-1
 89 354 l 2,39,40
 89 396 89 396 80 406 c 0,41,42
 77 409 77 409 75 411.5 c 128,-1,43
 73 414 73 414 70 415.5 c 128,-1,44
 67 417 67 417 65.5 418 c 128,-1,45
 64 419 64 419 60 420.5 c 128,-1,46
 56 422 56 422 54 422.5 c 128,-1,47
 52 423 52 423 46 425 c 128,-1,48
 40 427 40 427 36 428 c 0,49,50
 31 429 31 429 30.5 440.5 c 128,-1,51
 30 452 30 452 36 452 c 0,52,53
 50 452 50 452 73.5 451 c 128,-1,54
 97 450 97 450 112 450 c 0,55,56
 138 450 138 450 185.5 451.5 c 128,-1,57
 233 453 233 453 242 453 c 0,58,59
 249 453 249 453 248 441.5 c 128,-1,60
 247 430 247 430 242 429 c 0,0,1
EndSplineSet
Substitution2: "loclCAT subtable" l.CAT
EndChar

StartChar: o
Encoding: 111 111 3
Width: 605
VWidth: 0
Flags: W
HStem: -15 37<242.335 386.997> 424 32<229.322 364.877>
VStem: 66 85<119.755 310.96> 468 84<121.475 314.94>
LayerCount: 2
Fore
SplineSet
297 424 m 0,0,1
 220 424 220 424 185.5 369 c 128,-1,2
 151 314 151 314 151 232 c 0,3,4
 151 140 151 140 194.5 81 c 128,-1,5
 238 22 238 22 319 22 c 0,6,7
 360 22 360 22 390.5 40 c 128,-1,8
 421 58 421 58 437 87.5 c 128,-1,9
 453 117 453 117 460.5 148.5 c 128,-1,10
 468 180 468 180 468 212 c 0,11,12
 468 297 468 297 424.5 360.5 c 128,-1,13
 381 424 381 424 297 424 c 0,0,1
66 217 m 0,14,15
 66 310 66 310 137 383 c 128,-1,16
 208 456 208 456 303 456 c 0,17,18
 405 456 405 456 478.5 388.5 c 128,-1,19
 552 321 552 321 552 221 c 0,20,21
 552 123 552 123 486 54 c 128,-1,22
 420 -15 420 -15 303 -15 c 0,23,24
 203 -15 203 -15 134.5 52.5 c 128,-1,25
 66 120 66 120 66 217 c 0,14,15
EndSplineSet
EndChar

StartChar: h
Encoding: 104 104 4
Width: 605
VWidth: 0
Flags: W
HStem: -3 24<15.3203 59.3583 195.049 238.734 349.32 393.358 528.475 573.09> 216 37<164 423> 429 23<24.6897 54.4601 197.74 228.915 359.133 388.46 532.577 563.27>
VStem: 89 75<45.4878 216.466 252.794 409.42> 423 75<45.484 216.346 252.595 409.42>
LayerCount: 2
Fore
SplineSet
164 259 m 2,0,1
 164 253 164 253 174 253 c 0,2,3
 315 250 315 250 418 253 c 0,4,5
 423 253 423 253 423 261 c 2,6,7
 423 377 l 2,8,9
 423 391 423 391 407 405 c 0,10,11
 394 416 394 416 363 429 c 0,12,13
 358 431 358 431 358 441.5 c 128,-1,14
 358 452 358 452 363 452 c 0,15,16
 385 452 385 452 413 451 c 128,-1,17
 441 450 441 450 459 450 c 0,18,19
 478 450 478 450 508 451 c 128,-1,20
 538 452 538 452 559 452 c 0,21,22
 565 452 565 452 564.5 441.5 c 128,-1,23
 564 431 564 431 559 429 c 0,24,25
 524 415 524 415 512 404 c 0,26,27
 498 392 498 392 498 377 c 2,28,-1
 498 82 l 2,29,30
 498 58 498 58 512 45 c 0,31,32
 532 27 532 27 566 21 c 0,33,34
 574 19 574 19 574 8 c 128,-1,35
 574 -3 574 -3 566 -3 c 0,36,37
 546 -3 546 -3 513 -0.5 c 128,-1,38
 480 2 480 2 459 2 c 0,39,40
 439 2 439 2 407 -0.5 c 128,-1,41
 375 -3 375 -3 356 -3 c 0,42,43
 352 -3 352 -3 349.5 2.5 c 128,-1,44
 347 8 347 8 348.5 14 c 128,-1,45
 350 20 350 20 356 21 c 0,46,47
 391 28 391 28 410 45 c 0,48,49
 423 57 423 57 423 82 c 2,50,-1
 423 211 l 2,51,52
 423 216 423 216 419 216 c 0,53,54
 272 219 272 219 167 216 c 0,55,56
 164 216 164 216 164 209 c 2,57,-1
 164 82 l 2,58,59
 164 58 164 58 178 45 c 0,60,61
 197 27 197 27 231 21 c 0,62,63
 240 19 240 19 240 8 c 128,-1,64
 240 -3 240 -3 231 -3 c 0,65,66
 211 -3 211 -3 180 -0.5 c 128,-1,67
 149 2 149 2 129 2 c 0,68,69
 108 2 108 2 74.5 -0.5 c 128,-1,70
 41 -3 41 -3 22 -3 c 0,71,72
 18 -3 18 -3 15.5 2.5 c 128,-1,73
 13 8 13 8 14.5 14 c 128,-1,74
 16 20 16 20 22 21 c 0,75,76
 57 28 57 28 76 45 c 0,77,78
 89 57 89 57 89 82 c 2,79,-1
 89 377 l 2,80,81
 89 391 89 391 73 405 c 0,82,83
 60 416 60 416 29 429 c 0,84,85
 26 430 26 430 24.5 436 c 128,-1,86
 23 442 23 442 24.5 447 c 128,-1,87
 26 452 26 452 29 452 c 0,88,89
 51 452 51 452 80.5 451 c 128,-1,90
 110 450 110 450 129 450 c 0,91,92
 147 450 147 450 175 451 c 128,-1,93
 203 452 203 452 224 452 c 0,94,95
 230 452 230 452 230 441.5 c 128,-1,96
 230 431 230 431 224 429 c 0,97,98
 190 415 190 415 178 404 c 1,99,100
 164 394 164 394 164 377 c 2,101,-1
 164 259 l 2,0,1
EndSplineSet
EndChar

StartChar: i
Encoding: 105 105 5
Width: 320
VWidth: 0
Flags: W
HStem: -3 24<54.3203 98.3583 234.049 277.734> 429 23<63.6897 93.4601 236.74 267.915>
VStem: 128 75<45.4878 409.42>
LayerCount: 2
Fore
SplineSet
203 377 m 2,0,1
 203 82 l 2,2,3
 203 58 203 58 217 45 c 0,4,5
 236 27 236 27 270 21 c 0,6,7
 279 19 279 19 279 8 c 128,-1,8
 279 -3 279 -3 270 -3 c 0,9,10
 250 -3 250 -3 219 -0.5 c 128,-1,11
 188 2 188 2 168 2 c 0,12,13
 147 2 147 2 113.5 -0.5 c 128,-1,14
 80 -3 80 -3 61 -3 c 0,15,16
 57 -3 57 -3 54.5 2.5 c 128,-1,17
 52 8 52 8 53.5 14 c 128,-1,18
 55 20 55 20 61 21 c 0,19,20
 96 28 96 28 115 45 c 0,21,22
 128 57 128 57 128 82 c 2,23,-1
 128 377 l 2,24,25
 128 391 128 391 112 405 c 0,26,27
 99 416 99 416 68 429 c 0,28,29
 65 430 65 430 63.5 436 c 128,-1,30
 62 442 62 442 63.5 447 c 128,-1,31
 65 452 65 452 68 452 c 0,32,33
 90 452 90 452 119.5 451 c 128,-1,34
 149 450 149 450 168 450 c 0,35,36
 186 450 186 450 214 451 c 128,-1,37
 242 452 242 452 263 452 c 0,38,39
 269 452 269 452 269 441.5 c 128,-1,40
 269 431 269 431 263 429 c 0,41,42
 229 415 229 415 217 404 c 1,43,44
 203 394 203 394 203 377 c 2,0,1
EndSplineSet
Substitution2: "loclTRK subtable" i.TRK
EndChar

StartChar: n
Encoding: 110 110 6
Width: 631
VWidth: 0
Flags: W
HStem: -14 21G<510.919 529.176> -3 24<62.3025 102.76 192.857 225.931> 425 24<52.9092 103.383 431.989 469.611 576.188 609.063>
VStem: 129 46<86.0745 336.475> 507 40<109.998 403.448>
LayerCount: 2
Fore
SplineSet
67 -3 m 8,0,1
 60 -3 60 -3 61 8.5 c 128,-1,2
 62 20 62 20 67 21 c 0,3,4
 97 26 97 26 107 37 c 0,5,6
 120 51 120 51 122 81 c 0,7,8
 129 200 129 200 129 361 c 0,9,10
 129 390 129 390 123 397 c 0,11,12
 103 421 103 421 59 425 c 0,13,14
 52 425 52 425 52 437 c 128,-1,15
 52 449 52 449 59 449 c 1,16,17
 64 448 64 448 132.5 448.5 c 128,-1,18
 201 449 201 449 203 449 c 0,19,20
 207 449 207 449 209.5 447 c 128,-1,21
 212 445 212 445 215 440.5 c 128,-1,22
 218 436 218 436 219 434 c 0,23,24
 253 393 253 393 339.5 286.5 c 128,-1,25
 426 180 426 180 489 110 c 0,26,27
 490 109 490 109 492.5 105.5 c 128,-1,28
 495 102 495 102 497 100 c 128,-1,29
 499 98 499 98 501.5 97 c 128,-1,30
 504 96 504 96 505.5 99 c 128,-1,31
 507 102 507 102 507 110 c 0,32,33
 510 199 510 199 504 378 c 0,34,35
 504 387 504 387 498 394.5 c 128,-1,36
 492 402 492 402 482.5 407 c 128,-1,37
 473 412 473 412 465 415 c 128,-1,38
 457 418 457 418 447 421 c 128,-1,39
 437 424 437 424 435 425 c 0,40,41
 432 426 432 426 431.5 436.5 c 128,-1,42
 431 447 431 447 435 447 c 0,43,44
 453 447 453 447 479.5 445 c 128,-1,45
 506 443 506 443 523 443 c 128,-1,46
 540 443 540 443 565.5 445 c 128,-1,47
 591 447 591 447 606 447 c 0,48,49
 609 447 609 447 610 436 c 128,-1,50
 611 425 611 425 606 425 c 0,51,52
 587 422 587 422 571 409 c 1,53,54
 553 397 553 397 552 382 c 0,55,56
 549 331 549 331 547.5 281.5 c 128,-1,57
 546 232 546 232 546 201 c 128,-1,58
 546 170 546 170 546.5 109.5 c 128,-1,59
 547 49 547 49 547 13 c 0,60,61
 547 2 547 2 540 -6 c 128,-1,62
 533 -14 533 -14 522 -14 c 0,63,64
 496 -14 496 -14 472 13 c 1,65,66
 349 165 349 165 204 329 c 0,67,68
 195 339 195 339 189 341 c 128,-1,69
 183 343 183 343 181.5 340.5 c 128,-1,70
 180 338 180 338 179 332 c 0,71,72
 173 142 173 142 175 73 c 1,73,74
 177 50 177 50 186 40 c 0,75,76
 199 25 199 25 221 21 c 0,77,78
 227 20 227 20 226.5 8.5 c 128,-1,79
 226 -3 226 -3 218 -3 c 0,80,81
 200 -3 200 -3 178 -1 c 128,-1,82
 156 1 156 1 142 1 c 0,83,84
 127 1 127 1 104 -1 c 128,-1,85
 81 -3 81 -3 67 -3 c 8,0,1
EndSplineSet
EndChar

StartChar: m
Encoding: 109 109 7
Width: 720
VWidth: 0
Flags: W
HStem: -3 25<50.4305 95.0426 181.751 217.873 482.645 513.031 649.934 686.673> 431 24<68.6118 111.979 618.831 663.924>
LayerCount: 2
Fore
SplineSet
365 -1 m 1,0,1
 356 -18 356 -18 345.5 -16.5 c 128,-1,2
 335 -15 335 -15 328 1 c 0,3,4
 301 57 301 57 256.5 165.5 c 128,-1,5
 212 274 212 274 188 328 c 0,6,7
 181 345 181 345 179 328 c 0,8,9
 158 120 158 120 156 79 c 0,10,11
 156 60 156 60 176 40 c 0,12,13
 189 26 189 26 213 21 c 0,14,15
 218 20 218 20 219.5 8.5 c 128,-1,16
 221 -3 221 -3 213 -3 c 0,17,18
 200 -3 200 -3 175.5 -1 c 128,-1,19
 151 1 151 1 136 1 c 0,20,21
 119 1 119 1 92.5 -1 c 128,-1,22
 66 -3 66 -3 55 -3 c 0,23,24
 49 -3 49 -3 49.5 8.5 c 128,-1,25
 50 20 50 20 55 21 c 0,26,27
 87 28 87 28 99 37 c 0,28,29
 110 45 110 45 112 63 c 0,30,31
 143 291 143 291 143 367 c 0,32,33
 143 392 143 392 132 405 c 0,34,35
 118 421 118 421 74 431 c 0,36,37
 65.4583333333 433.135416667 65.4583333333 433.135416667 67.69140625 448.8125 c 1,38,39
 69.8783971739 454.559858975 69.8783971739 454.559858975 73 455 c 0,40,41
 105 450 105 450 145.5 450 c 128,-1,42
 186 450 186 450 202.5 451.5 c 128,-1,43
 219 453 219 453 227 450 c 1,44,45
 337 174 337 174 365 106 c 0,46,47
 373 86 373 86 381 104 c 0,48,49
 401 145 401 145 418.5 184 c 128,-1,50
 436 223 436 223 444.5 244 c 128,-1,51
 453 265 453 265 473 315 c 128,-1,52
 493 365 493 365 503 389 c 0,53,54
 528 447 528 447 530 447 c 2,55,-1
 576 447 l 2,56,57
 594 447 594 447 666 456 c 0,58,59
 673.192837466 457.027548209 673.192837466 457.027548209 666.220886551 441.747558227 c 0,60,61
 662.797641886 435.704774118 662.797641886 435.704774118 660 434 c 0,62,63
 652 431 652 431 644 430 c 128,-1,64
 636 429 636 429 631 427 c 128,-1,65
 626 425 626 425 618 420 c 0,66,67
 607 412 607 412 607 388 c 0,68,69
 608 215 608 215 620 73 c 0,70,71
 621 57 621 57 636 45 c 0,72,73
 659 26 659 26 682 22 c 1,74,75
 687 20 687 20 688 8.5 c 128,-1,76
 689 -3 689 -3 682 -3 c 0,77,78
 673 -3 673 -3 646 -1 c 128,-1,79
 619 1 619 1 600 1 c 0,80,81
 575 1 575 1 534.5 -1 c 128,-1,82
 494 -3 494 -3 489 -3 c 0,83,84
 483 -3 483 -3 482 8.5 c 128,-1,85
 481 20 481 20 486 22 c 0,86,87
 492 24 492 24 496.5 25.5 c 128,-1,88
 501 27 501 27 503.5 28 c 128,-1,89
 506 29 506 29 508.5 31 c 128,-1,90
 511 33 511 33 512 34 c 128,-1,91
 513 35 513 35 516 38 c 128,-1,92
 519 41 519 41 521 43 c 0,93,94
 535 57 535 57 535 73 c 0,95,96
 536 114 536 114 527 323 c 0,97,98
 526 342 526 342 517 323 c 0,99,100
 374 19 374 19 365 -1 c 1,0,1
EndSplineSet
EndChar

StartChar: p
Encoding: 112 112 8
Width: 468
VWidth: 0
Flags: W
HStem: -3 28<47.0864 89.2581 215.97 257.384> 184 16<221.885 287.262> 424 29<193.049 306.797>
VStem: 114 75<42.0916 400.614> 356 82<245.048 387.146>
LayerCount: 2
Fore
SplineSet
189 395 m 6,0,1
 189 81 l 2,2,3
 189 41 189 41 253 25 c 0,4,5
 258 24 258 24 258 10.5 c 128,-1,6
 258 -3 258 -3 253 -3 c 0,7,8
 249 -3 249 -3 212.5 0 c 128,-1,9
 176 3 176 3 154 3 c 0,10,11
 131 3 131 3 94 0 c 128,-1,12
 57 -3 57 -3 50 -3 c 0,13,14
 46 -3 46 -3 46 8.5 c 128,-1,15
 46 20 46 20 50 21 c 0,16,17
 76 25 76 25 95 44 c 128,-1,18
 114 63 114 63 114 85 c 2,19,-1
 114 350 l 2,20,21
 114 392 114 392 105 401 c 0,22,23
 96 411 96 411 89.5 414.5 c 128,-1,24
 83 418 83 418 63 424 c 0,25,26
 60 425 60 425 58 431.5 c 128,-1,27
 56 438 56 438 56.5 444 c 128,-1,28
 57 450 57 450 62 450 c 0,29,30
 76 450 76 450 99 449 c 128,-1,31
 122 448 122 448 137 448 c 0,32,33
 151 448 151 448 187.5 450.5 c 128,-1,34
 224 453 224 453 233 453 c 0,35,36
 317 453 317 453 377.5 421 c 128,-1,37
 438 389 438 389 438 325 c 0,38,39
 438 253 438 253 389 215 c 0,40,41
 362 194 362 194 312.5 186.5 c 128,-1,42
 263 179 263 179 234 184 c 0,43,44
 215.652385753 187.494783666 215.652385753 187.494783666 223.140625 196.431640625 c 0,45,46
 226.630477662 200.596613593 226.630477662 200.596613593 232 200 c 0,47,48
 274 194 274 194 304 217 c 0,49,50
 332 238 332 238 344 260.5 c 128,-1,51
 356 283 356 283 356 332 c 0,52,53
 356 368 356 368 335 389.5 c 128,-1,54
 314 411 314 411 289 417.5 c 128,-1,55
 264 424 264 424 233 424 c 0,56,57
 189 424 189 424 189 395 c 6,0,1
EndSplineSet
EndChar

StartChar: b
Encoding: 98 98 9
Width: 441
VWidth: 0
Flags: W
HStem: -3 33<167.336 261.439> -2 24<11.0317 56.2483> 226 30<156.281 251.954> 421 32<157.017 260.919>
VStem: 80 75<44.3801 224.002 255.954 398.616> 289 74<280.709 401.848> 300 83<61.4542 200.229>
LayerCount: 2
Fore
SplineSet
155 281 m 0,0,1
 156 265 156 265 160.5 261 c 128,-1,2
 165 257 165 257 176 256 c 0,3,4
 221 252 221 252 260 275 c 0,5,6
 289 292 289 292 289 340 c 0,7,8
 289 377 289 377 271.5 399 c 128,-1,9
 254 421 254 421 201 421 c 0,10,11
 174 421 174 421 164.5 414 c 128,-1,12
 155 407 155 407 154 390 c 0,13,14
 153 337 153 337 155 281 c 0,0,1
200 -3 m 0,15,16
 195 -3 195 -3 160 0 c 128,-1,17
 125 3 125 3 108 3 c 0,18,19
 92 3 92 3 57.5 0.5 c 128,-1,20
 23 -2 23 -2 15 -2 c 0,21,22
 10 -2 10 -2 10 9.5 c 128,-1,23
 10 21 10 21 15 22 c 0,24,25
 46 25 46 25 60 37 c 0,26,27
 80 55 80 55 80 79 c 2,28,-1
 80 352 l 2,29,30
 80 389 80 389 71 399 c 0,31,32
 53 419 53 419 28 425 c 0,33,34
 25 426 25 426 23 432 c 128,-1,35
 21 438 21 438 21.5 444 c 128,-1,36
 22 450 22 450 27 450 c 0,37,38
 41 450 41 450 67.5 449 c 128,-1,39
 94 448 94 448 111 448 c 0,40,41
 123 448 123 448 151 450.5 c 128,-1,42
 179 453 179 453 201 453 c 0,43,44
 363 453 363 453 363 349 c 0,45,46
 363 301 363 301 341 279 c 0,47,48
 327 266 327 266 284 249 c 0,49,50
 282 248 282 248 281.5 245.5 c 128,-1,51
 281 243 281 243 284 242 c 0,52,53
 306 235 306 235 318 230 c 128,-1,54
 330 225 330 225 348 213 c 128,-1,55
 366 201 366 201 374.5 180.5 c 128,-1,56
 383 160 383 160 383 132 c 0,57,58
 383 53 383 53 313 14 c 1,59,60
 286 -3 286 -3 200 -3 c 0,15,16
300 129 m 0,61,62
 300 189 300 189 266 209 c 0,63,64
 237 226 237 226 194 226 c 0,65,66
 173 226 173 226 163 218 c 1,67,68
 155 213 155 213 155 201 c 0,69,70
 153 157 153 157 155 80 c 1,71,72
 157 54 157 54 167 44 c 1,73,74
 179 30 179 30 210 30 c 0,75,76
 250 30 250 30 275 57 c 128,-1,77
 300 84 300 84 300 129 c 0,61,62
EndSplineSet
EndChar

StartChar: q
Encoding: 113 113 10
Width: 602
VWidth: 0
Flags: W
HStem: -218 38<675.42 947> 430 30<222.76 354.791>
VStem: 34 84<129.701 308.083> 463 84<140.671 326.921>
LayerCount: 2
Fore
SplineSet
288 430 m 0,0,1
 212 430 212 430 164.5 374 c 128,-1,2
 117 318 117 318 118 241 c 1,3,4
 118 146 118 146 168.5 78.5 c 128,-1,5
 219 11 219 11 304 11 c 0,6,7
 379 11 379 11 421 74.5 c 128,-1,8
 463 138 463 138 463 220 c 0,9,10
 463 307 463 307 417 368.5 c 128,-1,11
 371 430 371 430 288 430 c 0,0,1
240 -31 m 0,12,13
 211 -15 211 -15 202 -13 c 0,14,15
 153 -1 153 -1 93.5 64 c 128,-1,16
 34 129 34 129 34 207 c 0,17,18
 34 313 34 313 107.5 386.5 c 128,-1,19
 181 460 181 460 290 460 c 0,20,21
 388 460 388 460 467.5 401 c 128,-1,22
 547 342 547 342 547 253 c 0,23,24
 547 194 547 194 529 147 c 128,-1,25
 511 100 511 100 479.5 69.5 c 128,-1,26
 448 39 448 39 425.5 23.5 c 128,-1,27
 403 8 403 8 373 -7 c 0,28,29
 359 -15 359 -15 379 -27 c 0,30,31
 488 -96 488 -96 599 -138 c 128,-1,32
 710 -180 710 -180 790 -180 c 0,33,34
 843 -180 843 -180 869.5 -178.5 c 128,-1,35
 896 -177 896 -177 944 -169 c 128,-1,36
 992 -161 992 -161 1033.5 -140 c 128,-1,37
 1075 -119 1075 -119 1116 -85 c 0,38,39
 1124 -79 1124 -79 1130 -85 c 0,40,41
 1138 -95 1138 -95 1131 -101 c 0,42,43
 1089 -141 1089 -141 1034 -168 c 128,-1,44
 979 -195 979 -195 927 -204.5 c 128,-1,45
 875 -214 875 -214 842.5 -216.5 c 128,-1,46
 810 -219 810 -219 787 -218 c 0,47,48
 569 -213 569 -213 240 -31 c 0,12,13
EndSplineSet
EndChar

StartChar: d
Encoding: 100 100 11
Width: 519
VWidth: 0
Flags: W
HStem: -3 36<172.032 337.854> 0 24<18.1875 49.5789> 422 31<142.997 312.128>
VStem: 83 75<45.4952 399.614> 421 85<131.07 322.825>
LayerCount: 2
Fore
SplineSet
181 43 m 0,0,1
 194 33 194 33 267 33 c 0,2,3
 330 33 330 33 376 81 c 1,4,5
 421 130 421 130 421 242 c 0,6,7
 421 306 421 306 372.5 363.5 c 128,-1,8
 324 421 324 421 246 422 c 1,9,10
 158 422 158 422 158 383 c 2,11,-1
 158 91 l 2,12,13
 158 61 158 61 181 43 c 0,0,1
263 -3 m 0,14,15
 260 -3 260 -3 208.5 0 c 128,-1,16
 157 3 157 3 125 3 c 0,17,18
 101 3 101 3 63.5 1.5 c 128,-1,19
 26 0 26 0 21 0 c 0,20,21
 17 0 17 0 17 11.5 c 128,-1,22
 17 23 17 23 21 24 c 0,23,24
 48 31 48 31 64 48 c 0,25,26
 82 67 82 67 83 89 c 1,27,-1
 83 350 l 2,28,29
 83 390 83 390 74 400 c 0,30,31
 64 411 64 411 58.5 414.5 c 128,-1,32
 53 418 53 418 34 423 c 0,33,34
 31 424 31 424 29 430 c 128,-1,35
 27 436 27 436 27.5 442 c 128,-1,36
 28 448 28 448 33 448 c 0,37,38
 47 448 47 448 73 447 c 128,-1,39
 99 446 99 446 115 446 c 0,40,41
 128 446 128 446 181.5 449.5 c 128,-1,42
 235 453 235 453 243 453 c 0,43,44
 370 453 370 453 438.5 390.5 c 128,-1,45
 507 328 507 328 506 235 c 0,46,47
 505 146 505 146 452 79 c 0,48,49
 425 45 425 45 374 21 c 128,-1,50
 323 -3 323 -3 263 -3 c 0,14,15
EndSplineSet
EndChar

StartChar: r
Encoding: 114 114 12
Width: 547
VWidth: 0
Flags: W
HStem: -14 35<429.98 499.568> -4 25<14.438 48.7442 199.518 228.809> 424 29<25.5276 65.644 166.038 261.371>
VStem: 82 75<44.9388 203.042 233.012 401.614> 294 84<269.317 397.487>
LayerCount: 2
Fore
SplineSet
157 258 m 4,0,1
 157 245 157 245 162 239.5 c 128,-1,2
 167 234 167 234 171.5 233.5 c 128,-1,3
 176 233 176 233 190 233 c 0,4,5
 233 233 233 233 263 253 c 1,6,7
 294 272 294 272 294 334 c 0,8,9
 294 424 294 424 204 424 c 0,10,11
 178 424 178 424 169.5 414.5 c 128,-1,12
 161 405 161 405 160 386 c 0,13,14
 156 294 156 294 157 258 c 4,0,1
157 189 m 4,15,16
 158 166 158 166 159 129.5 c 128,-1,17
 160 93 160 93 160 81 c 0,18,19
 161 41 161 41 225 25 c 0,20,21
 230 23 230 23 230 9.5 c 128,-1,22
 230 -4 230 -4 225 -4 c 0,23,24
 221 -4 221 -4 186 -1 c 128,-1,25
 151 2 151 2 129 2 c 0,26,27
 104 2 104 2 63.5 -1 c 128,-1,28
 23 -4 23 -4 17 -4 c 0,29,30
 12 -4 12 -4 12 8 c 128,-1,31
 12 20 12 20 17 21 c 0,32,33
 46 28 46 28 62 44 c 0,34,35
 82 64 82 64 82 85 c 2,36,-1
 82 352 l 2,37,38
 82 392 82 392 73 402 c 0,39,40
 63 413 63 413 56.5 416.5 c 128,-1,41
 50 420 50 420 30 425 c 0,42,43
 27 426 27 426 25 432 c 128,-1,44
 23 438 23 438 23.5 444 c 128,-1,45
 24 450 24 450 29 450 c 0,46,47
 43 450 43 450 72 448.5 c 128,-1,48
 101 447 101 447 120 447 c 0,49,50
 131 447 131 447 156.5 450 c 128,-1,51
 182 453 182 453 204 453 c 0,52,53
 282 453 282 453 330 421.5 c 128,-1,54
 378 390 378 390 378 335 c 0,55,56
 378 314 378 314 365.5 287 c 128,-1,57
 353 260 353 260 343 251 c 0,58,59
 323 231 323 231 303 222 c 0,60,61
 299 221 299 221 303 216 c 0,62,63
 315 198 315 198 337.5 159.5 c 128,-1,64
 360 121 360 121 379.5 94.5 c 128,-1,65
 399 68 399 68 427 41 c 0,66,67
 437 31 437 31 446.5 26.5 c 128,-1,68
 456 22 456 22 461.5 21 c 128,-1,69
 467 20 467 20 481 20.5 c 128,-1,70
 495 21 495 21 502 21 c 0,71,72
 505 21 505 21 506 17 c 128,-1,73
 507 13 507 13 505 8 c 128,-1,74
 503 3 503 3 500 1 c 0,75,76
 478 -14 478 -14 451 -14 c 0,77,78
 372 -14 372 -14 340 24 c 0,79,80
 328 39 328 39 318 53 c 128,-1,81
 308 67 308 67 302 77.5 c 128,-1,82
 296 88 296 88 280.5 114 c 128,-1,83
 265 140 265 140 252 161 c 0,84,85
 240 179 240 179 222 188 c 0,86,87
 196 201 196 201 167 203 c 0,88,89
 162 204 162 204 159.5 200 c 128,-1,90
 157 196 157 196 157 189 c 4,15,16
EndSplineSet
EndChar

StartChar: e
Encoding: 101 101 13
Width: 421
VWidth: 0
Flags: W
HStem: -3 24<11.2984 48.228> 3 36<164.786 334.559> 410 41<161.645 328.992> 429 21<22.3123 57.3167>
VStem: 79 75<45.5227 217.677 253 406.614> 347 19<347.096 375.298>
LayerCount: 2
Fore
SplineSet
257 216 m 1,0,1
 209 223 209 223 171 217 c 0,2,3
 154 214 154 214 154 200 c 0,4,5
 154 168 154 168 156 90 c 0,6,7
 158 39 158 39 199 39 c 2,8,9
 287 39 l 2,10,11
 292 39 292 39 310.5 43 c 128,-1,12
 329 47 329 47 335 51 c 0,13,14
 353 66 353 66 367 97 c 0,15,16
 371 104 371 104 382 104 c 0,17,18
 391 104 391 104 391 96 c 0,19,20
 387 56 387 56 374 10 c 1,21,22
 372 -2 372 -2 365 -2 c 0,23,24
 314 -2 314 -2 233.5 0.5 c 128,-1,25
 153 3 153 3 122 3 c 1,26,-1
 15 -3 l 2,27,28
 13 -3 13 -3 11.5 3 c 128,-1,29
 10 9 10 9 11 15 c 128,-1,30
 12 21 12 21 15 21 c 0,31,32
 46 30 46 30 60 42 c 0,33,34
 79 59 79 59 79 79 c 2,35,-1
 79 357 l 2,36,37
 79 398 79 398 70 407 c 0,38,39
 67 410 67 410 65 412.5 c 128,-1,40
 63 415 63 415 60.5 416.5 c 128,-1,41
 58 418 58 418 56.5 419 c 128,-1,42
 55 420 55 420 51 421.5 c 128,-1,43
 47 423 47 423 45 423.5 c 128,-1,44
 43 424 43 424 37 426 c 128,-1,45
 31 428 31 428 27 429 c 0,46,47
 22 430 22 430 21.5 440 c 128,-1,48
 21 450 21 450 27 450 c 0,49,50
 41 450 41 450 66.5 449 c 128,-1,51
 92 448 92 448 108 448 c 0,52,53
 146 448 146 448 202.5 449 c 128,-1,54
 259 450 259 450 297 450.5 c 128,-1,55
 335 451 335 451 343 451 c 0,56,57
 354 451 354 451 355 445 c 0,58,59
 366 388 366 388 366 353 c 0,60,61
 366 347 366 347 355 347 c 0,62,63
 350 347 350 347 347 354 c 0,64,65
 338 381 338 381 327 392 c 1,66,67
 312 410 312 410 285 410 c 2,68,-1
 179 410 l 2,69,70
 173 410 173 410 168 404.5 c 128,-1,71
 163 399 163 399 162 392 c 0,72,73
 157 364 157 364 156 339 c 0,74,75
 154 273 154 273 154 268 c 0,76,77
 154 253 154 253 161 253 c 2,78,-1
 248 253 l 2,79,80
 267 253 267 253 278 263 c 0,81,82
 287 272 287 272 290 281 c 1,83,84
 299 294 299 294 304 294 c 0,85,86
 307 294 307 294 310.5 290.5 c 128,-1,87
 314 287 314 287 313 283 c 0,88,89
 310 243 310 243 313 182 c 1,90,91
 315 170 315 170 307 170 c 0,92,93
 298 170 298 170 289 189 c 1,94,95
 283 211 283 211 257 216 c 1,0,1
EndSplineSet
EndChar

StartChar: c
Encoding: 99 99 14
Width: 429
VWidth: 0
Flags: W
HStem: -14 35<199.694 328.613> 427 31<184.191 329.172>
VStem: 12 83<132.261 317.163>
LayerCount: 2
Fore
SplineSet
263 458 m 20,0,1
 309 458 309 458 335 450 c 0,2,3
 341 448 341 448 363.5 443.5 c 128,-1,4
 386 439 386 439 392 437 c 0,5,6
 397 436 397 436 401 416 c 1,7,8
 405 373 405 373 406 340 c 0,9,10
 406 335 406 335 401.5 329 c 128,-1,11
 397 323 397 323 393 324 c 0,12,13
 373 326 373 326 371 346 c 0,14,15
 367 380 367 380 346 401 c 0,16,17
 335 412 335 412 306.5 419.5 c 128,-1,18
 278 427 278 427 247 427 c 0,19,20
 176 427 176 427 135.5 370 c 128,-1,21
 95 313 95 313 95 239 c 0,22,23
 95 154 95 154 140 89 c 128,-1,24
 185 24 185 24 261 21 c 0,25,26
 300 20 300 20 345 47 c 1,27,28
 372 62 372 62 383 99 c 0,29,30
 384 104 384 104 395.5 108 c 128,-1,31
 407 112 407 112 413 112 c 0,32,33
 422 112 422 112 420 94 c 0,34,35
 418 82 418 82 406.5 55 c 128,-1,36
 395 28 395 28 387 15 c 0,37,38
 382 5 382 5 332.5 -4.5 c 128,-1,39
 283 -14 283 -14 239 -14 c 0,40,41
 147 -14 147 -14 79.5 56 c 128,-1,42
 12 126 12 126 12 222 c 0,43,44
 12 322 12 322 86.5 390 c 128,-1,45
 161 458 161 458 263 458 c 20,0,1
EndSplineSet
EndChar

StartChar: u
Encoding: 117 117 15
Width: 563
VWidth: 0
Flags: W
HStem: -13 35<238.389 374.945> 425 25<35.0211 68.4721 167.691 200.01 380.363 415.874 499.32 542.199>
VStem: 80 75<101.856 419.064> 431 44<89.461 410.762>
LayerCount: 2
Fore
SplineSet
80 204 m 18,0,1
 80 372 l 2,2,3
 80 392 80 392 74 403.5 c 128,-1,4
 68 415 68 415 62 417.5 c 128,-1,5
 56 420 56 420 41 425 c 0,6,7
 37 426 37 426 34.5 432 c 128,-1,8
 32 438 32 438 33 444 c 128,-1,9
 34 450 34 450 39 450 c 0,10,11
 55 450 55 450 82 449 c 128,-1,12
 109 448 109 448 126 448 c 0,13,14
 138 448 138 448 156 449 c 128,-1,15
 174 450 174 450 195 450 c 0,16,17
 201 450 201 450 201 439 c 128,-1,18
 201 428 201 428 195 426 c 1,19,20
 156 421 156 421 155 365 c 1,21,-1
 155 185 l 2,22,23
 155 118 155 118 197.5 70 c 128,-1,24
 240 22 240 22 307 22 c 0,25,26
 371 22 371 22 401 62 c 128,-1,27
 431 102 431 102 431 193 c 2,28,-1
 431 350 l 1,29,30
 432 393 432 393 422.5 405.5 c 128,-1,31
 413 418 413 418 386 425 c 0,32,33
 379 427 379 427 379.5 439 c 128,-1,34
 380 451 380 451 387 451 c 2,35,-1
 459 451 l 2,36,37
 474 451 474 451 499 451.5 c 128,-1,38
 524 452 524 452 540 452 c 0,39,40
 546 452 546 452 545 441.5 c 128,-1,41
 544 431 544 431 540 430 c 0,42,43
 484 419 484 419 482 375 c 1,44,45
 475 298 475 298 475 217 c 0,46,47
 475 -13 475 -13 294 -13 c 0,48,49
 193 -13 193 -13 136.5 49 c 128,-1,50
 80 111 80 111 80 204 c 18,0,1
EndSplineSet
Substitution2: "loclLAT subtable" u.LAT
EndChar

StartChar: j
Encoding: 106 106 16
Width: 270
VWidth: 0
Flags: W
HStem: -175 43<-8.48442 84.4661> 429 23<40.6897 71.1651 213.74 244.915>
VStem: 105 75<-73.1229 409.459>
LayerCount: 2
Fore
SplineSet
105 376 m 2,0,1
 105 391 105 391 89 405 c 0,2,3
 77 416 77 416 45 429 c 0,4,5
 42 430 42 430 40.5 436 c 128,-1,6
 39 442 39 442 40.5 447 c 128,-1,7
 42 452 42 452 45 452 c 0,8,9
 67 452 67 452 96.5 451 c 128,-1,10
 126 450 126 450 145 450 c 0,11,12
 163 450 163 450 191 451 c 128,-1,13
 219 452 219 452 240 452 c 0,14,15
 246 452 246 452 246 441.5 c 128,-1,16
 246 431 246 431 240 429 c 0,17,18
 206 415 206 415 194 404 c 1,19,20
 180 394 180 394 180 376 c 2,21,-1
 180 136 l 2,22,23
 180 28 180 28 175 -9 c 0,24,25
 165 -83 165 -83 121 -128 c 0,26,27
 75 -175 75 -175 14 -175 c 0,28,29
 -32 -175 -32 -175 -56 -167 c 0,30,31
 -88 -156 -88 -156 -89 -136 c 0,32,33
 -90 -103 -90 -103 -58 -89 c 0,34,35
 -47 -84 -47 -84 -34.5 -89.5 c 128,-1,36
 -22 -95 -22 -95 -15 -104 c 0,37,38
 7 -132 7 -132 30 -132 c 0,39,40
 71 -132 71 -132 85 -112 c 0,41,42
 101 -89 101 -89 103 -52 c 0,43,44
 105 -13 105 -13 105 86 c 2,45,-1
 105 376 l 2,0,1
EndSplineSet
EndChar

StartChar: s
Encoding: 115 115 17
Width: 373
VWidth: 0
Flags: W
HStem: -11 35<115.496 225.454> 423 35<143.458 252.654>
VStem: 53 74<318.853 396.396> 247 84<53.416 148.023> 288 32<337.527 385.485>
LayerCount: 2
Fore
SplineSet
169 24 m 0,0,1
 247 24 247 24 247 99 c 0,2,3
 247 106 247 106 245.5 112 c 128,-1,4
 244 118 244 118 242.5 123 c 128,-1,5
 241 128 241 128 236.5 134 c 128,-1,6
 232 140 232 140 229 144 c 128,-1,7
 226 148 226 148 219 154 c 128,-1,8
 212 160 212 160 208.5 163 c 128,-1,9
 205 166 205 166 195.5 172.5 c 128,-1,10
 186 179 186 179 181.5 182 c 128,-1,11
 177 185 177 185 165 192.5 c 128,-1,12
 153 200 153 200 148 203 c 0,13,14
 53 263 53 263 53 340 c 0,15,16
 53 379 53 379 94 418.5 c 128,-1,17
 135 458 135 458 205 458 c 0,18,19
 226 458 226 458 245 454.5 c 128,-1,20
 264 451 264 451 278 446.5 c 128,-1,21
 292 442 292 442 296 441 c 0,22,23
 307 440 307 440 309 426 c 0,24,25
 320 373 320 373 320 352 c 0,26,27
 320 347 320 347 317.5 341 c 128,-1,28
 315 335 315 335 312 335 c 0,29,30
 308 335 308 335 298.5 340 c 128,-1,31
 289 345 289 345 288 352 c 0,32,33
 268 423 268 423 196 423 c 0,34,35
 127 423 127 423 127 364 c 0,36,37
 127 355 127 355 130 346.5 c 128,-1,38
 133 338 133 338 140 329 c 128,-1,39
 147 320 147 320 152 314.5 c 128,-1,40
 157 309 157 309 169 300 c 128,-1,41
 181 291 181 291 185.5 287.5 c 128,-1,42
 190 284 190 284 204.5 275 c 128,-1,43
 219 266 219 266 221 265 c 0,44,45
 331 194 331 194 331 120 c 0,46,47
 331 71 331 71 290 30 c 128,-1,48
 249 -11 249 -11 172 -11 c 0,49,50
 148 -11 148 -11 128 -8 c 128,-1,51
 108 -5 108 -5 88.5 0.5 c 128,-1,52
 69 6 69 6 64 7 c 128,-1,53
 59 8 59 8 57 9 c 128,-1,54
 55 10 55 10 54 12.5 c 2,55,-1
 53 15 l 2,56,57
 47 28 47 28 39 60 c 128,-1,58
 31 92 31 92 30 110 c 0,59,60
 30 114 30 114 37 117.5 c 128,-1,61
 44 121 44 121 50 121 c 0,62,63
 52 121 52 121 61 106 c 128,-1,64
 70 91 70 91 82.5 72.5 c 128,-1,65
 95 54 95 54 118.5 39 c 128,-1,66
 142 24 142 24 169 24 c 0,0,1
EndSplineSet
EndChar

StartChar: f
Encoding: 102 102 18
Width: 379
VWidth: 0
Flags: W
HStem: -3 30<185.724 227.063> 212 35<158.005 280.438> 413 39<164.053 315.388> 423 27<26.4005 66.0696>
VStem: 83 75<46.13 212.528 247.006 394.663>
LayerCount: 2
Fore
SplineSet
224 -3 m 0,0,1
 209 -3 209 -3 188.5 -0.5 c 128,-1,2
 168 2 168 2 130 2 c 1,3,-1
 28 -4 l 2,4,5
 26 -4 26 -4 24.5 3.5 c 128,-1,6
 23 11 23 11 24 19 c 128,-1,7
 25 27 25 27 28 27 c 0,8,9
 55 34 55 34 70 49 c 1,10,11
 83 60 83 60 83 89 c 2,12,-1
 83 350 l 2,13,14
 83 392 83 392 74 402 c 0,15,16
 71 405 71 405 69 407 c 128,-1,17
 67 409 67 409 64.5 411 c 128,-1,18
 62 413 62 413 60.5 413.5 c 128,-1,19
 59 414 59 414 55 415.5 c 128,-1,20
 51 417 51 417 49 417.5 c 128,-1,21
 47 418 47 418 41 420 c 128,-1,22
 35 422 35 422 31 423 c 0,23,24
 26 425 26 425 25 437.5 c 128,-1,25
 24 450 24 450 31 450 c 0,26,27
 46 450 46 450 65 449 c 128,-1,28
 84 448 84 448 97 448 c 0,29,30
 138 448 138 448 194 449 c 128,-1,31
 250 450 250 450 290.5 451 c 128,-1,32
 331 452 331 452 337 452 c 0,33,34
 349 452 349 452 350 445 c 0,35,36
 351 441 351 441 354 359 c 0,37,38
 354 353 354 353 343 353 c 0,39,40
 333 353 333 353 332 360 c 1,41,42
 324 385 324 385 316 394 c 0,43,44
 298 413 298 413 269 413 c 2,45,-1
 181 413 l 2,46,47
 176 413 176 413 170.5 407 c 128,-1,48
 165 401 165 401 164 395 c 0,49,50
 161 377 161 377 160 350 c 0,51,52
 158 282 158 282 158 263 c 0,53,54
 158 247 158 247 165 247 c 0,55,56
 181 247 181 247 210 248 c 128,-1,57
 239 249 239 249 245 249 c 0,58,59
 264 249 264 249 276 260 c 0,60,61
 283 266 283 266 287 276 c 0,62,63
 288 279 288 279 295 283.5 c 128,-1,64
 302 288 302 288 305 288 c 128,-1,65
 308 288 308 288 311 284.5 c 128,-1,66
 314 281 314 281 314 277 c 0,67,68
 310 245 310 245 314 182 c 0,69,70
 314 170 314 170 308 170 c 0,71,72
 301 170 301 170 294.5 176 c 128,-1,73
 288 182 288 182 287 186 c 0,74,75
 279 211 279 211 254 213 c 0,76,77
 213 216 213 216 174 212 c 1,78,79
 158 212 158 212 158 195 c 0,80,81
 158 167 158 167 160 89 c 0,82,83
 160 81 160 81 161 75.5 c 128,-1,84
 162 70 162 70 164.5 65.5 c 128,-1,85
 167 61 167 61 168 59.5 c 128,-1,86
 169 58 169 58 173.5 53 c 128,-1,87
 178 48 178 48 179 47 c 0,88,89
 190 34 190 34 224 27 c 0,90,91
 227 26 227 26 228 11.5 c 128,-1,92
 229 -3 229 -3 224 -3 c 0,0,1
EndSplineSet
EndChar

StartChar: longs
Encoding: 383 383 19
Width: 373
Flags: W
HStem: -11 35<115.496 225.454> 423 35<143.458 252.654>
VStem: 53 74<318.853 396.396> 247 84<53.416 148.023> 288 32<337.527 385.485>
LayerCount: 2
Fore
SplineSet
169 24 m 0,0,1
 247 24 247 24 247 99 c 0,2,3
 247 106 247 106 245.5 112 c 128,-1,4
 244 118 244 118 242.5 123 c 128,-1,5
 241 128 241 128 236.5 134 c 128,-1,6
 232 140 232 140 229 144 c 128,-1,7
 226 148 226 148 219 154 c 128,-1,8
 212 160 212 160 208.5 163 c 128,-1,9
 205 166 205 166 195.5 172.5 c 128,-1,10
 186 179 186 179 181.5 182 c 128,-1,11
 177 185 177 185 165 192.5 c 128,-1,12
 153 200 153 200 148 203 c 0,13,14
 53 263 53 263 53 340 c 0,15,16
 53 379 53 379 94 418.5 c 128,-1,17
 135 458 135 458 205 458 c 0,18,19
 226 458 226 458 245 454.5 c 128,-1,20
 264 451 264 451 278 446.5 c 128,-1,21
 292 442 292 442 296 441 c 0,22,23
 307 440 307 440 309 426 c 0,24,25
 320 373 320 373 320 352 c 0,26,27
 320 347 320 347 317.5 341 c 128,-1,28
 315 335 315 335 312 335 c 0,29,30
 308 335 308 335 298.5 340 c 128,-1,31
 289 345 289 345 288 352 c 0,32,33
 268 423 268 423 196 423 c 0,34,35
 127 423 127 423 127 364 c 0,36,37
 127 355 127 355 130 346.5 c 128,-1,38
 133 338 133 338 140 329 c 128,-1,39
 147 320 147 320 152 314.5 c 128,-1,40
 157 309 157 309 169 300 c 128,-1,41
 181 291 181 291 185.5 287.5 c 128,-1,42
 190 284 190 284 204.5 275 c 128,-1,43
 219 266 219 266 221 265 c 0,44,45
 331 194 331 194 331 120 c 0,46,47
 331 71 331 71 290 30 c 128,-1,48
 249 -11 249 -11 172 -11 c 0,49,50
 148 -11 148 -11 128 -8 c 128,-1,51
 108 -5 108 -5 88.5 0.5 c 128,-1,52
 69 6 69 6 64 7 c 128,-1,53
 59 8 59 8 57 9 c 128,-1,54
 55 10 55 10 54 12.5 c 2,55,-1
 53 15 l 2,56,57
 47 28 47 28 39 60 c 128,-1,58
 31 92 31 92 30 110 c 0,59,60
 30 114 30 114 37 117.5 c 128,-1,61
 44 121 44 121 50 121 c 0,62,63
 52 121 52 121 61 106 c 128,-1,64
 70 91 70 91 82.5 72.5 c 128,-1,65
 95 54 95 54 118.5 39 c 128,-1,66
 142 24 142 24 169 24 c 0,0,1
EndSplineSet
EndChar

StartChar: germandbls
Encoding: 223 223 21
Width: 514
VWidth: 0
Flags: W
HStem: -13 30<264.371 346.61> -1 20<9.80891 38.6136 154.14 181.824> 424 30<227.232 341.938>
VStem: 63 75<30.3555 333.436> 380 84<53.1929 183.848>
LayerCount: 2
Fore
SplineSet
286 -13 m 0,0,1
 269 -13 269 -13 228 -4 c 0,2,3
 223 -3 223 -3 221.5 -2 c 128,-1,4
 220 -1 220 -1 219 1.5 c 2,5,-1
 218 4 l 2,6,7
 212 17 212 17 205 48.5 c 128,-1,8
 198 80 198 80 197 98 c 0,9,10
 197 109 197 109 211 109 c 0,11,12
 212 109 212 109 223 86 c 128,-1,13
 234 63 234 63 255.5 40 c 128,-1,14
 277 17 277 17 305 17 c 0,15,16
 343 17 343 17 361.5 48.5 c 128,-1,17
 380 80 380 80 380 124 c 0,18,19
 380 177 380 177 330 206 c 0,20,21
 297 225 297 225 232 225 c 0,22,23
 230 225 230 225 228 225 c 128,-1,24
 226 225 226 225 223 226 c 128,-1,25
 220 227 220 227 219.5 228 c 128,-1,26
 219 229 219 229 220 232 c 0,27,28
 308 352 308 352 344 409 c 0,29,30
 349 417 349 417 340 420 c 0,31,32
 322 424 322 424 294 424 c 0,33,34
 226 424 226 424 182 373 c 0,35,36
 158 345 158 345 149.5 316.5 c 128,-1,37
 141 288 141 288 138 242 c 0,38,39
 135 183 135 183 138 81 c 0,40,41
 139 24 139 24 177 19 c 0,42,43
 181 19 181 19 182 14 c 128,-1,44
 183 9 183 9 181.5 4 c 128,-1,45
 180 -1 180 -1 177 -1 c 0,46,47
 157 -1 157 -1 134.5 0 c 128,-1,48
 112 1 112 1 97 1 c 0,49,50
 81 1 81 1 55 0 c 128,-1,51
 29 -1 29 -1 13 -1 c 0,52,53
 9 -1 9 -1 8 4 c 128,-1,54
 7 9 7 9 9.5 14.5 c 128,-1,55
 12 20 12 20 16 21 c 0,56,57
 28 24 28 24 33.5 26.5 c 128,-1,58
 39 29 39 29 47.5 34.5 c 128,-1,59
 56 40 56 40 59.5 50 c 128,-1,60
 63 60 63 60 63 75 c 2,61,-1
 63 223 l 2,62,63
 63 278 63 278 81.5 326.5 c 128,-1,64
 100 375 100 375 130 405 c 0,65,66
 149 424 149 424 189.5 439 c 128,-1,67
 230 454 230 454 271 454 c 128,-1,68
 312 454 312 454 360 445 c 128,-1,69
 408 436 408 436 431 428 c 0,70,71
 434 427 434 427 437 423 c 128,-1,72
 440 419 440 419 438 416 c 0,73,74
 436 414 436 414 429 405 c 128,-1,75
 422 396 422 396 415 386.5 c 128,-1,76
 408 377 408 377 404 371 c 0,77,78
 351 302 351 302 322 256 c 0,79,80
 320 254 320 254 321 250.5 c 128,-1,81
 322 247 322 247 325 247 c 0,82,83
 354 247 354 247 378 241 c 0,84,85
 418 231 418 231 441 201 c 128,-1,86
 464 171 464 171 464 128 c 0,87,88
 464 62 464 62 415.5 24.5 c 128,-1,89
 367 -13 367 -13 286 -13 c 0,0,1
EndSplineSet
EndChar

StartChar: v
Encoding: 118 118 22
Width: 537
VWidth: 0
Flags: W
HStem: 432 20<189.955 227.359 349.151 374.832 477.195 515.433>
LayerCount: 2
Fore
SplineSet
267 -15 m 128,-1,1
 264 -15 264 -15 258.5 -3 c 128,-1,2
 253 9 253 9 244 34 c 128,-1,3
 235 59 235 59 231 68 c 0,4,5
 209 123 209 123 176 206 c 128,-1,6
 143 289 143 289 118 349 c 0,7,8
 101 389 101 389 88 404 c 0,9,10
 72 421 72 421 36 431 c 0,11,12
 33 432 33 432 30.5 437.5 c 128,-1,13
 28 443 28 443 29 447.5 c 128,-1,14
 30 452 30 452 34 452 c 0,15,16
 50 452 50 452 70.5 451 c 128,-1,17
 91 450 91 450 104 450 c 0,18,19
 128 450 128 450 167 451 c 128,-1,20
 206 452 206 452 223 452 c 0,21,22
 226 452 226 452 227.5 447.5 c 128,-1,23
 229 443 229 443 228 438 c 128,-1,24
 227 433 227 433 223 432 c 0,25,26
 201 430 201 430 191.5 424 c 128,-1,27
 182 418 182 418 182 404 c 0,28,29
 182 399 182 399 196 337 c 1,30,31
 210 283 210 283 277 136 c 0,32,33
 283 122 283 122 285 119.5 c 128,-1,34
 287 117 287 117 289.5 119.5 c 128,-1,35
 292 122 292 122 298 136 c 0,36,37
 300 141 300 141 385 345 c 0,38,39
 401 383 401 383 395 399 c 0,40,41
 387 422 387 422 354 429 c 0,42,43
 347 430 347 430 348 440 c 128,-1,44
 349 450 349 450 355 450 c 2,45,-1
 436 450 l 2,46,47
 451 450 451 450 474.5 451 c 128,-1,48
 498 452 498 452 513 452 c 0,49,50
 518 452 518 452 517 443 c 128,-1,51
 516 434 516 434 513 433 c 0,52,53
 476 424 476 424 467 414 c 0,54,55
 450 396 450 396 428 344 c 0,56,57
 409 299 409 299 366 205 c 128,-1,58
 323 111 323 111 298 51 c 0,59,60
 297 49 297 49 294 39.5 c 128,-1,61
 291 30 291 30 288 22 c 128,-1,62
 285 14 285 14 281 5 c 128,-1,63
 277 -4 277 -4 273.5 -9.5 c 128,-1,0
 270 -15 270 -15 267 -15 c 128,-1,1
EndSplineSet
EndChar

StartChar: w
Encoding: 119 119 23
Width: 719
VWidth: 0
Flags: W
HStem: 425 23<9.83059 40.5764 151.975 197.041 218.111 254.615 471.288 519.559 540.984 576.861 656.654 698.004>
LayerCount: 2
Fore
SplineSet
621 362 m 4,0,1
 600 300 600 300 567 199 c 128,-1,2
 534 98 534 98 511 32 c 0,3,4
 506 18 506 18 490 -2 c 128,-1,5
 474 -22 474 -22 470 -22 c 0,6,7
 467 -22 467 -22 458 -16.5 c 128,-1,8
 449 -11 449 -11 446 -4 c 0,9,10
 430 29 430 29 419.5 53.5 c 128,-1,11
 409 78 409 78 392.5 120 c 128,-1,12
 376 162 376 162 367 186 c 0,13,14
 366.655549376 186.918534998 366.655549376 186.918534998 365.998628766 188.792321092 c 0,15,16
 361.749877053 200.911368299 361.749877053 200.911368299 357.502965796 191.657554065 c 2,17,-1
 356 188 l 1,18,19
 342 150 342 150 318.5 97.5 c 128,-1,20
 295 45 295 45 280 2 c 0,21,22
 277 -5 277 -5 265.5 -14 c 128,-1,23
 254 -23 254 -23 249 -23 c 0,24,25
 247 -23 247 -23 236 -14.5 c 128,-1,26
 225 -6 225 -6 223 0 c 2,27,-1
 71 376 l 2,28,29
 63 395 63 395 54 403 c 0,30,31
 36 419 36 419 16 425 c 0,32,33
 9 427 9 427 9 437.5 c 128,-1,34
 9 448 9 448 16 448 c 0,35,36
 31 448 31 448 57 446.5 c 128,-1,37
 83 445 83 445 99 445 c 0,38,39
 118 445 118 445 147.5 446.5 c 128,-1,40
 177 448 177 448 191 448 c 0,41,42
 196 448 196 448 197.5 442.5 c 128,-1,43
 199 437 199 437 197 431 c 128,-1,44
 195 425 195 425 190 425 c 0,45,46
 172 424 172 424 159 418 c 128,-1,47
 146 412 146 412 146 405 c 1,48,-1
 158 369 l 1,49,50
 252 131 252 131 273 82 c 0,51,52
 274 79 274 79 278 78.5 c 128,-1,53
 282 78 282 78 284 81 c 0,54,55
 295 108 295 108 311 151.5 c 128,-1,56
 327 195 327 195 338 222 c 0,57,58
 344 239 344 239 343.5 241 c 128,-1,59
 343 243 343 243 337 259 c 0,60,61
 331 274 331 274 319.5 308 c 128,-1,62
 308 342 308 342 297 364 c 0,63,64
 284 391 284 391 269 403 c 0,65,66
 244 423 244 423 223 425 c 0,67,68
 217 425 217 425 217.5 436.5 c 128,-1,69
 218 448 218 448 223 448 c 0,70,71
 234 448 234 448 257 446.5 c 128,-1,72
 280 445 280 445 294 445 c 0,73,74
 310 445 310 445 336 446.5 c 128,-1,75
 362 448 362 448 370 448 c 0,76,77
 377 448 377 448 376.5 437.5 c 128,-1,78
 376 427 376 427 370 425 c 0,79,80
 353 422 353 422 353 405 c 0,81,82
 353 394 353 394 378 329 c 0,83,84
 378.644561415 327.469166638 378.644561415 327.469166638 379.730446521 324.851755921 c 2,85,-1
 384.091724345 316.696376488 l 2,86,87
 384.803002626 316.887310828 384.803002626 316.887310828 386.441515517 322.614732923 c 0,88,89
 388.349801865 329.285148186 388.349801865 329.285148186 390 334 c 0,90,91
 414 393 414 393 414 405 c 0,92,93
 414 411 414 411 409 417.5 c 128,-1,94
 404 424 404 424 396 425 c 0,95,96
 393 426 393 426 391.5 431.5 c 128,-1,97
 390 437 390 437 391.5 442.5 c 128,-1,98
 393 448 393 448 396 448 c 0,99,100
 407 448 407 448 422 446.5 c 128,-1,101
 437 445 437 445 447 445 c 0,102,103
 461 445 461 445 482.5 446.5 c 128,-1,104
 504 448 504 448 514 448 c 0,105,106
 521 448 521 448 520.5 438 c 128,-1,107
 520 428 520 428 514 426 c 0,108,109
 511 425 511 425 505 424 c 128,-1,110
 499 423 499 423 497 422.5 c 128,-1,111
 495 422 495 422 490 421 c 128,-1,112
 485 420 485 420 483.5 419.5 c 128,-1,113
 482 419 482 419 478 417 c 128,-1,114
 474 415 474 415 472 413.5 c 128,-1,115
 470 412 470 412 466.5 410 c 128,-1,116
 463 408 463 408 461 405 c 128,-1,117
 459 402 459 402 456 398 c 128,-1,118
 453 394 453 394 450 390 c 0,119,120
 427 351 427 351 407 297 c 0,121,122
 400 280 400 280 405 266 c 0,123,124
 434 185 434 185 484 79 c 0,125,126
 485 77 485 77 488 78.5 c 128,-1,127
 491 80 491 80 492 83 c 0,128,129
 540 228 540 228 579 366 c 0,130,131
 583 380 583 380 583 405 c 0,132,133
 583 411 583 411 572 417 c 128,-1,134
 561 423 561 423 547 425 c 0,135,136
 540 426 540 426 540 437 c 128,-1,137
 540 448 540 448 547 448 c 0,138,139
 561 448 561 448 585 446.5 c 128,-1,140
 609 445 609 445 624 445 c 0,141,142
 637 445 637 445 658 446.5 c 128,-1,143
 679 448 679 448 694 448 c 0,144,145
 696 448 696 448 698 442.5 c 128,-1,146
 700 437 700 437 699 431 c 128,-1,147
 698 425 698 425 694 425 c 0,148,149
 664 418 664 418 652 411 c 0,150,151
 634 399 634 399 621 362 c 4,0,1
EndSplineSet
EndChar

StartChar: y
Encoding: 121 121 24
Width: 494
VWidth: 0
Flags: W
HStem: -4 27<127.655 172.989 302.406 347.107> 426 24<23.6411 59.0781 166.547 201.245 302.585 337.089 417.265 457.175>
VStem: 200 75<47.4598 248.634>
LayerCount: 2
Fore
SplineSet
30 426 m 0,0,1
 26 426 26 426 23.5 432 c 128,-1,2
 21 438 21 438 22 444 c 128,-1,3
 23 450 23 450 27 450 c 0,4,5
 43 450 43 450 69 449 c 128,-1,6
 95 448 95 448 111 448 c 128,-1,7
 127 448 127 448 152 449 c 128,-1,8
 177 450 177 450 197 450 c 0,9,10
 202 450 202 450 202 439.5 c 128,-1,11
 202 429 202 429 197 428 c 0,12,13
 150 421 150 421 170 385 c 0,14,15
 186 357 186 357 196.5 341 c 128,-1,16
 207 325 207 325 219 308.5 c 128,-1,17
 231 292 231 292 240 279 c 0,18,19
 244 273 244 273 249 265.5 c 128,-1,20
 254 258 254 258 254.5 256.5 c 128,-1,21
 255 255 255 255 258 254.5 c 128,-1,22
 261 254 261 254 261.5 256.5 c 128,-1,23
 262 259 262 259 267 266 c 128,-1,24
 272 273 272 273 277 279 c 0,25,26
 323 343 323 343 343 382 c 0,27,28
 351 399 351 399 339.5 411.5 c 128,-1,29
 328 424 328 424 307 427 c 0,30,31
 301 428 301 428 301.5 439.5 c 128,-1,32
 302 451 302 451 309 451 c 2,33,-1
 381 451 l 2,34,35
 396 451 396 451 418 451.5 c 128,-1,36
 440 452 440 452 455 452 c 0,37,38
 461 452 461 452 460 442 c 128,-1,39
 459 432 459 432 455 431 c 0,40,41
 412 425 412 425 370 361 c 1,42,43
 355 335 355 335 333.5 305 c 128,-1,44
 312 275 312 275 294 246 c 0,45,46
 291 241 291 241 287 235 c 128,-1,47
 283 229 283 229 282 227 c 128,-1,48
 281 225 281 225 278.5 221 c 128,-1,49
 276 217 276 217 276 215.5 c 128,-1,50
 276 214 276 214 275 209.5 c 128,-1,51
 274 205 274 205 275 202.5 c 128,-1,52
 276 200 276 200 275 193 c 1,53,54
 276 176 276 176 275.5 136.5 c 128,-1,55
 275 97 275 97 275 82 c 0,56,57
 275 59 275 59 288 47 c 0,58,59
 308 29 308 29 340 23 c 0,60,61
 346 22 346 22 348 15 c 128,-1,62
 350 8 350 8 347.5 2 c 128,-1,63
 345 -4 345 -4 340 -4 c 0,64,65
 320 -4 320 -4 290 -1 c 128,-1,66
 260 2 260 2 241 2 c 0,67,68
 220 2 220 2 186 -1 c 128,-1,69
 152 -4 152 -4 134 -4 c 0,70,71
 130 -4 130 -4 127.5 2 c 128,-1,72
 125 8 125 8 126.5 15 c 128,-1,73
 128 22 128 22 134 23 c 0,74,75
 167 29 167 29 187 47 c 0,76,77
 200 59 200 59 200 82 c 2,78,-1
 200 193 l 2,79,80
 200 211 200 211 188 235 c 0,81,82
 175 259 175 259 162 277.5 c 128,-1,83
 149 296 149 296 131 319.5 c 128,-1,84
 113 343 113 343 101 359 c 0,85,86
 99 362 99 362 91 375.5 c 128,-1,87
 83 389 83 389 76 398.5 c 128,-1,88
 69 408 69 408 56.5 416.5 c 128,-1,89
 44 425 44 425 30 426 c 0,0,1
EndSplineSet
EndChar

StartChar: g
Encoding: 103 103 25
Width: 507
VWidth: 0
Flags: W
HStem: -12 36<204.672 351.615> 178 34<300.377 373.835 453.411 491.445> 422 32<207.383 359.691>
VStem: 20 84<132.931 310.158> 381 75<45.6252 162.706> 381 62<52.1408 156.612>
LayerCount: 2
Fore
SplineSet
272 24 m 0,0,1
 322 24 322 24 360 46 c 1,2,3
 381 60 381 60 381 102 c 0,4,5
 381 108 381 108 382 122.5 c 128,-1,6
 383 137 383 137 382.5 145 c 128,-1,7
 382 153 382 153 379 157 c 0,8,9
 370 167 370 167 348.5 172.5 c 128,-1,10
 327 178 327 178 312 178 c 0,11,12
 303 178 303 178 298 204 c 1,13,14
 298 212 298 212 301 212 c 0,15,16
 322 212 322 212 354 210.5 c 128,-1,17
 386 209 386 209 405 209 c 0,18,19
 421 209 421 209 446 210 c 128,-1,20
 471 211 471 211 483 211 c 0,21,22
 492 211 492 211 492 205 c 0,23,24
 492 181 492 181 485 178 c 0,25,26
 448 167 448 167 446 145 c 0,27,28
 443 113 443 113 443 74 c 0,29,30
 443 70 443 70 447 63 c 0,31,32
 448 61 448 61 452 57.5 c 128,-1,33
 456 54 456 54 456 52 c 0,34,35
 456 44 456 44 446 39 c 0,36,37
 398 13 398 13 367 4 c 0,38,39
 312 -12 312 -12 271 -12 c 0,40,41
 169 -12 169 -12 94.5 55.5 c 128,-1,42
 20 123 20 123 20 222 c 128,-1,43
 20 321 20 321 101.5 387.5 c 128,-1,44
 183 454 183 454 290 454 c 0,45,46
 361 454 361 454 404 440 c 0,47,48
 426 433 426 433 429 420 c 0,49,50
 442 368 442 368 442 342 c 0,51,52
 442 328 442 328 431 328 c 0,53,54
 421 328 421 328 412 334 c 128,-1,55
 403 340 403 340 401 347 c 0,56,57
 390 378 390 378 378 393 c 1,58,59
 351 423 351 423 275 422 c 0,60,61
 202 421 202 421 153 368.5 c 128,-1,62
 104 316 104 316 104 238 c 0,63,64
 104 152 104 152 150.5 88 c 128,-1,65
 197 24 197 24 272 24 c 0,0,1
EndSplineSet
EndChar

StartChar: P
Encoding: 80 80 26
Width: 557
VWidth: 0
Flags: W
HStem: -5 29<29.6924 105.631 244.305 314.308> 257 23<265.153 362.204> 622 31<42.0745 110.304> 630 27<227.831 349.948>
VStem: 135 80<45.1651 603.448> 454 88<375.299 548.156>
LayerCount: 2
Fore
SplineSet
188 2 m 24,0,1
 163 2 163 2 124 -1.5 c 128,-1,2
 85 -5 85 -5 58 -5 c 0,3,4
 29 -5 29 -5 29 6 c 0,5,6
 29 18 29 18 62 24 c 0,7,8
 101 31 101 31 118 47.5 c 128,-1,9
 135 64 135 64 135 100 c 2,10,-1
 135 522 l 2,11,12
 135 570 135 570 122.5 593 c 128,-1,13
 110 616 110 616 74 622 c 0,14,15
 41 628 41 628 41 642 c 0,16,17
 41 653 41 653 70 653 c 128,-1,18
 99 653 99 653 124 652.5 c 128,-1,19
 149 652 149 652 168 652 c 0,20,21
 190 652 190 652 228 654.5 c 128,-1,22
 266 657 266 657 279 657 c 0,23,24
 395 657 395 657 468.5 607 c 128,-1,25
 542 557 542 557 542 460 c 0,26,27
 542 424 542 424 520.5 376 c 128,-1,28
 499 328 499 328 468 304 c 0,29,30
 428 274 428 274 374.5 262 c 128,-1,31
 321 250 321 250 281 257 c 0,32,33
 262.695325586 260.542840209 262.695325586 260.542840209 262.789266048 269.404043725 c 128,-1,34
 262.882979362 278.243820939 262.882979362 278.243820939 274.627741621 279.977214544 c 0,35,36
 276.856707616 280.306184626 276.856707616 280.306184626 279 280 c 0,37,38
 343 271 343 271 391 307 c 0,39,40
 452 354 452 354 454 471 c 0,41,42
 455 548 455 548 400.5 589 c 128,-1,43
 346 630 346 630 279 630 c 0,44,45
 215 630 215 630 215 588 c 2,46,-1
 215 111 l 2,47,48
 215 36 215 36 282 24 c 0,49,50
 315 18 315 18 315 6 c 0,51,52
 315 -5 315 -5 286 -5 c 128,-1,53
 257 -5 257 -5 231 -1.5 c 128,-1,54
 205 2 205 2 188 2 c 24,0,1
EndSplineSet
Validated: 33
EndChar

StartChar: M
Encoding: 77 77 27
Width: 901
VWidth: 0
Flags: W
HStem: -5 29<19.6924 82.5 196.034 261.308 585.692 653.169 789.765 864.308> 627 28<42.4252 105.775 787.428 842.611>
VStem: 657 78<325.525 456.969> 669 88<45.3904 347.143>
LayerCount: 2
Fore
SplineSet
735 568 m 0,0,1
 735 485 735 485 738.5 407 c 128,-1,2
 742 329 742 329 748.5 232.5 c 128,-1,3
 755 136 755 136 757 95 c 0,4,5
 758 64 758 64 776 47.5 c 128,-1,6
 794 31 794 31 832 24 c 0,7,8
 865 18 865 18 865 6 c 0,9,10
 865 -5 865 -5 836 -5 c 0,11,12
 808 -5 808 -5 774.5 -2.5 c 128,-1,13
 741 0 741 0 719 0 c 0,14,15
 700 0 700 0 671.5 -2.5 c 128,-1,16
 643 -5 643 -5 614 -5 c 128,-1,17
 585 -5 585 -5 585 6 c 0,18,19
 585 20 585 20 618 24 c 0,20,21
 647 28 647 28 658 44 c 128,-1,22
 669 60 669 60 669 96 c 0,23,24
 669 194 669 194 657 464 c 0,25,26
 656 495 656 495 641 464 c 2,27,-1
 419 14 l 2,28,29
 414 3 414 3 410 -2.5 c 128,-1,30
 406 -8 406 -8 403.5 -9.5 c 128,-1,31
 401 -11 401 -11 398 -7.5 c 128,-1,32
 395 -4 395 -4 393 1 c 128,-1,33
 391 6 391 6 388 16 c 0,34,35
 332 184 332 184 209 471 c 0,36,37
 199 494 199 494 196 471 c 0,38,39
 172 295 172 295 164 104 c 0,40,41
 163 80 163 80 179 55 c 128,-1,42
 195 30 195 30 229 24 c 0,43,44
 262 18 262 18 262 6 c 0,45,46
 262 -5 262 -5 233 -5 c 128,-1,47
 204 -5 204 -5 179.5 -2.5 c 128,-1,48
 155 0 155 0 139 0 c 128,-1,49
 123 0 123 0 100 -2.5 c 128,-1,50
 77 -5 77 -5 48 -5 c 128,-1,51
 19 -5 19 -5 19 6 c 0,52,53
 19 18 19 18 52 24 c 0,54,55
 103 33 103 33 114 102 c 1,56,57
 155 409 155 409 155 538 c 0,58,59
 155 539 155 539 155.005819084 542.096687665 c 0,60,61
 155 556 155 556 154.5 562 c 128,-1,62
 154 568 154 568 150.5 576 c 128,-1,63
 147 584 147 584 139 593 c 0,64,65
 133 600 133 600 125.5 605 c 128,-1,66
 118 610 118 610 107.5 613.5 c 128,-1,67
 97 617 97 617 90 619 c 128,-1,68
 83 621 83 621 71 623.5 c 128,-1,69
 59 626 59 626 56 627 c 0,70,71
 42 632 42 632 42 644 c 0,72,73
 42 655 42 655 65 655 c 0,74,75
 85 655 85 655 152 651 c 128,-1,76
 219 647 219 647 231 647 c 0,77,78
 239 647 239 647 245.5 630.5 c 128,-1,79
 252 614 252 614 258 588 c 128,-1,80
 264 562 264 562 267 554 c 2,81,-1
 425 153 l 2,82,83
 436 125 436 125 448 150 c 2,84,-1
 645 560 l 2,85,86
 651 573 651 573 655 596 c 128,-1,87
 659 619 659 619 663 633.5 c 128,-1,88
 667 648 667 648 673 648 c 2,89,-1
 709 648 l 2,90,91
 733 648 733 648 773 652 c 128,-1,92
 813 656 813 656 820 656 c 0,93,94
 844 656 844 656 844 646 c 0,95,96
 844 632 844 632 818 623 c 0,97,98
 792 615 792 615 779.5 611 c 128,-1,99
 767 607 767 607 751 595 c 128,-1,100
 735 583 735 583 735 568 c 0,0,1
EndSplineSet
Validated: 33
EndChar

StartChar: N
Encoding: 78 78 28
Width: 790
VWidth: 0
Flags: W
HStem: -5 29<24.6924 81.8724 198.357 266.308> 619 31<541.074 604.256 687.265 766.979> 620 38<13.6632 90.6284>
VStem: 24 146<6 104> 629 43<141.724 601.587>
LayerCount: 2
Fore
SplineSet
674 568 m 0,0,1
 672 520 672 520 672 8 c 0,2,3
 672 -17 672 -17 651 -17 c 0,4,5
 640 -17 640 -17 616 -0.5 c 128,-1,6
 592 16 592 16 570 46 c 0,7,8
 541 86 541 86 214 484 c 0,9,10
 202 499 202 499 195 499 c 128,-1,11
 188 499 188 499 186.5 494 c 128,-1,12
 185 489 185 489 184 479 c 0,13,14
 172 348 172 348 170 104 c 0,15,16
 169 36 169 36 234 24 c 0,17,18
 267 18 267 18 267 6 c 0,19,20
 267 -5 267 -5 238 -5 c 128,-1,21
 209 -5 209 -5 184.5 -2.5 c 128,-1,22
 160 0 160 0 144 0 c 0,23,24
 129 0 129 0 105.5 -2.5 c 128,-1,25
 82 -5 82 -5 53 -5 c 128,-1,26
 24 -5 24 -5 24 6 c 0,27,28
 24 18 24 18 57 24 c 0,29,30
 81 29 81 29 97 58.5 c 128,-1,31
 113 88 113 88 115 107 c 0,32,33
 120 150 120 150 144 504 c 0,34,35
 147 551 147 551 124 576 c 0,36,37
 99 602 99 602 43 620 c 0,38,39
 12 630 12 630 12 644 c 128,-1,40
 12 658 12 658 35 658 c 0,41,42
 66 657 66 657 107.5 655 c 128,-1,43
 149 653 149 653 189 653 c 0,44,45
 201 653 201 653 213 636 c 0,46,47
 226 618 226 618 400.5 398.5 c 128,-1,48
 575 179 575 179 594 156 c 0,49,50
 627 116 627 116 629 157 c 0,51,52
 631 188 631 188 631.5 358.5 c 128,-1,53
 632 529 632 529 631 564 c 0,54,55
 630 582 630 582 610.5 599 c 128,-1,56
 591 616 591 616 573 619 c 0,57,58
 540 625 540 625 540 639 c 0,59,60
 540 650 540 650 569 650 c 2,61,-1
 649 650 l 2,62,63
 662 650 662 650 686 651.5 c 128,-1,64
 710 653 710 653 741 653 c 0,65,66
 770 653 770 653 770 642 c 0,67,68
 770 628 770 628 737 622 c 0,69,70
 700 615 700 615 687.5 604 c 128,-1,71
 675 593 675 593 674 568 c 0,0,1
EndSplineSet
Validated: 33
EndChar

StartChar: R
Encoding: 82 82 29
Width: 694
VWidth: 0
Flags: W
HStem: -21 46<608.627 718.254> -5 29<29.6924 105.631 245.775 314.308> 627 30<41.0088 101.507 231.614 351.609>
VStem: 135 80<46.2739 302.04 331.403 603.448> 417 90<411.692 573.392>
LayerCount: 2
Fore
SplineSet
215 366 m 0,0,1
 214 343 214 343 225 336.5 c 128,-1,2
 236 330 236 330 263 329 c 0,3,4
 328 328 328 328 372 368 c 1,5,6
 417 411 417 411 417 489 c 0,7,8
 417 514 417 514 411.5 535.5 c 128,-1,9
 406 557 406 557 392.5 579 c 128,-1,10
 379 601 379 601 351 614 c 128,-1,11
 323 627 323 627 283 627 c 0,12,13
 245 627 245 627 232.5 613 c 128,-1,14
 220 599 220 599 219 573 c 0,15,16
 217 525 217 525 215 366 c 0,0,1
642 -21 m 0,17,18
 548 -21 548 -21 504 33 c 0,19,20
 499 39 499 39 477 65.5 c 128,-1,21
 455 92 455 92 447.5 101.5 c 128,-1,22
 440 111 440 111 422.5 135 c 128,-1,23
 405 159 405 159 388.5 184 c 128,-1,24
 372 209 372 209 352 241 c 0,25,26
 337 266 337 266 309 280 c 0,27,28
 273 297 273 297 230 302 c 0,29,30
 222 303 222 303 218.5 297.5 c 128,-1,31
 215 292 215 292 215 282 c 2,32,-1
 215 110 l 2,33,34
 215 36 215 36 282 24 c 0,35,36
 315 18 315 18 315 6 c 0,37,38
 315 -5 315 -5 286 -5 c 128,-1,39
 257 -5 257 -5 231 -1.5 c 128,-1,40
 205 2 205 2 188 2 c 0,41,42
 163 2 163 2 124 -1.5 c 128,-1,43
 85 -5 85 -5 58 -5 c 0,44,45
 29 -5 29 -5 29 6 c 0,46,47
 29 18 29 18 62 24 c 0,48,49
 101 31 101 31 118 47.5 c 128,-1,50
 135 64 135 64 135 100 c 2,51,-1
 135 522 l 2,52,53
 135 570 135 570 122.5 593 c 128,-1,54
 110 616 110 616 74 622 c 0,55,56
 41 628 41 628 41 642 c 0,57,58
 41 653 41 653 70 653 c 128,-1,59
 99 653 99 653 124 652.5 c 128,-1,60
 149 652 149 652 168 652 c 0,61,62
 184 652 184 652 218 654.5 c 128,-1,63
 252 657 252 657 283 657 c 0,64,65
 392 657 392 657 449.5 614 c 128,-1,66
 507 571 507 571 507 489 c 0,67,68
 507 459 507 459 492 426 c 128,-1,69
 477 393 477 393 463 379 c 0,70,71
 415 334 415 334 390 321 c 0,72,73
 385 319 385 319 390 312 c 0,74,75
 393 307 393 307 407.5 285 c 128,-1,76
 422 263 422 263 426 257 c 128,-1,77
 430 251 430 251 443 232 c 128,-1,78
 456 213 456 213 461 206 c 128,-1,79
 466 199 466 199 478.5 182 c 128,-1,80
 491 165 491 165 498.5 156.5 c 128,-1,81
 506 148 506 148 518.5 133 c 128,-1,82
 531 118 531 118 541.5 107.5 c 128,-1,83
 552 97 552 97 565.5 84 c 128,-1,84
 579 71 579 71 593 58 c 0,85,86
 618 36 618 36 642 30.5 c 128,-1,87
 666 25 666 25 708 25 c 0,88,89
 723 25 723 25 723 14 c 0,90,91
 723 -5 723 -5 696.5 -13 c 128,-1,92
 670 -21 670 -21 642 -21 c 0,17,18
EndSplineSet
Validated: 33
EndChar

StartChar: B
Encoding: 66 66 30
Width: 568
VWidth: 0
Flags: W
HStem: -5 29<9.69245 87.1038> -4 41<217.525 351.026> 343 29<209.429 326.255> 627 30<20.0088 87.7124 209.868 333.047>
VStem: 120 80<56.5698 331.718 372.686 605.889> 400 86<428.462 576.092> 433 94<115.164 267.324>
LayerCount: 2
Fore
SplineSet
198 408 m 0,0,1
 198 395 198 395 200 388 c 128,-1,2
 202 381 202 381 207.5 377.5 c 128,-1,3
 213 374 213 374 215.5 373.5 c 128,-1,4
 218 373 218 373 228 372 c 0,5,6
 250 370 250 370 286 375 c 128,-1,7
 322 380 322 380 355 400 c 0,8,9
 371 409 371 409 385.5 433 c 128,-1,10
 400 457 400 457 400 495 c 0,11,12
 400 549 400 549 370 588 c 128,-1,13
 340 627 340 627 264 627 c 0,14,15
 226 627 226 627 214.5 616.5 c 128,-1,16
 203 606 203 606 202 581 c 0,17,18
 196 449 196 449 198 408 c 0,0,1
120 549 m 2,19,20
 120 584 120 584 105.5 599.5 c 128,-1,21
 91 615 91 615 53 622 c 0,22,23
 20 628 20 628 20 642 c 0,24,25
 20 653 20 653 49 653 c 128,-1,26
 78 653 78 653 106 652.5 c 128,-1,27
 134 652 134 652 153 652 c 0,28,29
 170 652 170 652 201 654.5 c 128,-1,30
 232 657 232 657 264 657 c 0,31,32
 377 657 377 657 431.5 622.5 c 128,-1,33
 486 588 486 588 486 508 c 0,34,35
 486 446 486 446 452 412 c 1,36,37
 422 384 422 384 385 369 c 0,38,39
 381 367 381 367 381 364 c 128,-1,40
 381 361 381 361 385 359 c 0,41,42
 415 350 415 350 434 341 c 128,-1,43
 453 332 453 332 477.5 313.5 c 128,-1,44
 502 295 502 295 514.5 265 c 128,-1,45
 527 235 527 235 527 194 c 0,46,47
 527 155 527 155 517.5 126 c 128,-1,48
 508 97 508 97 489.5 78 c 128,-1,49
 471 59 471 59 458 50 c 128,-1,50
 445 41 445 41 423 30 c 0,51,52
 355 -4 355 -4 263 -4 c 0,53,54
 258 -4 258 -4 220 -1.5 c 128,-1,55
 182 1 182 1 156 0 c 0,56,57
 137 0 137 0 102.5 -2.5 c 128,-1,58
 68 -5 68 -5 38 -5 c 0,59,60
 9 -5 9 -5 9 6 c 0,61,62
 9 18 9 18 42 24 c 0,63,64
 82 31 82 31 101 48 c 128,-1,65
 120 65 120 65 120 99 c 2,66,-1
 120 549 l 2,19,20
433 189 m 0,67,68
 433 277 433 277 359 318 c 0,69,70
 314 343 314 343 255 343 c 0,71,72
 225 343 225 343 209 332 c 0,73,74
 200 326 200 326 198 307 c 1,75,76
 195 245 195 245 200 108 c 0,77,78
 202 71 202 71 217 56 c 0,79,80
 236 37 236 37 277 37 c 0,81,82
 337 37 337 37 385 81.5 c 128,-1,83
 433 126 433 126 433 189 c 0,67,68
EndSplineSet
Validated: 33
EndChar

StartChar: A
Encoding: 65 65 31
Width: 684
VWidth: 0
Flags: W
HStem: -5 36<-0.573315 70.1888 194.652 266.525 401.311 473.822 612.158 694.308> 244 43<242.774 427.766>
LayerCount: 2
Fore
SplineSet
178 102 m 0,0,1
 170 76 170 76 187 56.5 c 128,-1,2
 204 37 204 37 234 30 c 1,3,4
 267 21 267 21 267 10 c 128,-1,5
 267 -1 267 -1 238 -1 c 0,6,7
 233 -1 233 -1 194.5 0 c 128,-1,8
 156 1 156 1 132 1 c 0,9,10
 111 1 111 1 76.5 -2 c 128,-1,11
 42 -5 42 -5 27 -5 c 0,12,13
 -2 -5 -2 -5 -2 8 c 0,14,15
 -2 20 -2 20 31 31 c 1,16,17
 91 49 91 49 117 108 c 0,18,19
 213 328 213 328 304 578 c 0,20,21
 305 581 305 581 307 586.5 c 128,-1,22
 309 592 309 592 311 597.5 c 128,-1,23
 313 603 313 603 314 608 c 0,24,25
 315 612 315 612 315.5 619 c 128,-1,26
 316 626 316 626 316.5 631 c 128,-1,27
 317 636 317 636 318 636 c 0,28,29
 345 645 345 645 354 651 c 0,30,31
 360 655 360 655 364 661.5 c 128,-1,32
 368 668 368 668 370.5 672 c 128,-1,33
 373 676 373 676 375 676 c 0,34,35
 380 676 380 676 385 662 c 0,36,37
 459 429 459 429 563 128 c 0,38,39
 582 73 582 73 605 53.5 c 128,-1,40
 628 34 628 34 664 28 c 0,41,42
 697 22 697 22 697 5 c 0,43,44
 697 -5 697 -5 668 -5 c 0,45,46
 657 -5 657 -5 619.5 -2 c 128,-1,47
 582 1 582 1 559 1 c 0,48,49
 529 2 529 2 482 1 c 128,-1,50
 435 0 435 0 430 0 c 0,51,52
 401 0 401 0 401 11 c 128,-1,53
 401 22 401 22 434 31 c 0,54,55
 472 41 472 41 480 56 c 128,-1,56
 488 71 488 71 481 105 c 0,57,58
 464 186 464 186 452 233 c 0,59,60
 449 244 449 244 424 244 c 2,61,-1
 233 244 l 2,62,63
 221 244 221 244 216 226 c 128,-1,64
 211 208 211 208 203 184 c 128,-1,65
 195 160 195 160 189.5 140.5 c 128,-1,66
 184 121 184 121 178 102 c 0,0,1
333 542 m 0,67,68
 322 513 322 513 290 428.5 c 128,-1,69
 258 344 258 344 243 302 c 0,70,71
 239 292 239 292 243.5 289.5 c 128,-1,72
 248 287 248 287 262 287 c 2,73,-1
 417 287 l 2,74,75
 428 287 428 287 430 289.5 c 128,-1,76
 432 292 432 292 429 302 c 0,77,78
 382 443 382 443 350 541 c 0,79,80
 346 554 346 554 343.5 557 c 128,-1,81
 341 560 341 560 339 557 c 128,-1,82
 337 554 337 554 333 542 c 0,67,68
EndSplineSet
Validated: 33
EndChar

StartChar: C
Encoding: 67 67 32
Width: 640
VWidth: 0
Flags: W
HStem: -15 31<325.991 481.156> 632 31<314.619 483.324>
VStem: 46 100<217.908 434.419> 576 37<473.764 560.679>
LayerCount: 2
Fore
SplineSet
586 137 m 0,0,1
 589 142 589 142 593.5 145.5 c 128,-1,2
 598 149 598 149 604 152 c 128,-1,3
 610 155 610 155 611 156 c 0,4,5
 615.869363395 159.478116711 615.869363395 159.478116711 618.375 149 c 0,6,7
 620.692488263 139.308685446 620.692488263 139.308685446 619 130 c 0,8,9
 608 59 608 59 586 26 c 0,10,11
 584 22 584 22 577.5 19.5 c 128,-1,12
 571 17 571 17 558.5 13 c 128,-1,13
 546 9 546 9 537 5 c 0,14,15
 494 -15 494 -15 369 -15 c 0,16,17
 234 -15 234 -15 140 85 c 128,-1,18
 46 185 46 185 46 323 c 0,19,20
 46 466 46 466 154 564.5 c 128,-1,21
 262 663 262 663 410 663 c 0,22,23
 480 663 480 663 516 651 c 128,-1,24
 552 639 552 639 592 633 c 0,25,26
 603 631 603 631 605 603 c 1,27,28
 612 549 612 549 613 494 c 0,29,30
 614 486 614 486 611.5 478 c 128,-1,31
 609 470 609 470 602 471 c 0,32,33
 582 473 582 473 576 508 c 1,34,35
 570 554 570 554 541 581 c 1,36,37
 490 632 490 632 394 632 c 0,38,39
 287 632 287 632 216.5 546.5 c 128,-1,40
 146 461 146 461 146 347 c 0,41,42
 146 264 146 264 176 189 c 128,-1,43
 206 114 206 114 265.5 65 c 128,-1,44
 325 16 325 16 400 16 c 0,45,46
 524 16 524 16 586 137 c 0,0,1
EndSplineSet
Validated: 1
EndChar

StartChar: I
Encoding: 73 73 33
Width: 383
VWidth: 0
Flags: W
HStem: -5 29<40.6924 118.104 264.602 342.308> 622 31<52.0745 128.441 256.205 333.926>
VStem: 151 80<46.75 604.158>
LayerCount: 2
Fore
SplineSet
151 550 m 2,0,1
 151 585 151 585 136.5 600 c 128,-1,2
 122 615 122 615 84 622 c 0,3,4
 51 628 51 628 51 642 c 0,5,6
 51 653 51 653 80 653 c 0,7,8
 108 653 108 653 141.5 651.5 c 128,-1,9
 175 650 175 650 197 650 c 0,10,11
 217 650 217 650 247.5 651.5 c 128,-1,12
 278 653 278 653 306 653 c 0,13,14
 335 653 335 653 335 642 c 0,15,16
 335 628 335 628 302 622 c 0,17,18
 263 615 263 615 247 599.5 c 128,-1,19
 231 584 231 584 231 550 c 2,20,-1
 231 98 l 2,21,22
 231 64 231 64 250.5 47.5 c 128,-1,23
 270 31 270 31 310 24 c 0,24,25
 343 18 343 18 343 6 c 0,26,27
 343 -5 343 -5 314 -5 c 0,28,29
 286 -5 286 -5 252.5 -2.5 c 128,-1,30
 219 0 219 0 197 0 c 0,31,32
 172 0 172 0 134 -2.5 c 128,-1,33
 96 -5 96 -5 69 -5 c 0,34,35
 40 -5 40 -5 40 6 c 0,36,37
 40 18 40 18 73 24 c 0,38,39
 113 31 113 31 132 47.5 c 128,-1,40
 151 64 151 64 151 98 c 2,41,-1
 151 550 l 2,0,1
EndSplineSet
Validated: 1
EndChar

StartChar: T
Encoding: 84 84 34
Width: 670
VWidth: 0
Flags: W
HStem: -5 29<185.692 261.52 411.207 487.308> 604 38<106.512 292.507 378.966 603.369>
VStem: 296 80<48.375 600.451> 619 35<517.175 586.607>
LayerCount: 2
Fore
SplineSet
376 102 m 2,0,1
 376 38 376 38 455 24 c 0,2,3
 488 18 488 18 488 6 c 0,4,5
 488 -5 488 -5 459 -5 c 0,6,7
 431 -5 431 -5 397.5 -2.5 c 128,-1,8
 364 0 364 0 342 0 c 0,9,10
 318 0 318 0 280 -2.5 c 128,-1,11
 242 -5 242 -5 214 -5 c 0,12,13
 185 -5 185 -5 185 6 c 0,14,15
 185 18 185 18 218 24 c 0,16,17
 257 31 257 31 276.5 49 c 128,-1,18
 296 67 296 67 296 102 c 2,19,-1
 296 557 l 2,20,21
 296 597 296 597 278 600 c 0,22,23
 257 604 257 604 157 604 c 0,24,25
 131 604 131 604 108 594 c 128,-1,26
 85 584 85 584 75 565 c 0,27,28
 69 553 69 553 56.5 540 c 128,-1,29
 44 527 44 527 34 527 c 0,30,31
 27 527 27 527 27 538.5 c 128,-1,32
 27 550 27 550 32 560 c 0,33,34
 54 606 54 606 63 671 c 0,35,36
 66 694 66 694 80 694 c 0,37,38
 88 694 88 694 105 662 c 0,39,40
 116 642 116 642 175 642 c 2,41,-1
 556 642 l 2,42,43
 594 642 594 642 614 656 c 0,44,45
 621 661 621 661 631.5 671 c 128,-1,46
 642 681 642 681 649.5 686.5 c 128,-1,47
 657 692 657 692 664 692 c 0,48,49
 668 692 668 692 670 679.5 c 128,-1,50
 672 667 672 667 670 660 c 0,51,52
 652 585 652 585 654 552 c 0,53,54
 655 542 655 542 650 529.5 c 128,-1,55
 645 517 645 517 638 517 c 0,56,57
 627 517 627 517 619 558 c 0,58,59
 610 604 610 604 527 604 c 0,60,61
 428 604 428 604 392 600 c 0,62,63
 376 598 376 598 376 557 c 2,64,-1
 376 102 l 2,0,1
EndSplineSet
Validated: 33
EndChar

StartChar: E
Encoding: 69 69 35
Width: 541
VWidth: 0
Flags: W
HStem: -5 40<234 461.358> -5 29<29.6924 105.925> 388 20G<406.5 411.5> 618 35<38.1729 120.247 225.165 439.859>
VStem: 136 80<51.352 315.509 352 605.889> 390 32<253.771 300.562> 473 25<532.08 574.023>
LayerCount: 2
Fore
SplineSet
216 374 m 0,0,1
 216 352 216 352 226 352 c 2,2,3
 330 352 l 2,4,5
 358 352 358 352 374 367 c 0,6,7
 385 377 385 377 391 391 c 0,8,9
 393 395 393 395 399.5 401.5 c 128,-1,10
 406 408 406 408 409 408 c 0,11,12
 413 408 413 408 418 403 c 128,-1,13
 423 398 423 398 422 392 c 0,14,15
 418 345 418 345 422 269 c 0,16,17
 422 252 422 252 413 252 c 0,18,19
 397 252 397 252 390 275 c 0,20,21
 379 310 379 310 343 314 c 1,22,23
 280 323 280 323 240 316 c 0,24,25
 215 311 215 311 216 291 c 1,26,27
 216 266 216 266 219 113 c 0,28,29
 220 74 220 74 234.5 54.5 c 128,-1,30
 249 35 249 35 282 35 c 2,31,-1
 386 35 l 2,32,33
 394 35 394 35 424 41 c 128,-1,34
 454 47 454 47 462 53 c 0,35,36
 481 68 481 68 504 116 c 0,37,38
 509 127 509 127 518 126 c 0,39,40
 524 126 524 126 528 122.5 c 128,-1,41
 532 119 532 119 531 114 c 0,42,43
 525 56 525 56 514 12 c 0,44,45
 510 -5 510 -5 500 -5 c 0,46,47
 433 -5 433 -5 326.5 -2 c 128,-1,48
 220 1 220 1 173 1 c 0,49,50
 152 1 152 1 119 -2 c 128,-1,51
 86 -5 86 -5 58 -5 c 0,52,53
 29 -5 29 -5 29 6 c 0,54,55
 29 18 29 18 62 24 c 0,56,57
 101 31 101 31 118.5 47.5 c 128,-1,58
 136 64 136 64 136 99 c 2,59,-1
 136 549 l 2,60,61
 136 584 136 584 121.5 599.5 c 128,-1,62
 107 615 107 615 69 622 c 0,63,64
 36 628 36 628 36 642 c 0,65,66
 36 653 36 653 65 653 c 0,67,68
 88 653 88 653 168 651 c 0,69,70
 237 649 237 649 350 651 c 128,-1,71
 463 653 463 653 468 653 c 0,72,73
 485 653 485 653 486 644 c 0,74,75
 497 586 497 586 498 541 c 0,76,77
 498 532 498 532 484 532 c 0,78,79
 476 532 476 532 473 542 c 0,80,81
 461 578 461 578 450 591 c 0,82,83
 426 618 426 618 383 618 c 2,84,-1
 252 618 l 2,85,86
 243 618 243 618 232 608.5 c 128,-1,87
 221 599 221 599 220 588 c 0,88,89
 216 556 216 556 216 374 c 0,0,1
EndSplineSet
Validated: 33
EndChar

StartChar: L
Encoding: 76 76 36
Width: 576
VWidth: 0
Flags: W
HStem: -5 40<222.001 482.636> -5 29<29.3563 96.228> 622 31<39.0745 118.488 240.822 332.926>
VStem: 132 80<47.25 603.136> 543 33<101.059 159.391>
LayerCount: 2
Fore
SplineSet
212 567 m 6,0,1
 212 96 l 2,2,3
 212 63 212 63 227 49 c 128,-1,4
 242 35 242 35 289 35 c 2,5,-1
 435 35 l 2,6,7
 441 35 441 35 460 43 c 128,-1,8
 479 51 479 51 491 61 c 0,9,10
 523 89 523 89 543 132 c 1,11,12
 554 162 554 162 565 162 c 0,13,14
 572 162 572 162 575 153.5 c 128,-1,15
 578 145 578 145 576 139 c 0,16,17
 553 53 553 53 549 12 c 0,18,19
 547 -5 547 -5 535 -5 c 0,20,21
 464 -5 464 -5 351 -2.5 c 128,-1,22
 238 0 238 0 192 0 c 1,23,-1
 57 -5 l 1,24,25
 29 -5 29 -5 29 7 c 0,26,27
 29 18 29 18 51 24 c 1,28,29
 92 32 92 32 112 48 c 128,-1,30
 132 64 132 64 132 96 c 2,31,-1
 132 560 l 2,32,33
 132 595 132 595 121 605 c 128,-1,34
 110 615 110 615 71 622 c 0,35,36
 38 628 38 628 38 642 c 0,37,38
 38 653 38 653 67 653 c 0,39,40
 95 653 95 653 126.5 651.5 c 128,-1,41
 158 650 158 650 179 650 c 0,42,43
 203 650 203 650 240 651.5 c 128,-1,44
 277 653 277 653 305 653 c 0,45,46
 334 653 334 653 334 642 c 0,47,48
 334 628 334 628 301 622 c 0,49,50
 277 618 277 618 265 615 c 128,-1,51
 253 612 253 612 238.5 606 c 128,-1,52
 224 600 224 600 218 590.5 c 128,-1,53
 212 581 212 581 212 567 c 6,0,1
EndSplineSet
Validated: 1
Substitution2: "loclCAT subtable" L.CAT
EndChar

StartChar: V
Encoding: 86 86 37
Width: 672
VWidth: 0
Flags: W
HStem: 620 33<1.64938 60.1229 219.313 280.926 408.06 464.407 606.155 676.313>
LayerCount: 2
Fore
SplineSet
541 520 m 10,0,-1
 351 60 l 2,1,2
 348 53 348 53 343.5 41 c 128,-1,3
 339 29 339 29 335.5 20.5 c 128,-1,4
 332 12 332 12 328 3 c 128,-1,5
 324 -6 324 -6 321 -10.5 c 128,-1,6
 318 -15 318 -15 316 -15 c 0,7,8
 313 -15 313 -15 286 56 c 2,9,-1
 112 522 l 2,10,11
 81 606 81 606 33 620 c 0,12,13
 0 630 0 630 0 642 c 0,14,15
 0 653 0 653 29 653 c 0,16,17
 43 653 43 653 82.5 651.5 c 128,-1,18
 122 650 122 650 146 650 c 128,-1,19
 170 650 170 650 208 651 c 128,-1,20
 246 652 246 652 253 652 c 0,21,22
 282 652 282 652 282 641 c 128,-1,23
 282 630 282 630 249 621 c 1,24,25
 219 614 219 614 205 582 c 128,-1,26
 191 550 191 550 206 504 c 1,27,-1
 322 197 l 2,28,29
 330 177 330 177 335 171.5 c 128,-1,30
 340 166 340 166 345 172 c 128,-1,31
 350 178 350 178 358 197 c 2,32,-1
 489 521 l 2,33,34
 500 549 500 549 481.5 581 c 128,-1,35
 463 613 463 613 440 620 c 0,36,37
 407 629 407 629 407 640 c 128,-1,38
 407 651 407 651 436 651 c 0,39,40
 446 651 446 651 486.5 650.5 c 128,-1,41
 527 650 527 650 553 650 c 0,42,43
 573 650 573 650 605.5 651.5 c 128,-1,44
 638 653 638 653 649 653 c 0,45,46
 678 653 678 653 678 642 c 0,47,48
 678 629 678 629 645 622 c 0,49,50
 611 614 611 614 582.5 583 c 128,-1,51
 554 552 554 552 541 520 c 10,0,-1
EndSplineSet
Validated: 33
EndChar

StartChar: W
Encoding: 87 87 38
Width: 916
VWidth: 0
Flags: W
HStem: -12 21G<619.5 625> 620 33<1.64938 66.4231 189.009 238.926 266.649 333.392 613.369 689.313 711.06 766.28 860.08 928.313>
LayerCount: 2
Fore
SplineSet
455 591 m 0,0,1
 471 544 471 544 500 478 c 0,2,3
 503 471 503 471 505 468 c 128,-1,4
 507 465 507 465 509 465 c 128,-1,5
 511 465 511 465 513 468 c 128,-1,6
 515 471 515 471 518 478 c 0,7,8
 538 523 538 523 558 591 c 0,9,10
 561 602 561 602 556 609.5 c 128,-1,11
 551 617 551 617 543 620.5 c 128,-1,12
 535 624 535 624 528.5 629.5 c 128,-1,13
 522 635 522 635 522 641 c 0,14,15
 522 652 522 652 551 652 c 0,16,17
 567 652 567 652 581.5 651 c 128,-1,18
 596 650 596 650 606 650 c 128,-1,19
 616 650 616 650 633 651.5 c 128,-1,20
 650 653 650 653 662 653 c 0,21,22
 691 653 691 653 691 642 c 0,23,24
 691 629 691 629 658 622 c 0,25,26
 628 615 628 615 616 606 c 128,-1,27
 604 597 604 597 590 574 c 0,28,29
 570 539 570 539 537 451 c 0,30,31
 527 424 527 424 531 413 c 0,32,33
 620 182 620 182 634 148 c 0,34,35
 638.090909091 138.454545455 638.090909091 138.454545455 645 154 c 0,36,37
 683 255 683 255 767 541 c 0,38,39
 787 608 787 608 743 620 c 0,40,41
 710 629 710 629 710 640 c 128,-1,42
 710 651 710 651 739 651 c 0,43,44
 751 651 751 651 778 650.5 c 128,-1,45
 805 650 805 650 823 650 c 0,46,47
 838 650 838 650 864 651.5 c 128,-1,48
 890 653 890 653 901 653 c 0,49,50
 930 653 930 653 930 642 c 0,51,52
 930 629 930 629 897 622 c 0,53,54
 844 610 844 610 815 534 c 1,55,-1
 654 58 l 1,56,57
 629 -12 629 -12 622 -12 c 0,58,59
 613 -12 613 -12 605 7 c 0,60,61
 574 77 574 77 533 184 c 128,-1,62
 492 291 492 291 482 316 c 0,63,64
 477.769237927 325.519214665 477.769237927 325.519214665 473.459804658 316 c 0,65,66
 472.448509996 313.76612599 472.448509996 313.76612599 471 310 c 0,67,68
 415 179 415 179 357 15 c 0,69,70
 346 -16 346 -16 335 -16 c 0,71,72
 332 -16 332 -16 321 12 c 2,73,-1
 105 554 l 1,74,75
 80 606 80 606 33 620 c 0,76,77
 0 630 0 630 0 642 c 0,78,79
 0 653 0 653 29 653 c 0,80,81
 44 653 44 653 70.5 651.5 c 128,-1,82
 97 650 97 650 113 650 c 0,83,84
 135 650 135 650 169.5 651 c 128,-1,85
 204 652 204 652 211 652 c 0,86,87
 240 652 240 652 240 641 c 128,-1,88
 240 630 240 630 207 621 c 0,89,90
 191 617 191 617 188 598 c 128,-1,91
 185 579 185 579 190 562 c 2,92,-1
 195 545 l 1,93,94
 272 348 272 348 359 152 c 0,95,96
 368 133 368 133 374 151 c 1,97,98
 390 190 390 190 413.5 248.5 c 128,-1,99
 437 307 437 307 452 344 c 1,100,101
 458 362 458 362 457.5 369.5 c 128,-1,102
 457 377 457 377 450 396 c 0,103,104
 399 525 399 525 393 538 c 0,105,106
 381 568 381 568 354 590 c 128,-1,107
 327 612 327 612 298 620 c 0,108,109
 265 630 265 630 265 642 c 0,110,111
 265 653 265 653 294 653 c 0,112,113
 309 653 309 653 337.5 651.5 c 128,-1,114
 366 650 366 650 384 650 c 0,115,116
 401 650 401 650 428.5 651 c 128,-1,117
 456 652 456 652 465 652 c 0,118,119
 494 652 494 652 494 641 c 0,120,121
 494 634 494 634 482 627.5 c 128,-1,122
 470 621 470 621 460 612.5 c 128,-1,123
 450 604 450 604 455 591 c 0,0,1
EndSplineSet
Validated: 33
EndChar

StartChar: period
Encoding: 46 46 39
Width: 230
VWidth: 0
Flags: W
HStem: -14 110<71.7433 158.257>
VStem: 60 110<-2.25671 84.2567>
LayerCount: 2
Fore
SplineSet
115 96 m 156,-1,1
 138 96 138 96 154 80 c 128,-1,2
 170 64 170 64 170 41 c 128,-1,3
 170 18 170 18 154 2 c 128,-1,4
 138 -14 138 -14 115 -14 c 128,-1,5
 92 -14 92 -14 76 2 c 128,-1,6
 60 18 60 18 60 41 c 128,-1,7
 60 64 60 64 76 80 c 128,-1,0
 92 96 92 96 115 96 c 156,-1,1
EndSplineSet
Validated: 1
EndChar

StartChar: G
Encoding: 71 71 40
Width: 729
VWidth: 0
Flags: W
HStem: -14 37<311.622 497.206> 256 34<437.011 535.328 642.232 692.897> 625 38<306.807 509.098>
VStem: 45 99<219.068 441.462> 558 86<61.7642 238.501> 558 67<72.2342 238.378> 594 38<492.565 554.786>
LayerCount: 2
Fore
SplineSet
621 624 m 0,0,1
 632 547 632 547 632 512 c 0,2,3
 632 504 632 504 627.5 498 c 128,-1,4
 623 492 623 492 617 492 c 0,5,6
 603 492 603 492 594 519 c 0,7,8
 583 549 583 549 563 572 c 1,9,10
 549 590 549 590 507.5 607.5 c 128,-1,11
 466 625 466 625 404 625 c 0,12,13
 293 625 293 625 218.5 545 c 128,-1,14
 144 465 144 465 144 346 c 0,15,16
 144 217 144 217 215 119.5 c 128,-1,17
 286 22 286 22 401 23 c 0,18,19
 480 24 480 24 534 60 c 0,20,21
 558 76 558 76 558 137 c 0,22,23
 558 145 558 145 559 168.5 c 128,-1,24
 560 192 560 192 559.5 206 c 128,-1,25
 559 220 559 220 555 225 c 0,26,27
 544 240 544 240 511 248 c 128,-1,28
 478 256 478 256 457 256 c 0,29,30
 452 256 452 256 444.5 261 c 128,-1,31
 437 266 437 266 437 273 c 128,-1,32
 437 280 437 280 444.5 285 c 128,-1,33
 452 290 452 290 457 290 c 0,34,35
 481 290 481 290 518 288 c 128,-1,36
 555 286 555 286 583 286 c 0,37,38
 600 286 600 286 627 288 c 128,-1,39
 654 290 654 290 672 290 c 0,40,41
 693 290 693 290 693 274 c 0,42,43
 693 268 693 268 685 262.5 c 128,-1,44
 677 257 677 257 672 256 c 0,45,46
 651 250 651 250 642 239 c 128,-1,47
 633 228 633 228 630 207 c 0,48,49
 624 171 624 171 625 105 c 0,50,51
 625 99 625 99 631 89 c 0,52,53
 633 86 633 86 638.5 80.5 c 128,-1,54
 644 75 644 75 644 72 c 0,55,56
 644 61 644 61 630 54 c 0,57,58
 570 23 570 23 523 9 c 0,59,60
 445 -14 445 -14 399 -14 c 0,61,62
 254 -14 254 -14 149.5 86 c 128,-1,63
 45 186 45 186 45 329 c 0,64,65
 45 471 45 471 154.5 567 c 128,-1,66
 264 663 264 663 413 663 c 0,67,68
 455 663 455 663 537.5 648.5 c 128,-1,69
 620 634 620 634 621 624 c 0,0,1
EndSplineSet
Validated: 33
EndChar

StartChar: F
Encoding: 70 70 41
Width: 503
VWidth: 0
Flags: W
HStem: -5 29<21.6924 95.863 231.561 302.308> 316 36<201.741 370.474> 391 20G<403.5 408.5> 611 40<204.902 421.691> 622 31<28.0745 96.3037>
VStem: 121 80<46.2759 315.779 352.008 603.448> 387 32<256.771 303.562> 452 24<523.376 566.019>
LayerCount: 2
Fore
SplineSet
235 611 m 2,0,1
 220 611 220 611 212.5 603 c 128,-1,2
 205 595 205 595 203.5 586 c 128,-1,3
 202 577 202 577 201 561 c 0,4,5
 197 467 197 467 201 374 c 0,6,7
 201 352 201 352 211 352 c 0,8,9
 234 352 234 352 275.5 353.5 c 128,-1,10
 317 355 317 355 327 355 c 0,11,12
 355 355 355 355 371 370 c 0,13,14
 382 380 382 380 388 394 c 0,15,16
 390 398 390 398 396 404.5 c 128,-1,17
 402 411 402 411 406 411 c 128,-1,18
 410 411 410 411 415 406 c 128,-1,19
 420 401 420 401 419 395 c 0,20,21
 415 348 415 348 419 272 c 0,22,23
 419 255 419 255 410 255 c 0,24,25
 394 255 394 255 387 278 c 0,26,27
 375 316 375 316 340 317 c 0,28,29
 271 319 271 319 225 316 c 0,30,31
 201 315 201 315 201 291 c 0,32,33
 201 167 201 167 204 101 c 0,34,35
 206 67 206 67 220 48.5 c 128,-1,36
 234 30 234 30 270 24 c 0,37,38
 303 18 303 18 303 6 c 0,39,40
 303 -5 303 -5 274 -5 c 128,-1,41
 245 -5 245 -5 219 -1.5 c 128,-1,42
 193 2 193 2 176 2 c 0,43,44
 152 2 152 2 115 -1.5 c 128,-1,45
 78 -5 78 -5 50 -5 c 0,46,47
 21 -5 21 -5 21 6 c 0,48,49
 21 18 21 18 54 24 c 0,50,51
 92 31 92 31 106.5 47.5 c 128,-1,52
 121 64 121 64 121 100 c 2,53,-1
 121 522 l 2,54,55
 121 570 121 570 108.5 593 c 128,-1,56
 96 616 96 616 60 622 c 0,57,58
 27 628 27 628 27 642 c 0,59,60
 27 653 27 653 56 653 c 0,61,62
 75 653 75 653 155 651 c 0,63,64
 223 649 223 649 335.5 651 c 128,-1,65
 448 653 448 653 453 653 c 0,66,67
 470 653 470 653 471 644 c 0,68,69
 474 630 474 630 476 544 c 0,70,71
 476 523 476 523 467 523 c 0,72,73
 455 523 455 523 452 535 c 0,74,75
 440 571 440 571 429 584 c 0,76,77
 405 611 405 611 362 611 c 2,78,-1
 235 611 l 2,0,1
EndSplineSet
Validated: 33
EndChar

StartChar: J
Encoding: 74 74 42
Width: 283
VWidth: 0
Flags: W
HStem: -200 42<27.0623 105.45> 622 31<35.0745 111.382 229.223 301.926>
VStem: 133 80<-78.7817 606.878>
LayerCount: 2
Fore
SplineSet
133 0 m 2,0,1
 133 551 l 1,2,3
 134 585 134 585 119.5 600 c 128,-1,4
 105 615 105 615 67 622 c 0,5,6
 34 628 34 628 34 642 c 0,7,8
 34 653 34 653 63 653 c 0,9,10
 91 653 91 653 124.5 651.5 c 128,-1,11
 158 650 158 650 180 650 c 0,12,13
 196 650 196 650 220.5 651.5 c 128,-1,14
 245 653 245 653 274 653 c 128,-1,15
 303 653 303 653 303 642 c 0,16,17
 303 628 303 628 270 622 c 0,18,19
 234 616 234 616 224 601.5 c 128,-1,20
 214 587 214 587 213 551 c 1,21,-1
 213 142 l 2,22,23
 213 67 213 67 209.5 18 c 128,-1,24
 206 -31 206 -31 196 -61.5 c 128,-1,25
 186 -92 186 -92 180.5 -102 c 128,-1,26
 175 -112 175 -112 160 -134 c 0,27,28
 115 -198 115 -198 46 -200 c 0,29,30
 -4 -201 -4 -201 -35 -188.5 c 128,-1,31
 -66 -176 -66 -176 -66 -158 c 0,32,33
 -66 -138 -66 -138 -54.5 -120.5 c 128,-1,34
 -43 -103 -43 -103 -30 -103 c 0,35,36
 3 -103 3 -103 20 -129 c 0,37,38
 40 -159 40 -159 70 -158 c 0,39,40
 133 -155 133 -155 133 0 c 2,0,1
EndSplineSet
Validated: 33
EndChar

StartChar: D
Encoding: 68 68 43
Width: 754
VWidth: 0
Flags: W
HStem: -7 37<30.6866 115.216 209.306 455.474> 628 31<29.2164 94.5968 230.382 433.726>
VStem: 129 81<62.1482 605.889> 609 95<215.031 461.507>
LayerCount: 2
Fore
SplineSet
166 0 m 24,0,1
 146 0 146 0 116 -2.5 c 128,-1,2
 86 -5 86 -5 58 -5 c 0,3,4
 29 -5 29 -5 29 6 c 0,5,6
 29 18 29 18 62 24 c 0,7,8
 100 31 100 31 114.5 47 c 128,-1,9
 129 63 129 63 129 99 c 2,10,-1
 129 549 l 2,11,12
 129 584 129 584 114.5 599.5 c 128,-1,13
 100 615 100 615 62 622 c 0,14,15
 29 628 29 628 29 642 c 0,16,17
 29 653 29 653 58 653 c 128,-1,18
 87 653 87 653 115 652 c 128,-1,19
 143 651 143 651 162 651 c 0,20,21
 183 650 183 650 256 654.5 c 128,-1,22
 329 659 329 659 340 659 c 0,23,24
 534 659 534 659 619 574.5 c 128,-1,25
 704 490 704 490 704 335 c 0,26,27
 704 194 704 194 608.5 93.5 c 128,-1,28
 513 -7 513 -7 371 -7 c 0,29,30
 367 -7 367 -7 290 -3.5 c 128,-1,31
 213 0 213 0 166 0 c 24,0,1
609 346 m 16,32,33
 609 466 609 466 535 547 c 128,-1,34
 461 628 461 628 345 628 c 0,35,36
 313 628 313 628 297 627.5 c 128,-1,37
 281 627 281 627 261 624 c 128,-1,38
 241 621 241 621 232 614.5 c 128,-1,39
 223 608 223 608 216.5 596.5 c 128,-1,40
 210 585 210 585 210 567 c 2,41,-1
 210 121 l 2,42,43
 210 93 210 93 218.5 78.5 c 128,-1,44
 227 64 227 64 245 50 c 0,45,46
 260 39 260 39 277 34 c 128,-1,47
 294 29 294 29 305 28.5 c 128,-1,48
 316 28 316 28 340.5 29 c 128,-1,49
 365 30 365 30 376 30 c 0,50,51
 449 30 449 30 503.5 78 c 128,-1,52
 558 126 558 126 583.5 196.5 c 128,-1,53
 609 267 609 267 609 346 c 16,32,33
EndSplineSet
Validated: 33
EndChar

StartChar: Q
Encoding: 81 81 44
Width: 806
VWidth: 0
Flags: W
HStem: -248 56<690.64 848.247> 626 36<297.062 476.093>
VStem: 45 94<233.833 429.273> 666 95<216.19 433.089>
LayerCount: 2
Fore
SplineSet
383 626 m 0,0,1
 276 626 276 626 207 543.5 c 128,-1,2
 138 461 138 461 139 352 c 0,3,4
 140 219 140 219 224.5 115.5 c 128,-1,5
 309 12 309 12 430 12 c 0,6,7
 502 12 502 12 557.5 61.5 c 128,-1,8
 613 111 613 111 639.5 181 c 128,-1,9
 666 251 666 251 666 324 c 0,10,11
 666 443 666 443 584 534.5 c 128,-1,12
 502 626 502 626 383 626 c 0,0,1
373 -54 m 0,13,14
 358 -42 358 -42 314.5 -17.5 c 128,-1,15
 271 7 271 7 259 10 c 0,16,17
 229 18 229 18 193.5 42 c 128,-1,18
 158 66 158 66 124 103 c 128,-1,19
 90 140 90 140 67.5 194 c 128,-1,20
 45 248 45 248 45 307 c 0,21,22
 45 457 45 457 146.5 559.5 c 128,-1,23
 248 662 248 662 402 662 c 0,24,25
 492 662 492 662 572.5 627.5 c 128,-1,26
 653 593 653 593 707 520 c 128,-1,27
 761 447 761 447 761 350 c 0,28,29
 761 282 761 282 742.5 225.5 c 128,-1,30
 724 169 724 169 700 134.5 c 128,-1,31
 676 100 676 100 638.5 70 c 128,-1,32
 601 40 601 40 577 27.5 c 128,-1,33
 553 15 553 15 519 0 c 0,34,35
 490 -13 490 -13 504 -28 c 0,36,37
 545 -72 545 -72 624 -129 c 0,38,39
 674 -165 674 -165 707 -178 c 128,-1,40
 740 -191 740 -191 793 -192 c 1,41,42
 836 -194 836 -194 858 -185 c 0,43,44
 888 -173 888 -173 888 -189 c 0,45,46
 888 -204 888 -204 870 -215 c 0,47,48
 813 -248 813 -248 753 -248 c 0,49,50
 635 -248 635 -248 531 -173 c 0,51,52
 459 -122 459 -122 373 -54 c 0,13,14
EndSplineSet
Validated: 33
Substitution2: "Single Substitution lookup 11 subtable" Q.long
EndChar

StartChar: S
Encoding: 83 83 45
Width: 465
VWidth: 0
Flags: W
HStem: -16 33<150.471 283.135> 631 33<197.87 319.057>
VStem: 41 51<63.5617 161.21> 66 77<465.452 571.876> 338 84<86.4289 209.033> 370 42<514.828 588.736>
LayerCount: 2
Fore
SplineSet
223 17 m 0,0,1
 277 17 277 17 307.5 53.5 c 128,-1,2
 338 90 338 90 338 145 c 0,3,4
 338 190 338 190 301 230 c 128,-1,5
 264 270 264 270 193 318 c 0,6,7
 132 359 132 359 99 400.5 c 128,-1,8
 66 442 66 442 66 497 c 0,9,10
 66 565 66 565 123 614.5 c 128,-1,11
 180 664 180 664 267 664 c 0,12,13
 295 664 295 664 322.5 659 c 128,-1,14
 350 654 350 654 366.5 649 c 128,-1,15
 383 644 383 644 386 644 c 0,16,17
 399 644 399 644 403 621 c 0,18,19
 411 573 411 573 412 539 c 0,20,21
 413 512 413 512 405 512 c 0,22,23
 391 512 391 512 381.5 520 c 128,-1,24
 372 528 372 528 370 540 c 0,25,26
 363 583 363 583 332 607 c 128,-1,27
 301 631 301 631 258 631 c 0,28,29
 210 631 210 631 176.5 601.5 c 128,-1,30
 143 572 143 572 143 523 c 0,31,32
 143 494 143 494 168 461.5 c 128,-1,33
 193 429 193 429 216.5 411.5 c 128,-1,34
 240 394 240 394 276 371 c 0,35,36
 306 352 306 352 324.5 337.5 c 128,-1,37
 343 323 343 323 369 297.5 c 128,-1,38
 395 272 395 272 408.5 240.5 c 128,-1,39
 422 209 422 209 422 173 c 0,40,41
 422 141 422 141 410 109.5 c 128,-1,42
 398 78 398 78 374.5 49 c 128,-1,43
 351 20 351 20 309 2 c 128,-1,44
 267 -16 267 -16 214 -16 c 0,45,46
 131 -16 131 -16 80 8 c 0,47,48
 63 16 63 16 59 25 c 0,49,50
 43 58 43 58 41 139 c 0,51,52
 40 146 40 146 47.5 158 c 128,-1,53
 55 170 55 170 63 169 c 0,54,55
 72 168 72 168 92 103 c 0,56,57
 106 60 106 60 141 38.5 c 128,-1,58
 176 17 176 17 223 17 c 0,0,1
EndSplineSet
Validated: 33
EndChar

StartChar: O
Encoding: 79 79 46
Width: 763
VWidth: 0
Flags: W
HStem: -14 39<309.694 487.027> 625 39<287.149 469.251>
VStem: 45 97<219.261 447.462> 621 97<206.698 448.756>
LayerCount: 2
Fore
SplineSet
375 625 m 0,0,1
 269 625 269 625 205.5 543 c 128,-1,2
 142 461 142 461 142 350 c 0,3,4
 142 218 142 218 214.5 121.5 c 128,-1,5
 287 25 287 25 395 25 c 0,6,7
 505 25 505 25 563 99.5 c 128,-1,8
 621 174 621 174 621 305 c 0,9,10
 621 451 621 451 557 538 c 128,-1,11
 493 625 493 625 375 625 c 0,0,1
45 320 m 0,12,13
 45 462 45 462 134.5 561 c 128,-1,14
 224 660 224 660 382 664 c 0,15,16
 519 667 519 667 618.5 574 c 128,-1,17
 718 481 718 481 718 335 c 0,18,19
 718 267 718 267 696 204.5 c 128,-1,20
 674 142 674 142 632.5 93 c 128,-1,21
 591 44 591 44 526 15 c 128,-1,22
 461 -14 461 -14 382 -14 c 0,23,24
 247 -14 247 -14 146 83 c 128,-1,25
 45 180 45 180 45 320 c 0,12,13
EndSplineSet
Validated: 33
EndChar

StartChar: H
Encoding: 72 72 47
Width: 823
VWidth: 0
Flags: W
HStem: -5 29<45.6924 117.801 258.526 329.308 509.692 580.618 706.921 777.308> 302 48<218 609.999> 622 31<53.0745 124.701 243.842 317.926 512.074 583.968 705.262 774.926>
VStem: 138 80<53.9455 302.38 349.843 603.314> 610 80<44.8548 302.249 349.586 603.445>
LayerCount: 2
Fore
SplineSet
690 100 m 1,0,1
 691 60 691 60 700.5 45 c 128,-1,2
 710 30 710 30 745 24 c 0,3,4
 778 18 778 18 778 6 c 0,5,6
 778 -5 778 -5 749 -5 c 128,-1,7
 720 -5 720 -5 692 -2.5 c 128,-1,8
 664 0 664 0 645 0 c 128,-1,9
 626 0 626 0 596.5 -2.5 c 128,-1,10
 567 -5 567 -5 538 -5 c 128,-1,11
 509 -5 509 -5 509 6 c 0,12,13
 509 18 509 18 542 24 c 0,14,15
 610 37 610 37 610 97 c 2,16,17
 610 295 l 2,18,19
 610 302 610 302 605 302 c 0,20,21
 372 306 372 306 223 302 c 0,22,23
 218 302 218 302 218 291 c 0,24,25
 218 264 218 264 218.5 205.5 c 128,-1,26
 219 147 219 147 219 106 c 0,27,28
 219 75 219 75 240.5 52.5 c 128,-1,29
 262 30 262 30 297 24 c 0,30,31
 330 18 330 18 330 6 c 0,32,33
 330 -5 330 -5 301 -5 c 0,34,35
 273 -5 273 -5 239.5 -2.5 c 128,-1,36
 206 0 206 0 184 0 c 0,37,38
 164 0 164 0 133 -2.5 c 128,-1,39
 102 -5 102 -5 74 -5 c 0,40,41
 45 -5 45 -5 45 6 c 0,42,43
 45 18 45 18 78 24 c 0,44,45
 114 31 114 31 126 46.5 c 128,-1,46
 138 62 138 62 138 99 c 2,47,-1
 138 551 l 2,48,49
 138 588 138 588 129 602 c 128,-1,50
 120 616 120 616 85 622 c 0,51,52
 52 628 52 628 52 642 c 0,53,54
 52 653 52 653 81 653 c 128,-1,55
 110 653 110 653 138 651.5 c 128,-1,56
 166 650 166 650 184 650 c 0,57,58
 203 650 203 650 232 651.5 c 128,-1,59
 261 653 261 653 290 653 c 128,-1,60
 319 653 319 653 319 642 c 0,61,62
 319 628 319 628 286 622 c 0,63,64
 218 610 218 610 218 551 c 2,65,-1
 218 359 l 2,66,67
 218 350 218 350 232 350 c 0,68,69
 446 345 446 345 603 350 c 0,70,71
 610 350 610 350 610 362 c 0,72,73
 610 391 610 391 609.5 451.5 c 128,-1,74
 609 512 609 512 609 552 c 0,75,76
 609 610 609 610 544 622 c 0,77,78
 511 628 511 628 511 642 c 0,79,80
 511 653 511 653 540 653 c 0,81,82
 568 653 568 653 601 651.5 c 128,-1,83
 634 650 634 650 656 650 c 0,84,85
 671 650 671 650 694.5 651.5 c 128,-1,86
 718 653 718 653 747 653 c 128,-1,87
 776 653 776 653 776 642 c 0,88,89
 776 628 776 628 743 622 c 0,90,91
 709 616 709 616 699.5 600.5 c 128,-1,92
 690 585 690 585 690 552 c 2,93,-1
 690 100 l 1,0,1
EndSplineSet
Validated: 33
EndChar

StartChar: U
Encoding: 85 85 48
Width: 738
VWidth: 0
Flags: W
HStem: -14 50<312.955 480.757> 620 33<25.4669 83.9594 202.114 256.781 515.06 566.939 662.499 726.313>
VStem: 103 80<187.656 606.064> 588 57<326.698 604.72> 592 43<165.341 460.842>
LayerCount: 2
Fore
SplineSet
645 547 m 0,0,1
 644 531 644 531 635 254 c 0,2,3
 631 137 631 137 559.5 61.5 c 128,-1,4
 488 -14 488 -14 380 -14 c 0,5,6
 242 -14 242 -14 172.5 77.5 c 128,-1,7
 103 169 103 169 103 322 c 2,8,-1
 103 547 l 2,9,10
 103 607 103 607 57 620 c 0,11,12
 24 629 24 629 24 642 c 0,13,14
 24 653 24 653 53 653 c 0,15,16
 67 653 67 653 98.5 651.5 c 128,-1,17
 130 650 130 650 149 650 c 0,18,19
 166 650 166 650 193 651 c 128,-1,20
 220 652 220 652 229 652 c 0,21,22
 258 652 258 652 258 641 c 0,23,24
 258 632 258 632 225 621 c 0,25,26
 211 617 211 617 197 596.5 c 128,-1,27
 183 576 183 576 183 549 c 2,28,-1
 183 294 l 2,29,30
 183 191 183 191 245 113.5 c 128,-1,31
 307 36 307 36 403 36 c 0,32,33
 496 36 496 36 544 107.5 c 128,-1,34
 592 179 592 179 592 300 c 0,35,36
 592 357 592 357 588 511 c 0,37,38
 586 609 586 609 547 620 c 0,39,40
 514 629 514 629 514 640 c 128,-1,41
 514 651 514 651 543 651 c 0,42,43
 558 651 558 651 581 650.5 c 128,-1,44
 604 650 604 650 618 650 c 0,45,46
 635 650 635 650 662 651.5 c 128,-1,47
 689 653 689 653 699 653 c 0,48,49
 728 653 728 653 728 642 c 0,50,51
 728 629 728 629 695 622 c 0,52,53
 648 613 648 613 645 547 c 0,0,1
EndSplineSet
Validated: 1
Substitution2: "loclLAT subtable" U.LAT
EndChar

StartChar: Y
Encoding: 89 89 49
Width: 578
VWidth: 0
Flags: W
HStem: -5 29<153.692 226.247 382.521 455.308> 620 33<1.64938 59.1406 197.875 253.781 385.06 437.964 547.286 611.313>
VStem: 264 80<52.5 324.613>
LayerCount: 2
Fore
SplineSet
264 108 m 2,0,1
 264 256 l 2,2,3
 264 267 264 267 262 277.5 c 128,-1,4
 260 288 260 288 256.5 297 c 128,-1,5
 253 306 253 306 250 311.5 c 128,-1,6
 247 317 247 317 243 323 c 128,-1,7
 239 329 239 329 239 330 c 0,8,9
 186 415 186 415 122 522 c 1,10,11
 67 610 67 610 33 620 c 0,12,13
 0 630 0 630 0 642 c 0,14,15
 0 653 0 653 29 653 c 0,16,17
 42 653 42 653 81.5 651.5 c 128,-1,18
 121 650 121 650 146 650 c 0,19,20
 163 650 163 650 190 651 c 128,-1,21
 217 652 217 652 226 652 c 0,22,23
 255 652 255 652 255 641 c 0,24,25
 255 632 255 632 222 621 c 0,26,27
 212 618 212 618 205 612 c 128,-1,28
 198 606 198 606 194 592.5 c 128,-1,29
 190 579 190 579 203 560 c 1,30,31
 233 508 233 508 260 458.5 c 128,-1,32
 287 409 287 409 295 395 c 0,33,34
 301 385 301 385 303.5 381 c 128,-1,35
 306 377 306 377 309.5 370.5 c 128,-1,36
 313 364 313 364 315 363 c 128,-1,37
 317 362 317 362 319.5 358.5 c 128,-1,38
 322 355 322 355 324.5 357.5 c 128,-1,39
 327 360 327 360 328.5 359.5 c 128,-1,40
 330 359 330 359 333.5 364.5 c 128,-1,41
 337 370 337 370 339 372 c 128,-1,42
 341 374 341 374 347 382 c 128,-1,43
 353 390 353 390 356 395 c 0,44,45
 414 476 414 476 440 534 c 0,46,47
 452 560 452 560 445 587 c 128,-1,48
 438 614 438 614 417 620 c 0,49,50
 384 629 384 629 384 640 c 128,-1,51
 384 651 384 651 413 651 c 0,52,53
 428 651 428 651 451 650.5 c 128,-1,54
 474 650 474 650 488 650 c 0,55,56
 508 650 508 650 541 651.5 c 128,-1,57
 574 653 574 653 584 653 c 0,58,59
 613 653 613 653 613 642 c 0,60,61
 613 629 613 629 580 622 c 0,62,63
 540 614 540 614 480 526 c 1,64,65
 427 445 427 445 369 346 c 0,66,67
 351 315 351 315 347.5 301 c 128,-1,68
 344 287 344 287 344 256 c 2,69,-1
 344 108 l 2,70,71
 344 74 344 74 364.5 52.5 c 128,-1,72
 385 31 385 31 423 24 c 0,73,74
 456 18 456 18 456 6 c 0,75,76
 456 -5 456 -5 427 -5 c 0,77,78
 399 -5 399 -5 365.5 -2.5 c 128,-1,79
 332 0 332 0 310 0 c 0,80,81
 286 0 286 0 247.5 -2.5 c 128,-1,82
 209 -5 209 -5 182 -5 c 0,83,84
 153 -5 153 -5 153 6 c 0,85,86
 153 18 153 18 186 24 c 0,87,88
 264 38 264 38 264 108 c 2,0,1
EndSplineSet
Validated: 33
EndChar

StartChar: one
Encoding: 49 49 50
Width: 289
VWidth: 0
Flags: W
HStem: -3 25<26.7157 90.5827 198.107 263.756> 384 22<39.4082 89.9044 201.295 250.233>
VStem: 109 73<32.9094 374.434>
LayerCount: 2
Fore
SplineSet
109 68 m 2,0,1
 109 333 l 2,2,3
 109 342 109 342 107 349 c 128,-1,4
 105 356 105 356 103 360.5 c 128,-1,5
 101 365 101 365 96 369 c 128,-1,6
 91 373 91 373 88 375 c 128,-1,7
 85 377 85 377 77.5 378.5 c 128,-1,8
 70 380 70 380 67.5 380.5 c 128,-1,9
 65 381 65 381 56 382.5 c 128,-1,10
 47 384 47 384 46 384 c 0,11,12
 41 384 41 384 39.5 389.5 c 128,-1,13
 38 395 38 395 40 400.5 c 128,-1,14
 42 406 42 406 46 406 c 0,15,16
 79 406 79 406 104 404.5 c 128,-1,17
 129 403 129 403 146 403 c 0,18,19
 162 403 162 403 187 404.5 c 128,-1,20
 212 406 212 406 243 406 c 0,21,22
 252 406 252 406 251.5 396 c 128,-1,23
 251 386 251 386 243 384 c 0,24,25
 240 383 240 383 229.5 381.5 c 128,-1,26
 219 380 219 380 214.5 378.5 c 128,-1,27
 210 377 210 377 202.5 373.5 c 128,-1,28
 195 370 195 370 191.5 365.5 c 128,-1,29
 188 361 188 361 185 352.5 c 128,-1,30
 182 344 182 344 182 333 c 0,31,32
 179 204 179 204 182 68 c 0,33,34
 182 49 182 49 193 39.5 c 128,-1,35
 204 30 204 30 213.5 28 c 128,-1,36
 223 26 223 26 253 22 c 0,37,38
 261 21 261 21 264 15 c 128,-1,39
 267 9 267 9 264 3 c 128,-1,40
 261 -3 261 -3 253 -3 c 0,41,42
 222 -3 222 -3 193 -0.5 c 128,-1,43
 164 2 164 2 146 2 c 0,44,45
 126 2 126 2 95 -0.5 c 128,-1,46
 64 -3 64 -3 36 -3 c 0,47,48
 30 -3 30 -3 27 3 c 128,-1,49
 24 9 24 9 26 15.5 c 128,-1,50
 28 22 28 22 36 22 c 0,51,52
 51 23 51 23 59.5 24.5 c 128,-1,53
 68 26 68 26 81.5 30 c 128,-1,54
 95 34 95 34 102 44 c 128,-1,55
 109 54 109 54 109 68 c 2,0,1
EndSplineSet
Validated: 33
Substitution2: "'tnum' Tabular Numbers lookup 7 subtable" one.taboldstyle
Substitution2: "'lnum' Lining Figures lookup 5 subtable" one.lnum
EndChar

StartChar: bracketleft
Encoding: 91 91 51
Width: 373
VWidth: 0
Flags: W
HStem: -200 33<165.205 331.158> 673 29<170.069 332.807>
VStem: 113 49<-166.781 0.239746 77.438 671.344>
LayerCount: 2
Fore
SplineSet
150 702 m 26,0,-1
 315 701 l 2,1,2
 322 701 322 701 328 696.5 c 128,-1,3
 334 692 334 692 333 686 c 1,4,5
 329 676 329 676 307 674 c 0,6,7
 295 673 295 673 191 673 c 0,8,9
 180 673 180 673 173.5 664.5 c 128,-1,10
 167 656 167 656 167 644 c 0,11,12
 161 495 161 495 161 262 c 0,13,14
 161 -81 161 -81 162 -118 c 0,15,16
 163 -151 163 -151 168.5 -159 c 128,-1,17
 174 -167 174 -167 191 -167 c 0,18,19
 250 -167 250 -167 307 -172 c 0,20,21
 333 -174 333 -174 333 -190 c 0,22,23
 333 -203 333 -203 307 -203 c 2,24,-1
 143 -200 l 2,25,26
 124 -200 124 -200 118 -194.5 c 128,-1,27
 112 -189 112 -189 113 -170 c 2,28,-1
 117 542 l 2,29,30
 117 559 117 559 114.5 589.5 c 128,-1,31
 112 620 112 620 113 640 c 0,32,33
 113 646 113 646 112.5 654.5 c 128,-1,34
 112 663 112 663 111.5 668.5 c 128,-1,35
 111 674 111 674 112.5 681 c 128,-1,36
 114 688 114 688 118 694 c 0,37,38
 120 697 120 697 122.5 699 c 128,-1,39
 125 701 125 701 128.5 701.5 c 128,-1,40
 132 702 132 702 134.5 702 c 128,-1,41
 137 702 137 702 142.5 702 c 128,-1,42
 148 702 148 702 150 702 c 26,0,-1
EndSplineSet
Validated: 33
EndChar

StartChar: bracketright
Encoding: 93 93 52
Width: 370
VWidth: 0
Flags: W
HStem: -203 31<40.2656 205.572> 674 27<40.1472 201.315>
VStem: 206 54<-166.976 672.145>
LayerCount: 2
Fore
SplineSet
223 702 m 26,0,1
 225 702 225 702 229 702 c 128,-1,2
 233 702 233 702 235.5 702 c 128,-1,3
 238 702 238 702 241 702 c 128,-1,4
 244 702 244 702 246.5 701 c 128,-1,5
 249 700 249 700 251 698.5 c 128,-1,6
 253 697 253 697 255 694 c 0,7,8
 259 688 259 688 260.5 681 c 128,-1,9
 262 674 262 674 261.5 668.5 c 128,-1,10
 261 663 261 663 260.5 654.5 c 128,-1,11
 260 646 260 646 260 640 c 0,12,13
 260 621 260 621 258 591 c 128,-1,14
 256 561 256 561 256 542 c 2,15,-1
 260 -170 l 2,16,17
 260 -189 260 -189 254.5 -194.5 c 128,-1,18
 249 -200 249 -200 230 -200 c 2,19,-1
 66 -203 l 2,20,21
 40 -203 40 -203 40 -190 c 0,22,23
 40 -174 40 -174 66 -172 c 0,24,25
 123 -167 123 -167 182 -167 c 0,26,27
 199 -167 199 -167 204.5 -159 c 128,-1,28
 210 -151 210 -151 211 -118 c 0,29,30
 212 -69 212 -69 212 262 c 0,31,32
 212 465 212 465 206 644 c 1,33,34
 204 673 204 673 182 673 c 0,35,36
 77 673 77 673 66 674 c 0,37,38
 43 676 43 676 40 686 c 0,39,40
 38 692 38 692 44 696.5 c 128,-1,41
 50 701 50 701 58 701 c 2,42,-1
 223 702 l 26,0,1
EndSplineSet
Validated: 33
EndChar

StartChar: x
Encoding: 120 120 53
Width: 543
VWidth: 0
Flags: W
HStem: -3 25<29.7561 76.4045 163.306 204.768 279.048 328.52 461.198 502.169> 424 25<44.5154 100.871 206.767 243.127 335.674 361.286>
LayerCount: 2
Fore
SplineSet
198 22 m 0,0,1
 206 22 206 22 206 9.5 c 128,-1,2
 206 -3 206 -3 198 -3 c 0,3,4
 176 -3 176 -3 154.5 -0.5 c 128,-1,5
 133 2 133 2 119 2 c 0,6,7
 104 2 104 2 81 -0.5 c 128,-1,8
 58 -3 58 -3 36 -3 c 0,9,10
 32 -3 32 -3 30 3 c 128,-1,11
 28 9 28 9 29.5 15 c 128,-1,12
 31 21 31 21 36 22 c 0,13,14
 71 28 71 28 92 43.5 c 128,-1,15
 113 59 113 59 139 91 c 2,16,-1
 223 196 l 2,17,18
 242 219 242 219 230 235 c 2,19,-1
 121 388 l 2,20,21
 109 404 109 404 103.5 410 c 128,-1,22
 98 416 98 416 85 421.5 c 128,-1,23
 72 427 72 427 49 428 c 0,24,25
 44 428 44 428 42.5 434.5 c 128,-1,26
 41 441 41 441 43 447 c 128,-1,27
 45 453 45 453 49 453 c 0,28,29
 55 453 55 453 86 449 c 128,-1,30
 117 445 117 445 137 445 c 0,31,32
 160 445 160 445 195.5 447 c 128,-1,33
 231 449 231 449 238 449 c 0,34,35
 246 449 246 449 246 437 c 128,-1,36
 246 425 246 425 238 425 c 0,37,38
 214 424 214 424 206.5 412 c 128,-1,39
 199 400 199 400 204 387 c 128,-1,40
 209 374 209 374 218 361 c 2,41,-1
 274 283 l 2,42,43
 281 273 281 273 282 272.5 c 128,-1,44
 283 272 283 272 291 281 c 2,45,-1
 362 367 l 2,46,47
 374 381 374 381 367 401.5 c 128,-1,48
 360 422 360 422 340 424 c 0,49,50
 335 424 335 424 333.5 430.5 c 128,-1,51
 332 437 332 437 334 443 c 128,-1,52
 336 449 336 449 340 449 c 0,53,54
 351 449 351 449 367 447.5 c 128,-1,55
 383 446 383 446 398 446 c 0,56,57
 451 446 451 446 490 455 c 0,58,59
 495.081621323 456.016324265 495.081621323 456.016324265 496.663168 448.9952 c 0,60,61
 499.145956452 433.777445765 499.145956452 433.777445765 490 430 c 1,62,63
 464 424 464 424 448.5 413.5 c 128,-1,64
 433 403 433 403 415 381 c 2,65,-1
 313 258 l 2,66,67
 305 248 305 248 304.5 245 c 128,-1,68
 304 242 304 242 310 232 c 2,69,-1
 413 82 l 2,70,71
 449 29 449 29 496 22 c 0,72,73
 503 21 503 21 503 9 c 128,-1,74
 503 -3 503 -3 496 -3 c 0,75,76
 475 -3 475 -3 449 -1 c 128,-1,77
 423 1 423 1 406 1 c 0,78,79
 382 1 382 1 343.5 -1 c 128,-1,80
 305 -3 305 -3 285 -3 c 0,81,82
 278 -3 278 -3 278 9 c 128,-1,83
 278 21 278 21 285 22 c 0,84,85
 323 24 323 24 336 41.5 c 128,-1,86
 349 59 349 59 333 82 c 2,87,-1
 269 177 l 1,88,89
 261 186 261 186 257 184 c 128,-1,90
 253 182 253 182 245 171 c 2,91,-1
 167 70 l 2,92,93
 152 52 152 52 161 37 c 128,-1,94
 170 22 170 22 198 22 c 0,0,1
EndSplineSet
EndChar

StartChar: comma
Encoding: 44 44 54
Width: 228
VWidth: 0
Flags: W
HStem: 29 88<50.4428 120.388>
VStem: 128 52<-59.9065 49.1868>
LayerCount: 2
Fore
SplineSet
89 29 m 0,0,1
 67 31 67 31 54.5 42.5 c 128,-1,2
 42 54 42 54 42 71 c 0,3,4
 42 91 42 91 58.5 104 c 128,-1,5
 75 117 75 117 97 117 c 0,6,7
 133 117 133 117 156.5 89.5 c 128,-1,8
 180 62 180 62 180 20 c 0,9,10
 180 -49 180 -49 131.5 -97 c 128,-1,11
 83 -145 83 -145 38 -147 c 0,12,13
 27 -147 27 -147 21.5 -142.5 c 128,-1,14
 16 -138 16 -138 19 -132 c 128,-1,15
 22 -126 22 -126 32 -124 c 0,16,17
 71 -116 71 -116 99.5 -89.5 c 128,-1,18
 128 -63 128 -63 128 -15 c 0,19,20
 128 -2 128 -2 116 13 c 128,-1,21
 104 28 104 28 89 29 c 0,0,1
EndSplineSet
Validated: 1
EndChar

StartChar: quotedblbase
Encoding: 8222 8222 55
Width: 420
VWidth: 0
Flags: W
HStem: -147 23<41.5641 86.3362 219.564 264.336> 29 88<72.4428 142.388 250.443 320.388>
VStem: 150 52<-59.9065 49.1868> 328 52<-59.9065 49.1868>
LayerCount: 2
Fore
SplineSet
289 29 m 0,0,1
 267 31 267 31 254.5 42.5 c 128,-1,2
 242 54 242 54 242 71 c 0,3,4
 242 91 242 91 258.5 104 c 128,-1,5
 275 117 275 117 297 117 c 0,6,7
 333 117 333 117 356.5 89.5 c 128,-1,8
 380 62 380 62 380 20 c 0,9,10
 380 -49 380 -49 331.5 -97 c 128,-1,11
 283 -145 283 -145 238 -147 c 0,12,13
 227 -147 227 -147 221.5 -142.5 c 128,-1,14
 216 -138 216 -138 219 -132 c 128,-1,15
 222 -126 222 -126 232 -124 c 0,16,17
 271 -116 271 -116 299.5 -89.5 c 128,-1,18
 328 -63 328 -63 328 -15 c 0,19,20
 328 -2 328 -2 316 13 c 128,-1,21
 304 28 304 28 289 29 c 0,0,1
111 29 m 0,22,23
 89 31 89 31 76.5 42.5 c 128,-1,24
 64 54 64 54 64 71 c 0,25,26
 64 91 64 91 80.5 104 c 128,-1,27
 97 117 97 117 119 117 c 0,28,29
 155 117 155 117 178.5 89.5 c 128,-1,30
 202 62 202 62 202 20 c 0,31,32
 202 -49 202 -49 153.5 -97 c 128,-1,33
 105 -145 105 -145 60 -147 c 0,34,35
 49 -147 49 -147 43.5 -142.5 c 128,-1,36
 38 -138 38 -138 41 -132 c 128,-1,37
 44 -126 44 -126 54 -124 c 0,38,39
 93 -116 93 -116 121.5 -89.5 c 128,-1,40
 150 -63 150 -63 150 -15 c 0,41,42
 150 -2 150 -2 138 13 c 128,-1,43
 126 28 126 28 111 29 c 0,22,23
EndSplineSet
Validated: 1
EndChar

StartChar: quotesinglbase
Encoding: 8218 8218 56
Width: 242
VWidth: 0
Flags: W
HStem: 29 88<72.4428 142.388>
VStem: 150 52<-59.9065 49.1868>
LayerCount: 2
Fore
SplineSet
111 29 m 0,0,1
 89 31 89 31 76.5 42.5 c 128,-1,2
 64 54 64 54 64 71 c 0,3,4
 64 91 64 91 80.5 104 c 128,-1,5
 97 117 97 117 119 117 c 0,6,7
 155 117 155 117 178.5 89.5 c 128,-1,8
 202 62 202 62 202 20 c 0,9,10
 202 -49 202 -49 153.5 -97 c 128,-1,11
 105 -145 105 -145 60 -147 c 0,12,13
 49 -147 49 -147 43.5 -142.5 c 128,-1,14
 38 -138 38 -138 41 -132 c 128,-1,15
 44 -126 44 -126 54 -124 c 0,16,17
 93 -116 93 -116 121.5 -89.5 c 128,-1,18
 150 -63 150 -63 150 -15 c 0,19,20
 150 -2 150 -2 138 13 c 128,-1,21
 126 28 126 28 111 29 c 0,0,1
EndSplineSet
Validated: 1
EndChar

StartChar: quotedblleft
Encoding: 8220 8220 57
Width: 420
VWidth: 0
Flags: W
HStem: 426 88<99.6124 169.557 277.612 347.557> 667 23<155.664 200.436 333.664 378.436>
VStem: 40 52<493.813 602.906> 218 52<493.813 602.906>
LayerCount: 2
Fore
SplineSet
131 514 m 0,0,1
 153 512 153 512 165.5 500.5 c 128,-1,2
 178 489 178 489 178 472 c 0,3,4
 178 452 178 452 161.5 439 c 128,-1,5
 145 426 145 426 123 426 c 0,6,7
 87 426 87 426 63.5 453.5 c 128,-1,8
 40 481 40 481 40 523 c 0,9,10
 40 592 40 592 88.5 640 c 128,-1,11
 137 688 137 688 182 690 c 0,12,13
 193 690 193 690 198.5 685.5 c 128,-1,14
 204 681 204 681 201 675 c 128,-1,15
 198 669 198 669 188 667 c 0,16,17
 149 659 149 659 120.5 632.5 c 128,-1,18
 92 606 92 606 92 558 c 0,19,20
 92 545 92 545 104 530 c 128,-1,21
 116 515 116 515 131 514 c 0,0,1
309 514 m 0,22,23
 331 512 331 512 343.5 500.5 c 128,-1,24
 356 489 356 489 356 472 c 0,25,26
 356 452 356 452 339.5 439 c 128,-1,27
 323 426 323 426 301 426 c 0,28,29
 265 426 265 426 241.5 453.5 c 128,-1,30
 218 481 218 481 218 523 c 0,31,32
 218 592 218 592 266.5 640 c 128,-1,33
 315 688 315 688 360 690 c 0,34,35
 371 690 371 690 376.5 685.5 c 128,-1,36
 382 681 382 681 379 675 c 128,-1,37
 376 669 376 669 366 667 c 0,38,39
 327 659 327 659 298.5 632.5 c 128,-1,40
 270 606 270 606 270 558 c 0,41,42
 270 545 270 545 282 530 c 128,-1,43
 294 515 294 515 309 514 c 0,22,23
EndSplineSet
Validated: 1
EndChar

StartChar: quotedblright
Encoding: 8221 8221 58
Width: 420
VWidth: 0
Flags: W
HStem: 426 23<41.5641 86.3362 219.564 264.336> 602 88<72.4428 142.388 250.443 320.388>
VStem: 150 52<513.094 622.187> 328 52<513.094 622.187>
LayerCount: 2
Fore
SplineSet
289 602 m 0,0,1
 267 604 267 604 254.5 615.5 c 128,-1,2
 242 627 242 627 242 644 c 0,3,4
 242 664 242 664 258.5 677 c 128,-1,5
 275 690 275 690 297 690 c 0,6,7
 333 690 333 690 356.5 662.5 c 128,-1,8
 380 635 380 635 380 593 c 0,9,10
 380 524 380 524 331.5 476 c 128,-1,11
 283 428 283 428 238 426 c 0,12,13
 227 426 227 426 221.5 430.5 c 128,-1,14
 216 435 216 435 219 441 c 128,-1,15
 222 447 222 447 232 449 c 0,16,17
 271 457 271 457 299.5 483.5 c 128,-1,18
 328 510 328 510 328 558 c 0,19,20
 328 571 328 571 316 586 c 128,-1,21
 304 601 304 601 289 602 c 0,0,1
111 602 m 0,22,23
 89 604 89 604 76.5 615.5 c 128,-1,24
 64 627 64 627 64 644 c 0,25,26
 64 664 64 664 80.5 677 c 128,-1,27
 97 690 97 690 119 690 c 0,28,29
 155 690 155 690 178.5 662.5 c 128,-1,30
 202 635 202 635 202 593 c 0,31,32
 202 524 202 524 153.5 476 c 128,-1,33
 105 428 105 428 60 426 c 0,34,35
 49 426 49 426 43.5 430.5 c 128,-1,36
 38 435 38 435 41 441 c 128,-1,37
 44 447 44 447 54 449 c 0,38,39
 93 457 93 457 121.5 483.5 c 128,-1,40
 150 510 150 510 150 558 c 0,41,42
 150 571 150 571 138 586 c 128,-1,43
 126 601 126 601 111 602 c 0,22,23
EndSplineSet
Validated: 1
EndChar

StartChar: quoteleft
Encoding: 8216 8216 59
Width: 240
Flags: W
HStem: 426 88<99.6124 169.557>
VStem: 40 52<493.813 602.906>
LayerCount: 2
Fore
SplineSet
131 514 m 0,0,1
 153 512 153 512 165.5 500.5 c 128,-1,2
 178 489 178 489 178 472 c 0,3,4
 178 452 178 452 161.5 439 c 128,-1,5
 145 426 145 426 123 426 c 0,6,7
 87 426 87 426 63.5 453.5 c 128,-1,8
 40 481 40 481 40 523 c 0,9,10
 40 592 40 592 88.5 640 c 128,-1,11
 137 688 137 688 182 690 c 0,12,13
 193 690 193 690 198.5 685.5 c 128,-1,14
 204 681 204 681 201 675 c 128,-1,15
 198 669 198 669 188 667 c 0,16,17
 149 659 149 659 120.5 632.5 c 128,-1,18
 92 606 92 606 92 558 c 0,19,20
 92 545 92 545 104 530 c 128,-1,21
 116 515 116 515 131 514 c 0,0,1
EndSplineSet
EndChar

StartChar: quoteright
Encoding: 8217 8217 60
Width: 240
Flags: W
HStem: 602 88<72.4428 142.388>
VStem: 150 52<513.094 622.187>
LayerCount: 2
Fore
SplineSet
111 602 m 0,0,1
 89 604 89 604 76.5 615.5 c 128,-1,2
 64 627 64 627 64 644 c 0,3,4
 64 664 64 664 80.5 677 c 128,-1,5
 97 690 97 690 119 690 c 0,6,7
 155 690 155 690 178.5 662.5 c 128,-1,8
 202 635 202 635 202 593 c 0,9,10
 202 524 202 524 153.5 476 c 128,-1,11
 105 428 105 428 60 426 c 0,12,13
 49 426 49 426 43.5 430.5 c 128,-1,14
 38 435 38 435 41 441 c 128,-1,15
 44 447 44 447 54 449 c 0,16,17
 93 457 93 457 121.5 483.5 c 128,-1,18
 150 510 150 510 150 558 c 0,19,20
 150 571 150 571 138 586 c 128,-1,21
 126 601 126 601 111 602 c 0,0,1
EndSplineSet
EndChar

StartChar: K
Encoding: 75 75 61
Width: 681
VWidth: 0
Flags: W
HStem: -5 29<31.6924 105.863 244.783 312.308 410.035 461.3 608.044 687.308> 323 22<211.264 231.653> 622 31<32.0745 108.441 226.967 296.926 408.311 455.739 576.716 672.827>
VStem: 131 80<50.6023 322.99 345.01 605.863>
LayerCount: 2
Fore
SplineSet
439 620 m 0,0,1
 408 628 408 628 408 640 c 0,2,3
 408 651 408 651 437 651 c 2,4,5
 511 651 l 1,6,7
 628 653 628 653 646 655 c 0,8,9
 675 658 675 658 675 644 c 128,-1,10
 675 630 675 630 642 624 c 0,11,12
 548 607 548 607 490 558 c 0,13,14
 396 478 396 478 298 371 c 0,15,16
 292 364 292 364 303 353 c 0,17,18
 355 295 355 295 426 221.5 c 128,-1,19
 497 148 497 148 545 95 c 0,20,21
 580 56 580 56 597 44.5 c 128,-1,22
 614 33 614 33 655 24 c 0,23,24
 688 17 688 17 688 6 c 128,-1,25
 688 -5 688 -5 659 -5 c 128,-1,26
 630 -5 630 -5 593.5 -2.5 c 128,-1,27
 557 0 557 0 537 0 c 128,-1,28
 517 0 517 0 491 -0.5 c 128,-1,29
 465 -1 465 -1 439 -1 c 0,30,31
 410 -1 410 -1 410 10 c 128,-1,32
 410 21 410 21 437 27 c 128,-1,33
 464 33 464 33 464.5 45.5 c 128,-1,34
 465 58 465 58 450 72 c 1,35,36
 311 228 311 228 238 306 c 0,37,38
 222 323 222 323 215 323 c 0,39,40
 211 323 211 323 211 302 c 0,41,42
 211 243 211 243 216 110 c 0,43,44
 219 35 219 35 280 24 c 0,45,46
 313 18 313 18 313 6 c 0,47,48
 313 -5 313 -5 284 -5 c 128,-1,49
 255 -5 255 -5 229 -1.5 c 128,-1,50
 203 2 203 2 186 2 c 0,51,52
 162 2 162 2 125 -1.5 c 128,-1,53
 88 -5 88 -5 60 -5 c 0,54,55
 31 -5 31 -5 31 6 c 0,56,57
 31 18 31 18 64 24 c 0,58,59
 102 31 102 31 116.5 47.5 c 128,-1,60
 131 64 131 64 131 101 c 2,61,-1
 131 551 l 2,62,63
 131 585 131 585 116.5 600 c 128,-1,64
 102 615 102 615 64 622 c 0,65,66
 31 628 31 628 31 642 c 0,67,68
 31 653 31 653 60 653 c 0,69,70
 88 653 88 653 119.5 652 c 128,-1,71
 151 651 151 651 172 651 c 0,72,73
 189 651 189 651 214.5 652 c 128,-1,74
 240 653 240 653 269 653 c 128,-1,75
 298 653 298 653 298 642 c 0,76,77
 298 628 298 628 265 622 c 0,78,79
 230 616 230 616 220.5 600 c 128,-1,80
 211 584 211 584 211 551 c 2,81,-1
 211 364 l 2,82,83
 211 345 211 345 216 345 c 0,84,85
 225 345 225 345 243 363 c 2,86,-1
 443 567 l 2,87,88
 459 584 459 584 457.5 599.5 c 128,-1,89
 456 615 456 615 439 620 c 0,0,1
EndSplineSet
Validated: 33
EndChar

StartChar: k
Encoding: 107 107 62
Width: 524
VWidth: 0
Flags: W
HStem: -4 24<30.6966 66.8555 198.959 232.437 293.469 335.03 457.662 502.938> 225 20<173.025 189.046> 418 32<296.566 324.6> 425 25<38.9238 69.6776 192.592 229.989 415.309 468.063>
VStem: 98 75<47.4944 224.993 245.004 407.713>
LayerCount: 2
Fore
SplineSet
417 66 m 0,0,1
 437 43 437 43 451.5 35 c 128,-1,2
 466 27 466 27 499 18 c 0,3,4
 504 16 504 16 505 4.5 c 128,-1,5
 506 -7 506 -7 499 -7 c 0,6,7
 491 -7 491 -7 465 -3.5 c 128,-1,8
 439 0 439 0 421 0 c 0,9,10
 393 0 393 0 347 -2 c 128,-1,11
 301 -4 301 -4 298 -4 c 0,12,13
 292 -4 292 -4 291.5 7.5 c 128,-1,14
 291 19 291 19 296 20 c 0,15,16
 300 21 300 21 306.5 22.5 c 128,-1,17
 313 24 313 24 318 25 c 128,-1,18
 323 26 323 26 327.5 27.5 c 128,-1,19
 332 29 332 29 334.5 31 c 128,-1,20
 337 33 337 33 337 36 c 0,21,22
 337 46 337 46 326 57 c 0,23,24
 308 77 308 77 262.5 130.5 c 128,-1,25
 217 184 217 184 191 213 c 0,26,27
 180 225 180 225 176 225 c 0,28,29
 173 225 173 225 173 210 c 0,30,31
 173 167 173 167 176 83 c 0,32,33
 177 52 177 52 185 44 c 0,34,35
 203 26 203 26 226 20 c 0,36,37
 234 18 234 18 234 7 c 128,-1,38
 234 -4 234 -4 226 -4 c 0,39,40
 207 -4 207 -4 181.5 -2 c 128,-1,41
 156 0 156 0 140 0 c 0,42,43
 119 0 119 0 86 -2 c 128,-1,44
 53 -4 53 -4 36 -4 c 0,45,46
 32 -4 32 -4 29.5 1.5 c 128,-1,47
 27 7 27 7 28.5 13 c 128,-1,48
 30 19 30 19 36 20 c 0,49,50
 68 28 68 28 86 47 c 0,51,52
 98 59 98 59 98 83 c 2,53,-1
 98 375 l 2,54,55
 98 389 98 389 83 402 c 0,56,57
 63 420 63 420 42 425 c 0,58,59
 38 426 38 426 38 438 c 128,-1,60
 38 450 38 450 42 450 c 0,61,62
 62 450 62 450 91.5 448.5 c 128,-1,63
 121 447 121 447 140 447 c 0,64,65
 156 447 156 447 181 448.5 c 128,-1,66
 206 450 206 450 226 450 c 0,67,68
 232 450 232 450 231.5 438 c 128,-1,69
 231 426 231 426 226 425 c 0,70,71
 204 422 204 422 187 408 c 0,72,73
 177 399 177 399 176 375 c 0,74,75
 173 292 173 292 173 253 c 0,76,77
 173 245 173 245 176 245 c 0,78,79
 184 245 184 245 191 252 c 2,80,-1
 323 384 l 2,81,82
 331 392 331 392 324 403 c 128,-1,83
 317 414 317 414 300 418 c 0,84,85
 294 420 294 420 295 435 c 128,-1,86
 296 450 296 450 302 450 c 0,87,88
 323 448 323 448 377 448 c 0,89,90
 408 448 408 448 465 454 c 0,91,92
 470 454 470 454 469 440 c 128,-1,93
 468 426 468 426 465 425 c 0,94,95
 434 421 434 421 417.5 413.5 c 128,-1,96
 401 406 401 406 377 384 c 0,97,98
 307 323 307 323 255 266 c 0,99,100
 251 262 251 262 258 254 c 0,101,102
 292 215 292 215 338.5 158.5 c 128,-1,103
 385 102 385 102 417 66 c 0,0,1
EndSplineSet
EndChar

StartChar: X
Encoding: 88 88 63
Width: 707
VWidth: 0
Flags: W
HStem: -5 33<-3.35062 67.7729 203.499 267.861 395.055 454.073 626.864 697.313> 622 33<19.6494 84.2503 262.699 317.637 443.217 494.452 626.879 693.56>
LayerCount: 2
Fore
SplineSet
666 26 m 0,0,1
 699 17 699 17 699 6 c 128,-1,2
 699 -5 699 -5 670 -5 c 0,3,4
 659 -5 659 -5 620.5 -2.5 c 128,-1,5
 582 0 582 0 559 1 c 0,6,7
 528 2 528 2 478 1 c 128,-1,8
 428 0 428 0 424 0 c 0,9,10
 395 0 395 0 395 11 c 128,-1,11
 395 22 395 22 428 31 c 0,12,13
 444 36 444 36 455.5 45.5 c 128,-1,14
 467 55 467 55 471.5 72 c 128,-1,15
 476 89 476 89 460 111 c 2,16,-1
 356 262 l 2,17,18
 344 279 344 279 334 267 c 2,19,-1
 199 93 l 1,20,21
 184 71 184 71 195 54 c 128,-1,22
 206 37 206 37 235 30 c 0,23,24
 268 21 268 21 268 10 c 128,-1,25
 268 -1 268 -1 239 -1 c 0,26,27
 235 -1 235 -1 196 0.5 c 128,-1,28
 157 2 157 2 132 1 c 0,29,30
 111 1 111 1 75 -2 c 128,-1,31
 39 -5 39 -5 24 -5 c 0,32,33
 -5 -5 -5 -5 -5 6 c 0,34,35
 -5 18 -5 18 28 28 c 0,36,37
 59 37 59 37 101 63 c 128,-1,38
 143 89 143 89 171 124 c 2,39,-1
 296 280 l 1,40,41
 320 314 320 314 312 325 c 2,42,-1
 167 529 l 2,43,44
 142 563 142 563 109.5 588.5 c 128,-1,45
 77 614 77 614 51 622 c 0,46,47
 18 632 18 632 18 644 c 0,48,49
 18 655 18 655 47 655 c 0,50,51
 62 655 62 655 104 652.5 c 128,-1,52
 146 650 146 650 170 650 c 0,53,54
 197 649 197 649 241.5 650.5 c 128,-1,55
 286 652 286 652 289 652 c 0,56,57
 318 652 318 652 318 641 c 128,-1,58
 318 630 318 630 285 621 c 1,59,60
 259 615 259 615 254.5 582.5 c 128,-1,61
 250 550 250 550 267 528 c 1,62,-1
 358 400 l 2,63,64
 368 385 368 385 373 384.5 c 128,-1,65
 378 384 378 384 388 397 c 2,66,-1
 495 538 l 2,67,68
 510 557 510 557 503.5 585.5 c 128,-1,69
 497 614 497 614 476 620 c 0,70,71
 443 629 443 629 443 640 c 128,-1,72
 443 651 443 651 472 651 c 0,73,74
 480 651 480 651 516.5 650 c 128,-1,75
 553 649 553 649 577 650 c 0,76,77
 595 651 595 651 625.5 653.5 c 128,-1,78
 656 656 656 656 667 656 c 0,79,80
 696 656 696 656 696 645 c 128,-1,81
 696 634 696 634 663 625 c 0,82,83
 621 614 621 614 533 510 c 2,84,-1
 418 374 l 2,85,86
 395 348 395 348 404 334 c 2,87,-1
 559 111 l 2,88,89
 606 42 606 42 666 26 c 0,0,1
EndSplineSet
Validated: 33
EndChar

StartChar: Z
Encoding: 90 90 64
Width: 603
VWidth: 0
Flags: W
HStem: -5 46<222.835 494.325> 604 45<110.395 428.001>
VStem: 43 30<508.994 562.831>
LayerCount: 2
Fore
SplineSet
433 41 m 0,0,1
 517 48 517 48 557 142 c 0,2,3
 565 163 565 163 579 163 c 0,4,5
 588 163 588 163 588 150 c 0,6,7
 588 141 588 141 573.5 85 c 128,-1,8
 559 29 559 29 551 12 c 0,9,10
 542 -5 542 -5 533 -5 c 0,11,12
 481 -5 481 -5 328.5 -3 c 128,-1,13
 176 -1 176 -1 155 -3 c 1,14,-1
 35 -3 l 2,15,16
 32 -3 32 -3 30.5 0.5 c 128,-1,17
 29 4 29 4 28.5 7.5 c 2,18,-1
 28 11 l 1,19,20
 28 26 28 26 86 104 c 0,21,22
 321 425 321 425 428 588 c 0,23,24
 439 603 439 603 413 604 c 0,25,26
 246 609 246 609 165 604 c 0,27,28
 137 602 137 602 111 585.5 c 128,-1,29
 85 569 85 569 73 535 c 1,30,31
 60 503 60 503 45 503 c 0,32,33
 29 503 29 503 43 541 c 1,34,35
 66 610 66 610 70 652 c 0,36,37
 71 669 71 669 85 669 c 0,38,39
 92 669 92 669 110 655 c 0,40,41
 121 647 121 647 183 647 c 0,42,43
 380 644 380 644 559 649 c 0,44,45
 564 649 564 649 568.5 642 c 128,-1,46
 573 635 573 635 570 631 c 0,47,48
 564 624 564 624 509 550 c 0,49,50
 293 259 293 259 171 70 c 0,51,52
 166 63 166 63 168.5 52.5 c 128,-1,53
 171 42 171 42 179 41 c 0,54,55
 276 29 276 29 433 41 c 0,0,1
EndSplineSet
Validated: 33
EndChar

StartChar: z
Encoding: 122 122 65
Width: 466
VWidth: 0
Flags: W
HStem: -3 42<162.888 381.386> -2 19<31.8216 38.9008> 418 33<101.291 300.976>
VStem: 44 35<355.125 403.266>
LayerCount: 2
Fore
SplineSet
324 39 m 0,0,1
 386 43 386 43 410 99 c 0,2,3
 414 109 414 109 446 113 c 0,4,5
 449 113 449 113 450.5 110.5 c 128,-1,6
 452 108 452 108 451 104 c 0,7,8
 436 34 436 34 423 9 c 0,9,10
 422 8 422 8 421 5 c 128,-1,11
 420 2 420 2 419.5 0.5 c 128,-1,12
 419 -1 419 -1 417 -2 c 128,-1,13
 415 -3 415 -3 413 -3 c 0,14,15
 377 -3 377 -3 256 -1.5 c 128,-1,16
 135 0 135 0 127 -2 c 1,17,-1
 34 -2 l 2,18,19
 29 -2 29 -2 31 7.5 c 128,-1,20
 33 17 33 17 34 17 c 0,21,22
 37 24 37 24 71 74 c 1,23,24
 235 299 235 299 305 407 c 0,25,26
 311 417 311 417 294 418 c 0,27,28
 170 421 170 421 130 418 c 0,29,30
 94 415 94 415 79 373 c 0,31,32
 77 367 77 367 65 357.5 c 128,-1,33
 53 348 53 348 46 348 c 0,34,35
 36 348 36 348 44 374 c 0,36,37
 66 448 66 448 68 453 c 0,38,39
 74 465 74 465 84 465 c 0,40,41
 89 465 89 465 101 455 c 0,42,43
 108 450 108 450 142 450 c 0,44,45
 297 448 297 448 416 451 c 0,46,47
 420 451 420 451 423 446 c 128,-1,48
 426 441 426 441 424 439 c 0,49,50
 418 432 418 432 382 382 c 1,51,52
 248 203 248 203 155 59 c 0,53,54
 152 54 152 54 154 47 c 128,-1,55
 156 40 156 40 161 39 c 0,56,57
 223 31 223 31 324 39 c 0,0,1
EndSplineSet
EndChar

StartChar: exclam
Encoding: 33 33 66
Width: 270
VWidth: 0
Flags: W
HStem: -14 120<98.7454 191.255>
VStem: 85 120<-0.254639 92.2546> 93 104<352.256 636.824>
LayerCount: 2
Fore
SplineSet
145 106 m 156,-1,1
 170 106 170 106 187.5 88.5 c 128,-1,2
 205 71 205 71 205 46 c 128,-1,3
 205 21 205 21 187.5 3.5 c 128,-1,4
 170 -14 170 -14 145 -14 c 128,-1,5
 120 -14 120 -14 102.5 3.5 c 128,-1,6
 85 21 85 21 85 46 c 128,-1,7
 85 71 85 71 102.5 88.5 c 128,-1,0
 120 106 120 106 145 106 c 156,-1,1
145 649 m 28,8,9
 170 650 170 650 183.5 627.5 c 128,-1,10
 197 605 197 605 197 575 c 0,11,12
 197 544 197 544 193 499 c 128,-1,13
 189 454 189 454 185 423.5 c 128,-1,14
 181 393 181 393 172.5 328 c 128,-1,15
 164 263 164 263 161 244 c 0,16,17
 156 205 156 205 143 205 c 0,18,19
 129 205 129 205 125 244 c 0,20,21
 122 271 122 271 112 357 c 128,-1,22
 102 443 102 443 97.5 494 c 128,-1,23
 93 545 93 545 93 573 c 0,24,25
 93 605 93 605 106 626.5 c 128,-1,26
 119 648 119 648 145 649 c 28,8,9
EndSplineSet
Validated: 33
EndChar

StartChar: exclamdown
Encoding: 161 161 67
Width: 282
VWidth: 0
Flags: W
HStem: 374 120<105.745 198.255>
VStem: 92 120<387.745 480.255> 101 100<-168.408 156.736> 124 50<0.580078 261.326>
LayerCount: 2
Fore
SplineSet
152 374 m 152,-1,1
 127 374 127 374 109.5 391.5 c 128,-1,2
 92 409 92 409 92 434 c 128,-1,3
 92 459 92 459 109.5 476.5 c 128,-1,4
 127 494 127 494 152 494 c 128,-1,5
 177 494 177 494 194.5 476.5 c 128,-1,6
 212 459 212 459 212 434 c 128,-1,7
 212 409 212 409 194.5 391.5 c 128,-1,0
 177 374 177 374 152 374 c 152,-1,1
152 -180 m 24,8,9
 127 -179 127 -179 114 -158 c 128,-1,10
 101 -137 101 -137 101 -106 c 0,11,12
 101 -66 101 -66 124 205 c 0,13,14
 126 228 126 228 133.5 245.5 c 128,-1,15
 141 263 141 263 152 263 c 0,16,17
 159 263 159 263 165.5 246 c 128,-1,18
 172 229 172 229 174 211 c 0,19,20
 201 -50 201 -50 201 -108 c 0,21,22
 201 -138 201 -138 188.5 -159.5 c 128,-1,23
 176 -181 176 -181 152 -180 c 24,8,9
EndSplineSet
Validated: 33
EndChar

StartChar: quotedbl
Encoding: 34 34 68
Width: 309
VWidth: 0
Flags: W
HStem: 444 232<80.1508 89.4949 211.151 220.495>
VStem: 62 74<529.368 656.895> 193 74<529.368 656.895>
LayerCount: 2
Fore
SplineSet
65 467 m 0,0,1
 68 545 68 545 62 619 c 0,2,3
 61 639 61 639 81 655 c 0,4,5
 109 676 109 676 124 676 c 0,6,7
 143 676 143 676 136 624 c 0,8,9
 124 544 124 544 91 469 c 0,10,11
 81 444 81 444 72 444 c 0,12,13
 65 444 65 444 65 467 c 0,0,1
196 467 m 0,14,15
 199 545 199 545 193 619 c 0,16,17
 192 639 192 639 212 655 c 0,18,19
 240 676 240 676 255 676 c 0,20,21
 274 676 274 676 267 624 c 0,22,23
 255 544 255 544 222 469 c 0,24,25
 212 444 212 444 203 444 c 0,26,27
 196 444 196 444 196 467 c 0,14,15
EndSplineSet
Validated: 33
EndChar

StartChar: quotesingle
Encoding: 39 39 69
Width: 195
VWidth: 0
Flags: W
HStem: 444 232<80.1508 89.4949>
VStem: 62 74<529.368 656.895>
LayerCount: 2
Fore
SplineSet
65 467 m 0,0,1
 68 545 68 545 62 619 c 0,2,3
 61 639 61 639 81 655 c 0,4,5
 109 676 109 676 124 676 c 0,6,7
 143 676 143 676 136 624 c 0,8,9
 124 544 124 544 91 469 c 0,10,11
 81 444 81 444 72 444 c 0,12,13
 65 444 65 444 65 467 c 0,0,1
EndSplineSet
Validated: 33
EndChar

StartChar: colon
Encoding: 58 58 70
Width: 248
VWidth: 0
Flags: W
HStem: -14 110<81.7433 168.257> 263 110<81.7433 168.257>
VStem: 70 110<-2.25671 84.2567 274.743 361.257>
LayerCount: 2
Fore
SplineSet
125 96 m 156,-1,1
 148 96 148 96 164 80 c 128,-1,2
 180 64 180 64 180 41 c 128,-1,3
 180 18 180 18 164 2 c 128,-1,4
 148 -14 148 -14 125 -14 c 128,-1,5
 102 -14 102 -14 86 2 c 128,-1,6
 70 18 70 18 70 41 c 128,-1,7
 70 64 70 64 86 80 c 128,-1,0
 102 96 102 96 125 96 c 156,-1,1
125 373 m 156,-1,9
 148 373 148 373 164 357 c 128,-1,10
 180 341 180 341 180 318 c 128,-1,11
 180 295 180 295 164 279 c 128,-1,12
 148 263 148 263 125 263 c 128,-1,13
 102 263 102 263 86 279 c 128,-1,14
 70 295 70 295 70 318 c 128,-1,15
 70 341 70 341 86 357 c 128,-1,8
 102 373 102 373 125 373 c 156,-1,9
EndSplineSet
Validated: 1
EndChar

StartChar: semicolon
Encoding: 59 59 71
Width: 228
VWidth: 0
Flags: W
HStem: 29 88<50.4428 120.388> 263 110<62.7433 149.257>
VStem: 51 110<274.743 361.257> 128 52<-59.9065 49.1868>
LayerCount: 2
Fore
SplineSet
106 373 m 156,-1,1
 129 373 129 373 145 357 c 128,-1,2
 161 341 161 341 161 318 c 128,-1,3
 161 295 161 295 145 279 c 128,-1,4
 129 263 129 263 106 263 c 128,-1,5
 83 263 83 263 67 279 c 128,-1,6
 51 295 51 295 51 318 c 128,-1,7
 51 341 51 341 67 357 c 128,-1,0
 83 373 83 373 106 373 c 156,-1,1
89 29 m 0,8,9
 67 31 67 31 54.5 42.5 c 128,-1,10
 42 54 42 54 42 71 c 0,11,12
 42 91 42 91 58.5 104 c 128,-1,13
 75 117 75 117 97 117 c 0,14,15
 133 117 133 117 156.5 89.5 c 128,-1,16
 180 62 180 62 180 20 c 0,17,18
 180 -49 180 -49 131.5 -97 c 128,-1,19
 83 -145 83 -145 38 -147 c 0,20,21
 27 -147 27 -147 21.5 -142.5 c 128,-1,22
 16 -138 16 -138 19 -132 c 128,-1,23
 22 -126 22 -126 32 -124 c 0,24,25
 71 -116 71 -116 99.5 -89.5 c 128,-1,26
 128 -63 128 -63 128 -15 c 0,27,28
 128 -2 128 -2 116 13 c 128,-1,29
 104 28 104 28 89 29 c 0,8,9
EndSplineSet
Validated: 1
EndChar

StartChar: dieresis
Encoding: 168 168 72
Width: 0
VWidth: 0
Flags: W
HStem: 494 100<-305.298 -226.702 -128.298 -49.7018>
VStem: -316 100<504.702 583.298> -139 100<504.702 583.298>
LayerCount: 2
Fore
SplineSet
-89 594 m 132,-1,1
 -70 594 -70 594 -54.5 578.5 c 128,-1,2
 -39 563 -39 563 -39 544 c 128,-1,3
 -39 525 -39 525 -54.5 509.5 c 128,-1,4
 -70 494 -70 494 -89 494 c 128,-1,5
 -108 494 -108 494 -123.5 509.5 c 128,-1,6
 -139 525 -139 525 -139 544 c 128,-1,7
 -139 563 -139 563 -123.5 578.5 c 128,-1,0
 -108 594 -108 594 -89 594 c 132,-1,1
-266 594 m 132,-1,9
 -247 594 -247 594 -231.5 578.5 c 128,-1,10
 -216 563 -216 563 -216 544 c 128,-1,11
 -216 525 -216 525 -231.5 509.5 c 128,-1,12
 -247 494 -247 494 -266 494 c 128,-1,13
 -285 494 -285 494 -300.5 509.5 c 128,-1,14
 -316 525 -316 525 -316 544 c 128,-1,15
 -316 563 -316 563 -300.5 578.5 c 128,-1,8
 -285 594 -285 594 -266 594 c 132,-1,9
EndSplineSet
Validated: 1
Substitution2: "'case' Case-Sensitive Forms lookup 12 subtable" dieresis.cap
EndChar

StartChar: adieresis
Encoding: 228 228 73
Width: 555
VWidth: 0
Flags: W
HStem: -3 24<31.5651 66.5452 181.336 213.993 321.865 351.645 498.689 530.895> 139 27<199.095 337.967> 443 20G<311 314> 513 100<165.202 243.798 342.202 420.798>
VStem: 154.5 100<523.702 602.298> 331.5 100<523.702 602.298>
LayerCount: 2
Fore
SplineSet
270 337 m 0
 249 285 249 285 199 176 c 0
 196 170 196 170 199 168 c 0
 202 166 202 166 212 166 c 2
 329 166 l 2
 337 166 337 166 338 167 c 0
 339 168 339 168 337 176 c 0
 331 198 331 198 282 337 c 0
 279 345 279 345 277.5 347 c 0
 276 349 276 349 274.5 347 c 0
 273 345 273 345 270 337 c 0
37 -3 m 0
 31 -3 31 -3 31.5 8 c 0
 32 19 32 19 37 21 c 0
 73 33 73 33 94 50 c 0
 112 64 112 64 125 92 c 0
 170 187 170 187 241 360 c 1
 245 373 245 373 248 386 c 0
 249 391 249 391 250 399 c 0
 251 407 251 407 252 412.5 c 2
 253 418 l 1
 259 419 259 419 276 431 c 0
 293 443 293 443 298 449 c 0
 310 463 310 463 312 463 c 0
 316 463 316 463 319 454 c 0
 339 400 339 400 378.5 288 c 0
 418 176 418 176 444 107 c 0
 455 75 455 75 479 50 c 0
 501 26 501 26 524 21 c 0
 530 19 530 19 531 8 c 0
 532 -3 532 -3 524 -3 c 0
 505 -3 505 -3 476 -0.5 c 0
 447 2 447 2 428 2 c 0
 407 2 407 2 373.5 -0.5 c 0
 340 -3 340 -3 324 -3 c 0
 320 -3 320 -3 319 3 c 0
 318 9 318 9 320 15 c 0
 322 21 322 21 325 21 c 0
 351 26 351 26 365 48 c 0
 373 62 373 62 367 89 c 0
 365 100 365 100 353 132 c 0
 351 139 351 139 334 139 c 2
 192 139 l 2
 185 139 185 139 180 127 c 0
 165 87 165 87 164 84 c 0
 159 61 159 61 165 51 c 0
 180 27 180 27 207 21 c 0
 214 20 214 20 214 8.5 c 0
 214 -3 214 -3 207 -3 c 0
 187 -3 187 -3 157 -0.5 c 0
 127 2 127 2 108 2 c 0
 94 2 94 2 72 -0.5 c 0
 50 -3 50 -3 37 -3 c 0
EndSplineSet
Refer: 72 168 S 1 0 0 1 470.5 19 2
EndChar

StartChar: odieresis
Encoding: 246 246 74
Width: 605
VWidth: 0
Flags: W
HStem: -15 37<241.194 390.07> 424 32<227.149 370.316> 513 100<184.202 262.798 361.202 439.798>
VStem: 66 85<119.334 313.175> 173.5 100<523.702 602.298> 350.5 100<523.702 602.298> 468 84<119.19 319.684>
LayerCount: 2
Fore
SplineSet
297 424 m 0
 220 424 220 424 185.5 369 c 0
 151 314 151 314 151 232 c 0
 151 140 151 140 194.5 81 c 0
 238 22 238 22 319 22 c 0
 360 22 360 22 390.5 40 c 0
 421 58 421 58 437 87.5 c 0
 453 117 453 117 460.5 148.5 c 0
 468 180 468 180 468 212 c 0
 468 297 468 297 424.5 360.5 c 0
 381 424 381 424 297 424 c 0
66 217 m 0
 66 310 66 310 137 383 c 0
 208 456 208 456 303 456 c 0
 405 456 405 456 478.5 388.5 c 0
 552 321 552 321 552 221 c 0
 552 123 552 123 486 54 c 0
 420 -15 420 -15 303 -15 c 0
 203 -15 203 -15 134.5 52.5 c 0
 66 120 66 120 66 217 c 0
EndSplineSet
Refer: 72 168 S 1 0 0 1 489.5 19 2
EndChar

StartChar: udieresis
Encoding: 252 252 75
Width: 563
VWidth: 0
Flags: W
HStem: -13 35<235.648 374.772> 426 24<170.33 200.987 381.676 412.914 501.336 544.52> 513 100<152.202 230.798 329.202 407.798>
VStem: 80 75<102.168 418.536> 141.5 100<523.702 602.298> 318.5 100<523.702 602.298> 431 44<86.0527 405.102>
LayerCount: 2
Fore
SplineSet
80 204 m 18
 80 372 l 2
 80 392 80 392 74 403.5 c 0
 68 415 68 415 62 417.5 c 0
 56 420 56 420 41 425 c 0
 37 426 37 426 34.5 432 c 0
 32 438 32 438 33 444 c 0
 34 450 34 450 39 450 c 0
 55 450 55 450 82 449 c 0
 109 448 109 448 126 448 c 0
 138 448 138 448 156 449 c 0
 174 450 174 450 195 450 c 0
 201 450 201 450 201 439 c 0
 201 428 201 428 195 426 c 1
 156 421 156 421 155 365 c 1
 155 185 l 2
 155 118 155 118 197.5 70 c 0
 240 22 240 22 307 22 c 0
 371 22 371 22 401 62 c 0
 431 102 431 102 431 193 c 2
 431 350 l 1
 432 393 432 393 422.5 405.5 c 0
 413 418 413 418 386 425 c 0
 379 427 379 427 379.5 439 c 0
 380 451 380 451 387 451 c 2
 459 451 l 2
 474 451 474 451 499 451.5 c 0
 524 452 524 452 540 452 c 0
 546 452 546 452 545 441.5 c 0
 544 431 544 431 540 430 c 0
 484 419 484 419 482 375 c 1
 475 298 475 298 475 217 c 0
 475 -13 475 -13 294 -13 c 0
 193 -13 193 -13 136.5 49 c 0
 80 111 80 111 80 204 c 18
EndSplineSet
Refer: 72 168 N 1 0 0 1 457.5 19 2
EndChar

StartChar: two
Encoding: 50 50 77
Width: 430
VWidth: 0
Flags: W
HStem: 0 65<131.73 363.557> 345 68<102.764 207.381>
VStem: 226 68<218.815 324.745>
LayerCount: 2
Fore
SplineSet
45 297 m 0,0,1
 37 289 37 289 33 290 c 0,2,3
 25 293 25 293 25 304 c 0,4,5
 25 308 25 308 30.5 319 c 128,-1,6
 36 330 36 330 49.5 346 c 128,-1,7
 63 362 63 362 81 377 c 128,-1,8
 99 392 99 392 128 402.5 c 128,-1,9
 157 413 157 413 190 413 c 0,10,11
 236 413 236 413 265 376.5 c 128,-1,12
 294 340 294 340 294 290 c 0,13,14
 294 241 294 241 253 191 c 0,15,16
 233 167 233 167 187.5 123.5 c 128,-1,17
 142 80 142 80 132 73 c 0,18,19
 125.106753813 68.4045025418 125.106753813 68.4045025418 136.75308642 65.548696845 c 1,20,-1
 141 65 l 1,21,22
 153 65 153 65 181 65 c 128,-1,23
 209 65 209 65 248.5 65 c 128,-1,24
 288 65 288 65 304 65 c 0,25,26
 332 65 332 65 357.5 82 c 128,-1,27
 383 99 383 99 397 128 c 1,28,29
 404 140 404 140 416 138 c 1,30,31
 424 138 424 138 419 126 c 0,32,33
 393 54 393 54 386 12 c 0,34,35
 385 4 385 4 382 0.5 c 128,-1,36
 379 -3 379 -3 377 -3.5 c 128,-1,37
 375 -4 375 -4 371 -4 c 0,38,39
 307 0 307 0 192 0 c 0,40,41
 93 0 93 0 29 -3 c 0,42,43
 26 -3 26 -3 24.5 0.5 c 128,-1,44
 23 4 23 4 24 8.5 c 128,-1,45
 25 13 25 13 29 17 c 0,46,47
 69 57 69 57 90 74 c 0,48,49
 224 184 224 184 226 264 c 0,50,51
 227 300 227 300 208.5 322.5 c 128,-1,52
 190 345 190 345 161 345 c 0,53,54
 88 345 88 345 45 297 c 0,0,1
EndSplineSet
Validated: 33
Substitution2: "'tnum' Tabular Numbers lookup 7 subtable" two.taboldstyle
Substitution2: "'lnum' Lining Figures lookup 5 subtable" two.lnum
EndChar

StartChar: five
Encoding: 53 53 78
Width: 375
VWidth: 0
Flags: W
HStem: -189 29<68.529 150.003> 325 90<163.5 261.016>
VStem: 245 80<-70.602 72.3007>
LayerCount: 2
Fore
SplineSet
102 -189 m 0,0,1
 68 -189 68 -189 68 -177 c 0,2,3
 68 -166 68 -166 101 -160 c 0,4,5
 245 -136 245 -136 245 0 c 0,6,7
 245 98 245 98 108 167 c 0,8,9
 55 194 55 194 58 227 c 0,10,11
 64 295 64 295 89 347 c 0,12,13
 100 370 100 370 125 380 c 0,14,15
 183 403 183 403 271 415 c 0,16,17
 276 416 276 416 279.5 411.5 c 128,-1,18
 283 407 283 407 283 401 c 0,19,20
 283 381 283 381 267 355 c 128,-1,21
 251 329 251 329 232 325 c 0,22,23
 177 314 177 314 110 312 c 0,24,25
 100 312 100 312 92 282 c 0,26,27
 87 265 87 265 111 252 c 0,28,29
 219 192 219 192 263 150 c 0,30,31
 287 127 287 127 306 90 c 128,-1,32
 325 53 325 53 325 17 c 0,33,34
 325 -74 325 -74 254.5 -131.5 c 128,-1,35
 184 -189 184 -189 102 -189 c 0,0,1
EndSplineSet
Validated: 33
Substitution2: "'tnum' Tabular Numbers lookup 7 subtable" five.taboldstyle
Substitution2: "'lnum' Lining Figures lookup 5 subtable" five.lnum
EndChar

StartChar: four
Encoding: 52 52 79
Width: 492
VWidth: 0
Flags: W
HStem: -181 21G<289 296.5> 43 61<116 259.185> 50 54<117.124 278 351.055 457.611>
VStem: 278 73<-162.906 49.9258 104.076 282.13>
LayerCount: 2
Fore
SplineSet
266 104 m 2,0,1
 278 104 278 104 278 112 c 2,2,3
 278 281 l 2,4,5
 278 283 278 283 274 283.5 c 128,-1,6
 270 284 270 284 268 282 c 0,7,8
 201 212 201 212 116 113 c 0,9,10
 114 111 114 111 113.5 107.5 c 128,-1,11
 113 104 113 104 116 104 c 2,12,-1
 266 104 l 2,0,1
25 56 m 0,13,14
 45 81 45 81 69 108 c 0,15,16
 102 144 102 144 143.5 190 c 128,-1,17
 185 236 185 236 228 282 c 0,18,19
 241 296 241 296 271 331 c 128,-1,20
 301 366 301 366 311 377 c 0,21,22
 316 383 316 383 325.5 395 c 128,-1,23
 335 407 335 407 341 414 c 128,-1,24
 347 421 347 421 350 421 c 0,25,26
 354 422 354 422 354.5 419 c 128,-1,27
 355 416 355 416 354.312622514 412.709182264 c 0,28,29
 354 410 354 410 354 409 c 0,30,31
 354 353 354 353 352 261 c 128,-1,32
 350 169 350 169 350 109 c 0,33,34
 350 103 350 103 355 103 c 0,35,36
 398 101 398 101 454 104 c 0,37,38
 459 104 459 104 462.5 101.5 c 128,-1,39
 466 99 466 99 465 95 c 0,40,41
 462 81 462 81 455.5 67 c 128,-1,42
 449 53 449 53 444 53 c 0,43,44
 370 53 370 53 364 52 c 0,45,46
 351 49 351 49 351 46 c 2,47,-1
 351 -133 l 2,48,49
 351 -149 351 -149 326.5 -165 c 128,-1,50
 302 -181 302 -181 293 -181 c 0,51,52
 278 -181 278 -181 278 -168 c 2,53,-1
 278 41 l 2,54,55
 278 45 278 45 271.5 47.5 c 128,-1,56
 265 50 265 50 263 50 c 0,57,58
 222 50 222 50 154.5 47 c 128,-1,59
 87 44 87 44 34 43 c 0,60,61
 30 43 30 43 26.5 48 c 128,-1,62
 23 53 23 53 25 56 c 0,13,14
EndSplineSet
Validated: 33
Substitution2: "'tnum' Tabular Numbers lookup 7 subtable" four.taboldstyle
Substitution2: "'lnum' Lining Figures lookup 5 subtable" four.lnum
EndChar

StartChar: seven
Encoding: 55 55 80
Width: 460
VWidth: 0
Flags: W
HStem: 281 21G<24.5 33.5> 326 76<55.9462 340.016>
VStem: 28 27<288.119 315.084>
LayerCount: 2
Fore
SplineSet
344 313 m 0,0,1
 347 317 347 317 345.5 319.5 c 128,-1,2
 344 322 344 322 334 323 c 0,3,4
 217 326 217 326 128 326 c 0,5,6
 127 326 127 326 120 326 c 128,-1,7
 113 326 113 326 110.5 326 c 128,-1,8
 108 326 108 326 101 325.5 c 128,-1,9
 94 325 94 325 91 324 c 128,-1,10
 88 323 88 323 82 321.5 c 128,-1,11
 76 320 76 320 72 317.5 c 128,-1,12
 68 315 68 315 63.5 311.5 c 128,-1,13
 59 308 59 308 55 303 c 0,14,15
 37 281 37 281 29 281 c 128,-1,16
 21 281 21 281 28 311 c 0,17,18
 40 361 40 361 40 395 c 0,19,20
 40 406 40 406 50 406 c 0,21,22
 51 406 51 406 61.5 405 c 128,-1,23
 72 404 72 404 87 403 c 128,-1,24
 102 402 102 402 113 402 c 0,25,26
 182 400 182 400 294 401.5 c 128,-1,27
 406 403 406 403 426 407 c 0,28,29
 429 407 429 407 431.5 401 c 128,-1,30
 434 395 434 395 433 392 c 0,31,32
 423 372 423 372 395 323 c 0,33,34
 363 268 363 268 265.5 97 c 128,-1,35
 168 -74 168 -74 115 -166 c 0,36,37
 100 -193 100 -193 96 -193 c 0,38,39
 85 -193 85 -193 76.5 -185.5 c 128,-1,40
 68 -178 68 -178 68 -167 c 0,41,42
 68 -163 68 -163 89 -126 c 0,43,44
 141 -35 141 -35 234 124 c 128,-1,45
 327 283 327 283 344 313 c 0,0,1
EndSplineSet
Validated: 33
Substitution2: "'tnum' Tabular Numbers lookup 7 subtable" seven.taboldstyle
Substitution2: "'lnum' Lining Figures lookup 5 subtable" seven.lnum
EndChar

StartChar: six
Encoding: 54 54 81
Width: 466
VWidth: 0
Flags: W
HStem: -14 36<206.622 320.425> 260 53<235.267 327.904>
VStem: 41 83<99.2326 318.606> 370 69<91.8832 215.642>
LayerCount: 2
Fore
SplineSet
232 -14 m 0,0,1
 138 -14 138 -14 90 41.5 c 128,-1,2
 42 97 42 97 41 190 c 0,3,4
 40 341 40 341 156 477 c 0,5,6
 198 525 198 525 270 571 c 128,-1,7
 342 617 342 617 427 639 c 0,8,9
 433 640 433 640 438 638.5 c 128,-1,10
 443 637 443 637 441 634 c 0,11,12
 435 623 435 623 415 614 c 0,13,14
 284 557 284 557 213 456 c 0,15,16
 124 328 124 328 124 190 c 0,17,18
 124 121 124 121 158 79 c 0,19,20
 174 59 174 59 203 40.5 c 128,-1,21
 232 22 232 22 261 22 c 0,22,23
 301 22 301 22 327 43 c 0,24,25
 370 76 370 76 370 142 c 0,26,27
 370 189 370 189 342.5 224.5 c 128,-1,28
 315 260 315 260 276 260 c 0,29,30
 244 260 244 260 222 254 c 0,31,32
 206 250 206 250 196 245 c 0,33,34
 187 241 187 241 185 245.5 c 128,-1,35
 183 250 183 250 189 256 c 0,36,37
 201 269 201 269 216 280 c 0,38,39
 230 291 230 291 259.5 302 c 128,-1,40
 289 313 289 313 314 313 c 0,41,42
 366 313 366 313 402.5 278 c 128,-1,43
 439 243 439 243 439 190 c 0,44,45
 439 105 439 105 385 45.5 c 128,-1,46
 331 -14 331 -14 232 -14 c 0,0,1
EndSplineSet
Validated: 33
Substitution2: "'tnum' Tabular Numbers lookup 7 subtable" six.taboldstyle
Substitution2: "'lnum' Lining Figures lookup 5 subtable" six.lnum
EndChar

StartChar: nine
Encoding: 57 57 82
Width: 466
VWidth: 0
Flags: W
HStem: -186 18<41.9316 75.6465> 89 53<168.428 255.987> 378 36<172.378 277.51>
VStem: 53 69<192.647 300.858> 346 80<102.36 310.427>
LayerCount: 2
Fore
SplineSet
251 414 m 0,0,1
 324 414 324 414 375 356 c 128,-1,2
 426 298 426 298 426 210 c 0,3,4
 426 77 426 77 300 -47 c 0,5,6
 256 -90 256 -90 180 -134.5 c 128,-1,7
 104 -179 104 -179 55 -186 c 0,8,9
 41 -188 41 -188 41 -181 c 0,10,11
 41 -172 41 -172 55 -168 c 0,12,13
 97 -155 97 -155 167 -99 c 128,-1,14
 237 -43 237 -43 270 0 c 0,15,16
 346 101 346 101 346 227 c 0,17,18
 346 290 346 290 309 334 c 128,-1,19
 272 378 272 378 218 378 c 0,20,21
 173 378 173 378 147.5 343.5 c 128,-1,22
 122 309 122 309 122 267 c 0,23,24
 122 220 122 220 151.5 181 c 128,-1,25
 181 142 181 142 220 142 c 0,26,27
 248 142 248 142 268 151 c 0,28,29
 275 154 275 154 286 160 c 128,-1,30
 297 166 297 166 300 168 c 1,31,32
 304 169 304 169 306.5 164.5 c 128,-1,33
 309 160 309 160 307 157 c 0,34,35
 297 139 297 139 274 122 c 0,36,37
 229 89 229 89 182 89 c 0,38,39
 129 89 129 89 91 125.5 c 128,-1,40
 53 162 53 162 53 215 c 0,41,42
 53 289 53 289 109 351.5 c 128,-1,43
 165 414 165 414 251 414 c 0,0,1
EndSplineSet
Validated: 1
Substitution2: "'tnum' Tabular Numbers lookup 7 subtable" nine.taboldstyle
Substitution2: "'lnum' Lining Figures lookup 5 subtable" nine.lnum
EndChar

StartChar: zero
Encoding: 48 48 83
Width: 507
VWidth: 0
Flags: W
HStem: -15 41<189.1 322.003> 372 41<190.132 321.15>
VStem: 40 78<110.108 295.744> 389 78<109.707 293.68>
LayerCount: 2
Fore
SplineSet
259 372 m 0,0,1
 198 372 198 372 158 324.5 c 128,-1,2
 118 277 118 277 118 204 c 0,3,4
 118 135 118 135 153.5 80.5 c 128,-1,5
 189 26 189 26 247 26 c 0,6,7
 312 26 312 26 350.5 69.5 c 128,-1,8
 389 113 389 113 389 203 c 0,9,10
 389 270 389 270 354 321 c 128,-1,11
 319 372 319 372 259 372 c 0,0,1
253 413 m 152,-1,13
 341 413 341 413 404 351.5 c 128,-1,14
 467 290 467 290 467 203 c 0,15,16
 467 113 467 113 404.5 49 c 128,-1,17
 342 -15 342 -15 253 -15 c 128,-1,18
 164 -15 164 -15 102 49.5 c 128,-1,19
 40 114 40 114 40 204 c 0,20,21
 40 291 40 291 102.5 352 c 128,-1,12
 165 413 165 413 253 413 c 152,-1,13
EndSplineSet
Validated: 33
Substitution2: "'tnum' Tabular Numbers lookup 7 subtable" zero.taboldstyle
Substitution2: "'lnum' Lining Figures lookup 5 subtable" zero.lnum
EndChar

StartChar: three
Encoding: 51 51 84
Width: 372
VWidth: 0
Flags: W
HStem: -190 44<61.3664 154.993> 358 55.0121<112.537 203.184>
VStem: 219 70<235.612 342.668> 243 76<-41.8585 84.5313>
LayerCount: 2
Fore
SplineSet
319 53 m 0,0,1
 319 -88 319 -88 155 -169 c 0,2,3
 113 -190 113 -190 86 -190 c 0,4,5
 77 -190 77 -190 68 -185.5 c 128,-1,6
 59 -181 59 -181 59 -176 c 0,7,8
 59 -168 59 -168 68 -157 c 128,-1,9
 77 -146 77 -146 86 -146 c 0,10,11
 134 -146 134 -146 153 -136 c 0,12,13
 198 -112 198 -112 220.5 -80.5 c 128,-1,14
 243 -49 243 -49 243 17 c 0,15,16
 243 38 243 38 237.5 57 c 128,-1,17
 232 76 232 76 211.5 94 c 128,-1,18
 191 112 191 112 157 112 c 0,19,20
 130 112 130 112 95 92 c 0,21,22
 90 89 90 89 83.5 92.5 c 128,-1,23
 77 96 77 96 78 101 c 0,24,25
 85 121 85 121 109 135 c 0,26,27
 147 158 147 158 179 186 c 0,28,29
 219 222 219 222 219 292 c 0,30,31
 219 321 219 321 201.5 339.5 c 128,-1,32
 184 358 184 358 155 358 c 0,33,34
 144 358 144 358 134 355.5 c 128,-1,35
 124 353 124 353 117 351 c 128,-1,36
 110 349 110 349 100.5 342.5 c 128,-1,37
 91 336 91 336 87 332.5 c 128,-1,38
 83 329 83 329 72 320 c 128,-1,39
 61 311 61 311 58 308 c 0,40,41
 48 300 48 300 46 301 c 0,42,43
 33 305 33 305 38 315 c 0,44,45
 45.9401451146 330.086275718 45.9401451146 330.086275718 59.8863517572 346.374279742 c 128,-1,46
 73.8325583997 362.662283767 73.8325583997 362.662283767 92.3292007369 377.981869522 c 128,-1,47
 110.825843074 393.301455277 110.825843074 393.301455277 134.511804603 403.156798503 c 128,-1,48
 158.197766133 413.012141729 158.197766133 413.012141729 181.395697865 413.012141729 c 0,49,50
 182.197141328 413.012141729 182.197141328 413.012141729 183 413 c 0,51,52
 231 412 231 412 260 384 c 128,-1,53
 289 356 289 356 289 309 c 0,54,55
 289 276 289 276 268 236.5 c 128,-1,56
 247 197 247 197 195 167 c 0,57,58
 189.919941283 163.110433604 189.919941283 163.110433604 196 161 c 1,59,60
 259 160 259 160 289 126.5 c 128,-1,61
 319 93 319 93 319 53 c 0,0,1
EndSplineSet
Validated: 1
Substitution2: "'tnum' Tabular Numbers lookup 7 subtable" three.taboldstyle
Substitution2: "'lnum' Lining Figures lookup 5 subtable" three.lnum
EndChar

StartChar: eight
Encoding: 56 56 85
Width: 452
VWidth: 0
Flags: W
HStem: -13 37<182.29 294.073> 565 24<188.041 275.712>
VStem: 61 70<73.3158 201.713> 72 70<418.737 526.356> 319 70<401.999 529.481> 333 70<78.5432 179.326>
LayerCount: 2
Fore
SplineSet
265 340 m 0,0,1
 319 384 319 384 319 472 c 0,2,3
 319 508 319 508 295 536.5 c 128,-1,4
 271 565 271 565 237 565 c 0,5,6
 200 565 200 565 171 542 c 128,-1,7
 142 519 142 519 142 486 c 0,8,9
 142 465 142 465 146 449.5 c 128,-1,10
 150 434 150 434 163.5 418 c 128,-1,11
 177 402 177 402 184.5 394.5 c 128,-1,12
 192 387 192 387 217.5 367.5 c 128,-1,13
 243 348 243 348 253 340 c 0,14,15
 259 335.5 259 335.5 265 340 c 0,0,1
286 315 m 0,16,17
 347 275 347 275 375 242 c 128,-1,18
 403 209 403 209 403 157 c 0,19,20
 403 86 403 86 348 36.5 c 128,-1,21
 293 -13 293 -13 222 -13 c 0,22,23
 157 -13 157 -13 109 28.5 c 128,-1,24
 61 70 61 70 61 132 c 0,25,26
 61 161 61 161 72 185.5 c 128,-1,27
 83 210 83 210 105 229 c 128,-1,28
 127 248 127 248 142.5 258.5 c 128,-1,29
 158 269 158 269 183 282 c 1,30,31
 189 287 189 287 188 288.5 c 128,-1,32
 187 290 187 290 180 295 c 0,33,34
 145 324 145 324 125.5 344 c 128,-1,35
 106 364 106 364 89 397 c 128,-1,36
 72 430 72 430 72 467 c 0,37,38
 72 521 72 521 124 555 c 128,-1,39
 176 589 176 589 242 589 c 0,40,41
 300 589 300 589 344.5 554 c 128,-1,42
 389 519 389 519 389 465 c 0,43,44
 389 415 389 415 341 374 c 0,45,46
 325 360 325 360 291 335 c 0,47,48
 279 326 279 326 278.5 323 c 128,-1,49
 278 320 278 320 286 315 c 0,16,17
197 261 m 1,50,51
 172 241 172 241 161 229.5 c 128,-1,52
 150 218 150 218 140.5 197 c 128,-1,53
 131 176 131 176 131 147 c 0,54,55
 131 98 131 98 160.5 61 c 128,-1,56
 190 24 190 24 236 24 c 0,57,58
 278 24 278 24 305.5 51 c 128,-1,59
 333 78 333 78 333 118 c 0,60,61
 333 184 333 184 223 259 c 0,62,63
 213 266 213 266 210 266.5 c 128,-1,64
 207 267 207 267 197 261 c 1,50,51
EndSplineSet
Validated: 1
Substitution2: "'tnum' Tabular Numbers lookup 7 subtable" eight.taboldstyle
Substitution2: "'lnum' Lining Figures lookup 5 subtable" eight.lnum
EndChar

StartChar: question
Encoding: 63 63 86
Width: 355
VWidth: 0
Flags: W
HStem: -14 120<101.745 194.255> 569 92<78.9815 178.059>
VStem: 88 120<-0.254639 92.2546> 112 37<182.071 270.23> 258 51<415.721 503.256>
LayerCount: 2
Fore
SplineSet
148 106 m 152,-1,1
 173 106 173 106 190.5 88.5 c 128,-1,2
 208 71 208 71 208 46 c 128,-1,3
 208 21 208 21 190.5 3.5 c 128,-1,4
 173 -14 173 -14 148 -14 c 128,-1,5
 123 -14 123 -14 105.5 3.5 c 128,-1,6
 88 21 88 21 88 46 c 128,-1,7
 88 71 88 71 105.5 88.5 c 128,-1,0
 123 106 123 106 148 106 c 152,-1,1
108 661 m 0,8,9
 166 661 166 661 216 611 c 0,10,11
 257 570 257 570 283 514 c 128,-1,12
 309 458 309 458 309 418 c 0,13,14
 309 357 309 357 267 334 c 0,15,16
 218 307 218 307 181 283 c 0,17,18
 151 264 151 264 149 204 c 0,19,20
 149 181 149 181 134 181 c 0,21,22
 129 181 129 181 122 189.5 c 128,-1,23
 115 198 115 198 112 210 c 0,24,25
 99 261 99 261 96 293 c 0,26,27
 94 318 94 318 118 338.5 c 128,-1,28
 142 359 142 359 197 387 c 0,29,30
 221 399 221 399 239.5 418.5 c 128,-1,31
 258 438 258 438 258 458 c 0,32,33
 258 509 258 509 232 540.5 c 128,-1,34
 206 572 206 572 157 573 c 0,35,36
 148 573 148 573 133.5 571 c 128,-1,37
 119 569 119 569 110 569 c 0,38,39
 94 569 94 569 81 587 c 128,-1,40
 68 605 68 605 68 625 c 0,41,42
 68 639 68 639 81.5 650 c 128,-1,43
 95 661 95 661 108 661 c 0,8,9
EndSplineSet
Validated: 33
EndChar

StartChar: grave
Encoding: 96 96 87
Width: 279
VWidth: 0
Flags: W
HStem: 449 215
VStem: 40 178
LayerCount: 2
Fore
SplineSet
178 471 m 4,0,1
 144 518 144 518 108.5 556.5 c 128,-1,2
 73 595 73 595 56.5 611.5 c 128,-1,3
 40 628 40 628 40 636 c 0,4,5
 40 646 40 646 50.5 655 c 128,-1,6
 61 664 61 664 74 664 c 0,7,8
 108 664 108 664 125 637 c 0,9,10
 147 601 147 601 182.5 536.5 c 128,-1,11
 218 472 218 472 218 462 c 0,12,13
 218 449 218 449 205 449 c 0,14,15
 194 449 194 449 178 471 c 4,0,1
EndSplineSet
Validated: 33
Substitution2: "'case' Case-Sensitive Forms lookup 12 subtable" grave.cap
EndChar

StartChar: acute
Encoding: 180 180 88
Width: 382
VWidth: 0
Flags: W
HStem: 449 215
VStem: 143 178
LayerCount: 2
Fore
SplineSet
183 471 m 4,0,1
 167 449 167 449 156 449 c 0,2,3
 143 449 143 449 143 462 c 0,4,5
 143 472 143 472 178.5 536.5 c 128,-1,6
 214 601 214 601 236 637 c 0,7,8
 253 664 253 664 287 664 c 0,9,10
 300 664 300 664 310.5 655 c 128,-1,11
 321 646 321 646 321 636 c 0,12,13
 321 628 321 628 304.5 611.5 c 128,-1,14
 288 595 288 595 252.5 556.5 c 128,-1,15
 217 518 217 518 183 471 c 4,0,1
EndSplineSet
Validated: 33
Substitution2: "'case' Case-Sensitive Forms lookup 12 subtable" acute.cap
EndChar

StartChar: asciicircum
Encoding: 94 94 89
Width: 500
VWidth: 0
Flags: W
HStem: 284 319
LayerCount: 2
Fore
SplineSet
250 603 m 1,0,1
 397 394 397 394 449 305 c 0,2,3
 454 297 454 297 451 289.5 c 128,-1,4
 448 282 448 282 441 284 c 0,5,6
 414 291 414 291 404 302 c 0,7,8
 392 316 392 316 369 347 c 128,-1,9
 346 378 346 378 328 404.5 c 128,-1,10
 310 431 310 431 284 469.5 c 128,-1,11
 258 508 258 508 254 514 c 0,12,13
 248 521 248 521 244 514 c 0,14,15
 110 318 110 318 96 302 c 1,16,17
 84 290 84 290 59 284 c 0,18,19
 52 282 52 282 49 289.5 c 128,-1,20
 46 297 46 297 51 305 c 0,21,22
 76 348 76 348 149 456 c 128,-1,23
 222 564 222 564 250 603 c 1,0,1
EndSplineSet
Validated: 1
EndChar

StartChar: circumflex
Encoding: 710 710 90
Width: 0
VWidth: 0
Flags: W
HStem: 447 201
VStem: -273 212
LayerCount: 2
Fore
SplineSet
-237 465 m 6,0,1
 -250 447 -250 447 -265 447 c 0,2,3
 -271 447 -271 447 -274 453 c 128,-1,4
 -277 459 -277 459 -273 468 c 0,5,6
 -216 582 -216 582 -195 619 c 0,7,8
 -178 648 -178 648 -167 648 c 128,-1,9
 -156 648 -156 648 -139 619 c 1,10,11
 -61 468 l 2,12,13
 -57 459 -57 459 -60 453 c 128,-1,14
 -63 447 -63 447 -69 447 c 0,15,16
 -85 447 -85 447 -98 465 c 0,17,18
 -138 520 -138 520 -167 561 c 1,19,-1
 -237 465 l 6,0,1
EndSplineSet
Validated: 1
Substitution2: "'case' Case-Sensitive Forms lookup 12 subtable" circumflex.cap
EndChar

StartChar: uni0302
Encoding: 770 770 91
Width: 336
VWidth: 0
Flags: W
HStem: 449 224
VStem: 29 280
LayerCount: 2
Fore
SplineSet
172 577 m 0,0,1
 168 582 168 582 163 577 c 0,2,3
 123 531 123 531 65 467 c 1,4,5
 50 452 50 452 37 449 c 0,6,7
 30 447 30 447 27 454.5 c 128,-1,8
 24 462 24 462 29 470 c 0,9,10
 48 502 48 502 124 625 c 0,11,12
 153 673 153 673 169 673 c 128,-1,13
 185 673 185 673 214 625 c 0,14,15
 281 518 281 518 309 470 c 0,16,17
 314 462 314 462 311 454.5 c 128,-1,18
 308 447 308 447 301 449 c 0,19,20
 285 453 285 453 273 467 c 0,21,22
 196 551 196 551 172 577 c 0,0,1
EndSplineSet
Validated: 1
EndChar

StartChar: uni030C
Encoding: 780 780 92
Width: 336
VWidth: 0
Flags: W
HStem: 443 224
VStem: 29 280
LayerCount: 2
Fore
SplineSet
172 539 m 1,0,1
 194 562 194 562 228.5 600 c 128,-1,2
 263 638 263 638 273 649 c 0,3,4
 285 663 285 663 301 667 c 0,5,6
 308 669 308 669 311 661.5 c 128,-1,7
 314 654 314 654 309 646 c 0,8,9
 281 598 281 598 214 491 c 0,10,11
 185 443 185 443 169 443 c 128,-1,12
 153 443 153 443 124 491 c 0,13,14
 48 614 48 614 29 646 c 0,15,16
 24 654 24 654 27 661.5 c 128,-1,17
 30 669 30 669 37 667 c 0,18,19
 50 664 50 664 65 649 c 1,20,21
 123 585 123 585 163 539 c 0,22,23
 164.625038509 537.374961491 164.625038509 537.374961491 165.744047236 534.853741278 c 0,24,25
 166.604651163 532.914728682 166.604651163 532.914728682 170.971424358 537.840813919 c 2,26,-1
 172 539 l 1,0,1
EndSplineSet
Validated: 1
EndChar

StartChar: acircumflex
Encoding: 226 226 93
Width: 555
VWidth: 0
Flags: W
HStem: -3 24<31.5651 66.5452 181.336 213.993 321.865 351.645 498.689 530.895> 139 27<199.095 337.967> 443 20G<311 314> 502 201
VStem: 182 212
LayerCount: 2
Fore
SplineSet
270 337 m 4
 249 285 249 285 199 176 c 0
 196 170 196 170 199 168 c 0
 202 166 202 166 212 166 c 2
 329 166 l 2
 337 166 337 166 338 167 c 0
 339 168 339 168 337 176 c 0
 331 198 331 198 282 337 c 0
 279 345 279 345 277.5 347 c 0
 276 349 276 349 274.5 347 c 0
 273 345 273 345 270 337 c 4
37 -3 m 4
 31 -3 31 -3 31.5 8 c 0
 32 19 32 19 37 21 c 0
 73 33 73 33 94 50 c 0
 112 64 112 64 125 92 c 0
 170 187 170 187 241 360 c 1
 245 373 245 373 248 386 c 0
 249 391 249 391 250 399 c 0
 251 407 251 407 252 412.5 c 2
 253 418 l 1
 259 419 259 419 276 431 c 0
 293 443 293 443 298 449 c 0
 310 463 310 463 312 463 c 0
 316 463 316 463 319 454 c 0
 339 400 339 400 378.5 288 c 0
 418 176 418 176 444 107 c 0
 455 75 455 75 479 50 c 0
 501 26 501 26 524 21 c 0
 530 19 530 19 531 8 c 0
 532 -3 532 -3 524 -3 c 0
 505 -3 505 -3 476 -0.5 c 0
 447 2 447 2 428 2 c 0
 407 2 407 2 373.5 -0.5 c 0
 340 -3 340 -3 324 -3 c 0
 320 -3 320 -3 319 3 c 0
 318 9 318 9 320 15 c 0
 322 21 322 21 325 21 c 0
 351 26 351 26 365 48 c 0
 373 62 373 62 367 89 c 0
 365 100 365 100 353 132 c 0
 351 139 351 139 334 139 c 2
 192 139 l 2
 185 139 185 139 180 127 c 0
 165 87 165 87 164 84 c 0
 159 61 159 61 165 51 c 0
 180 27 180 27 207 21 c 0
 214 20 214 20 214 8.5 c 0
 214 -3 214 -3 207 -3 c 0
 187 -3 187 -3 157 -0.5 c 0
 127 2 127 2 108 2 c 0
 94 2 94 2 72 -0.5 c 0
 50 -3 50 -3 37 -3 c 4
EndSplineSet
Refer: 90 710 S 1 0 0 1 455 55 2
EndChar

StartChar: hyphen
Encoding: 45 45 94
Width: 274
VWidth: 0
Flags: W
HStem: 170 85
VStem: 29 216
LayerCount: 2
Fore
SplineSet
39 170 m 0,0,1
 29 169 29 169 29 176 c 0,2,3
 34 229 34 229 45 230 c 0,4,5
 173 248 173 248 237 255 c 0,6,7
 245 255 245 255 245 249 c 0,8,9
 241 197 241 197 224 195 c 0,10,11
 107 177 107 177 39 170 c 0,0,1
EndSplineSet
Validated: 1
EndChar

StartChar: numbersign
Encoding: 35 35 95
Width: 468
VWidth: 0
Flags: W
HStem: 204 60<21.8772 94 149 191> 214 60<206 248 303 368.945> 402 60<68.8772 142 198 239.5> 412 60<254.5 296 352 415.945> 630 20G<225 235.5 380 390.5>
LayerCount: 2
Fore
SplineSet
134 206 m 1,0,-1
 90 27 l 2,1,2
 87 12 87 12 60 12 c 0,3,4
 55 12 55 12 51.5 17 c 128,-1,5
 48 22 48 22 50 27 c 2,6,-1
 94 204 l 1,7,-1
 31 201 l 2,8,9
 26 201 26 201 21.5 204.5 c 128,-1,10
 17 208 17 208 17 213 c 0,11,12
 17 220 17 220 18.5 229.5 c 128,-1,13
 20 239 20 239 26 250 c 128,-1,14
 32 261 32 261 41 261 c 2,15,-1
 108 264 l 1,16,-1
 142 402 l 1,17,-1
 78 399 l 2,18,19
 73 399 73 399 68.5 402.5 c 128,-1,20
 64 406 64 406 64 411 c 0,21,22
 64 418 64 418 65.5 427.5 c 128,-1,23
 67 437 67 437 73 448 c 128,-1,24
 79 459 79 459 88 459 c 2,25,-1
 157 462 l 1,26,-1
 199 633 l 2,27,28
 203 650 203 650 232 650 c 0,29,30
 237 650 237 650 239 644.5 c 128,-1,31
 241 639 241 639 239 633 c 2,32,-1
 198 464 l 1,33,-1
 311 470 l 1,34,-1
 354 644 l 2,35,36
 358 661 358 661 387 661 c 0,37,38
 392 661 392 661 394 655.5 c 128,-1,39
 396 650 396 650 394 644 c 2,40,-1
 352 472 l 1,41,-1
 411 475 l 2,42,43
 416 475 416 475 420.5 470.5 c 128,-1,44
 425 466 425 466 424 461 c 0,45,46
 423 459 423 459 421 451 c 128,-1,47
 419 443 419 443 418 440 c 128,-1,48
 417 437 417 437 414.5 431 c 128,-1,49
 412 425 412 425 409.5 422.5 c 128,-1,50
 407 420 407 420 402.5 417.5 c 128,-1,51
 398 415 398 415 393 415 c 2,52,-1
 337 412 l 1,53,-1
 303 274 l 1,54,-1
 364 277 l 2,55,56
 370 277 370 277 374 272.5 c 128,-1,57
 378 268 378 268 377 263 c 0,58,59
 376 261 376 261 374 253 c 128,-1,60
 372 245 372 245 371 242 c 128,-1,61
 370 239 370 239 367.5 233 c 128,-1,62
 365 227 365 227 362.5 224.5 c 128,-1,63
 360 222 360 222 355.5 219.5 c 128,-1,64
 351 217 351 217 346 217 c 2,65,-1
 288 214 l 1,66,-1
 245 38 l 2,67,68
 242 23 242 23 215 23 c 0,69,70
 210 23 210 23 206.5 28 c 128,-1,71
 203 33 203 33 205 38 c 2,72,-1
 248 212 l 1,73,-1
 134 206 l 1,0,-1
149 266 m 1,74,-1
 263 272 l 1,75,-1
 296 410 l 1,76,-1
 183 404 l 1,77,-1
 149 266 l 1,74,-1
EndSplineSet
Validated: 1
EndChar

StartChar: slash
Encoding: 47 47 96
Width: 399
VWidth: 0
Flags: W
LayerCount: 2
Fore
SplineSet
30 -47 m 26,0,-1
 327 648 l 2,1,2
 335 665 335 665 366 665 c 0,3,4
 372 665 372 665 376.5 659.5 c 128,-1,5
 381 654 381 654 379 648 c 2,6,-1
 82 -47 l 2,7,8
 76 -62 76 -62 46 -62 c 0,9,10
 39 -62 39 -62 33.5 -57.5 c 128,-1,11
 28 -53 28 -53 30 -47 c 26,0,-1
EndSplineSet
Validated: 1
EndChar

StartChar: backslash
Encoding: 92 92 97
Width: 399
VWidth: 0
Flags: W
LayerCount: 2
Fore
SplineSet
378 -47 m 26,0,1
 380 -53 380 -53 374.5 -57.5 c 128,-1,2
 369 -62 369 -62 362 -62 c 0,3,4
 332 -62 332 -62 326 -47 c 2,5,-1
 29 648 l 2,6,7
 27 654 27 654 31.5 659.5 c 128,-1,8
 36 665 36 665 42 665 c 0,9,10
 73 665 73 665 81 648 c 2,11,-1
 378 -47 l 26,0,1
EndSplineSet
Validated: 1
EndChar

StartChar: dollar
Encoding: 36 36 98
Width: 458
VWidth: 0
Flags: W
HStem: -19 35<235.406 305.206>
VStem: 83 77<460.381 567.593> 352 90<82.9904 207.621> 394 36<493.342 558.672>
LayerCount: 2
Fore
SplineSet
264 270 m 2,0,-1
 234 26 l 2,1,2
 233 16 233 16 242 16 c 0,3,4
 300 20 300 20 326 49.5 c 128,-1,5
 352 79 352 79 352 148 c 0,6,7
 352 181 352 181 323 219.5 c 128,-1,8
 294 258 294 258 268 275 c 0,9,10
 266 276 266 276 265.5 275.5 c 128,-1,11
 265 275 265 275 264 270 c 2,0,-1
292 367 m 0,12,13
 294 365 294 365 312.5 352.5 c 128,-1,14
 331 340 331 340 337.5 335 c 128,-1,15
 344 330 344 330 361.5 316 c 128,-1,16
 379 302 379 302 387 293 c 128,-1,17
 395 284 395 284 407.5 268.5 c 128,-1,18
 420 253 420 253 426 239.5 c 128,-1,19
 432 226 432 226 437 208 c 128,-1,20
 442 190 442 190 442 171 c 0,21,22
 442 100 442 100 390 40.5 c 128,-1,23
 338 -19 338 -19 236 -19 c 0,24,25
 228 -19 228 -19 227 -25 c 2,26,-1
 218 -101 l 2,27,28
 216 -116 216 -116 193 -116 c 0,29,30
 186 -116 186 -116 181 -111.5 c 128,-1,31
 176 -107 176 -107 177 -101 c 2,32,-1
 187 -22 l 2,33,34
 187 -15 187 -15 181 -15 c 1,35,36
 160 -11 160 -11 131.5 -2 c 128,-1,37
 103 7 103 7 98 8 c 128,-1,38
 93 9 93 9 90 10.5 c 128,-1,39
 87 12 87 12 86.5 13 c 128,-1,40
 86 14 86 14 85 16.5 c 128,-1,41
 84 19 84 19 84 20 c 0,42,43
 76 37 76 37 65 84 c 128,-1,44
 54 131 54 131 53 158 c 0,45,46
 53 164 53 164 59 169 c 128,-1,47
 65 174 65 174 73 174 c 0,48,49
 75 174 75 174 88.5 145 c 128,-1,50
 102 116 102 116 127.5 79 c 128,-1,51
 153 42 153 42 185 26 c 0,52,53
 187 25 187 25 190 25.5 c 128,-1,54
 193 26 193 26 193 28 c 2,55,-1
 226 297 l 2,56,57
 226 305 226 305 214 314 c 0,58,59
 152 357 152 357 117.5 399.5 c 128,-1,60
 83 442 83 442 83 497 c 0,61,62
 83 549 83 549 130 601.5 c 128,-1,63
 177 654 177 654 261 659 c 1,64,65
 270 661 270 661 271 665 c 2,66,-1
 275 691 l 2,67,68
 278 708 278 708 304 708 c 0,69,70
 310 708 310 708 314 702.5 c 128,-1,71
 318 697 318 697 317 691 c 2,72,-1
 313 665 l 2,73,74
 312 659 312 659 319 658 c 0,75,76
 333 657 333 657 398 644 c 0,77,78
 412 641 412 641 416 622 c 0,79,80
 430 543 430 543 430 515 c 0,81,82
 430 508 430 508 427 499 c 128,-1,83
 424 490 424 490 420 490 c 0,84,85
 415 490 415 490 406 497.5 c 128,-1,86
 397 505 397 505 394 515 c 0,87,88
 373 593 373 593 312 618 c 0,89,90
 310 619 310 619 308.5 617 c 128,-1,91
 307 615 307 615 307 613 c 2,92,-1
 279 386 l 2,93,94
 278 382 278 382 278 380 c 128,-1,95
 278 378 278 378 278.5 376.5 c 128,-1,96
 279 375 279 375 280.5 374 c 128,-1,97
 282 373 282 373 283 372.5 c 128,-1,98
 284 372 284 372 286.5 370.5 c 128,-1,99
 289 369 289 369 292 367 c 0,12,13
259 627 m 0,100,101
 217 623 217 623 188.5 590 c 128,-1,102
 160 557 160 557 160 517 c 0,103,104
 160 465 160 465 231 411 c 0,105,106
 233 410 233 410 235 409.5 c 128,-1,107
 237 409 237 409 238.5 410 c 128,-1,108
 240 411 240 411 240 413 c 2,109,-1
 266 619 l 1,110,111
 266 627 266 627 259 627 c 0,100,101
EndSplineSet
Validated: 1
EndChar

StartChar: equal
Encoding: 61 61 99
Width: 590
VWidth: 0
Flags: W
HStem: 143 50<53.2358 534.448> 314 50<53.2358 534.448>
LayerCount: 2
Fore
SplineSet
74 193 m 26,0,-1
 527 193 l 2,1,2
 533 193 533 193 537.5 188.5 c 128,-1,3
 542 184 542 184 540 179 c 0,4,5
 536 167 536 167 533.5 161 c 128,-1,6
 531 155 531 155 524.5 149 c 128,-1,7
 518 143 518 143 509 143 c 2,8,-1
 64 143 l 2,9,10
 59 143 59 143 54.5 146.5 c 128,-1,11
 50 150 50 150 50 155 c 0,12,13
 50 165 50 165 56.5 179 c 128,-1,14
 63 193 63 193 74 193 c 26,0,-1
74 364 m 26,15,-1
 527 364 l 2,16,17
 533 364 533 364 537.5 359.5 c 128,-1,18
 542 355 542 355 540 350 c 0,19,20
 536 338 536 338 533.5 332 c 128,-1,21
 531 326 531 326 524.5 320 c 128,-1,22
 518 314 518 314 509 314 c 2,23,-1
 64 314 l 2,24,25
 59 314 59 314 54.5 317.5 c 128,-1,26
 50 321 50 321 50 326 c 0,27,28
 50 336 50 336 56.5 350 c 128,-1,29
 63 364 63 364 74 364 c 26,15,-1
EndSplineSet
Validated: 1
EndChar

StartChar: plus
Encoding: 43 43 100
Width: 590
VWidth: 0
Flags: W
HStem: -8 21G<279 286.5> 222 50<53.2358 270 330 544.448>
VStem: 270 60<-4.15825 222 272.011 475.038>
LayerCount: 2
Fore
SplineSet
330 278 m 6,0,1
 330 273 330 273 330.5 272.5 c 128,-1,2
 331 272 331 272 334 272 c 2,3,-1
 537 272 l 2,4,5
 543 272 543 272 547.5 267.5 c 128,-1,6
 552 263 552 263 550 258 c 0,7,8
 546 246 546 246 543.5 240 c 128,-1,9
 541 234 541 234 534.5 228 c 128,-1,10
 528 222 528 222 519 222 c 2,11,-1
 334 222 l 2,12,13
 330 222 330 222 330 218 c 2,14,-1
 330 16 l 2,15,16
 330 3 330 3 313 -2.5 c 128,-1,17
 296 -8 296 -8 282 -8 c 0,18,19
 277 -8 277 -8 273.5 -3.5 c 128,-1,20
 270 1 270 1 270 6 c 2,21,-1
 270 217 l 2,22,23
 270 222 270 222 266 222 c 2,24,-1
 64 222 l 2,25,26
 59 222 59 222 54.5 225.5 c 128,-1,27
 50 229 50 229 50 234 c 0,28,29
 50 244 50 244 56.5 258 c 128,-1,30
 63 272 63 272 74 272 c 2,31,-1
 263 272 l 2,32,33
 270 272 270 272 270 280 c 2,34,-1
 270 451 l 2,35,36
 270 465 270 465 288 473.5 c 128,-1,37
 306 482 306 482 316 482 c 0,38,39
 330 482 330 482 330 469 c 2,40,-1
 330 278 l 6,0,1
EndSplineSet
Validated: 1
EndChar

StartChar: less
Encoding: 60 60 101
Width: 590
VWidth: 0
Flags: W
LayerCount: 2
Fore
SplineSet
133 229 m 5,0,-1
 513 55 l 2,1,2
 525 49 525 49 531 33.5 c 128,-1,3
 537 18 537 18 537 7 c 0,4,5
 537 2 537 2 532.5 -2.5 c 128,-1,6
 528 -7 528 -7 523 -5 c 2,7,-1
 94 195 l 2,8,9
 53 214 53 214 53 222 c 0,10,11
 53 231 53 231 63 246.5 c 128,-1,12
 73 262 73 262 86 268 c 2,13,-1
 523 468 l 2,14,15
 528 470 528 470 533 464.5 c 128,-1,16
 538 459 538 459 536 454 c 0,17,18
 525 417 525 417 505 408 c 2,19,-1
 132 234 l 2,20,21
 129.376727273 231.802909091 129.376727273 231.802909091 133 229 c 5,0,-1
EndSplineSet
Validated: 1
EndChar

StartChar: greater
Encoding: 62 62 102
Width: 590
VWidth: 0
Flags: W
LayerCount: 2
Fore
SplineSet
457 234 m 5,0,-1
 77 408 l 2,1,2
 65 414 65 414 59 429.5 c 128,-1,3
 53 445 53 445 53 456 c 0,4,5
 53 461 53 461 57.5 465.5 c 128,-1,6
 62 470 62 470 67 468 c 2,7,-1
 496 268 l 2,8,9
 537 249 537 249 537 241 c 0,10,11
 537 232 537 232 527 216.5 c 128,-1,12
 517 201 517 201 504 195 c 2,13,-1
 67 -5 l 2,14,15
 62 -7 62 -7 57 -1.5 c 128,-1,16
 52 4 52 4 54 9 c 0,17,18
 65 46 65 46 85 55 c 2,19,-1
 458 229 l 2,20,21
 460.623272727 231.197090909 460.623272727 231.197090909 457 234 c 5,0,-1
EndSplineSet
Validated: 1
EndChar

StartChar: underscore
Encoding: 95 95 103
Width: 500
VWidth: 0
Flags: W
HStem: -182 50<3.23578 494.448>
LayerCount: 2
Fore
SplineSet
24 -132 m 30,0,-1
 487 -132 l 2,1,2
 493 -132 493 -132 497.5 -136.5 c 128,-1,3
 502 -141 502 -141 500 -146 c 0,4,5
 496 -158 496 -158 493.5 -164 c 128,-1,6
 491 -170 491 -170 484.5 -176 c 128,-1,7
 478 -182 478 -182 469 -182 c 2,8,-1
 14 -182 l 2,9,10
 9 -182 9 -182 4.5 -178.5 c 128,-1,11
 0 -175 0 -175 0 -170 c 0,12,13
 0 -160 0 -160 6.5 -146 c 128,-1,14
 13 -132 13 -132 24 -132 c 30,0,-1
EndSplineSet
Validated: 1
EndChar

StartChar: endash
Encoding: 8211 8211 104
Width: 550
VWidth: 0
Flags: W
HStem: 185 54<53.6248 493.825>
LayerCount: 2
Fore
SplineSet
74 239 m 26,0,-1
 487 239 l 2,1,2
 492 239 492 239 496.5 234.5 c 128,-1,3
 501 230 501 230 500 225 c 0,4,5
 489.492790868 191.727171083 489.492790868 191.727171083 478.207625 186.806109375 c 0,6,7
 474.06578629 185 474.06578629 185 469 185 c 2,8,-1
 64 185 l 2,9,10
 59 185 59 185 54.5 188.5 c 128,-1,11
 50 192 50 192 50 197 c 0,12,13
 50 209 50 209 56 224 c 128,-1,14
 62 239 62 239 74 239 c 26,0,-1
EndSplineSet
Validated: 1
EndChar

StartChar: emdash
Encoding: 8212 8212 105
Width: 950
VWidth: 0
Flags: W
HStem: 185 54<53.6248 893.825>
LayerCount: 2
Fore
SplineSet
74 239 m 26,0,-1
 887 239 l 2,1,2
 892 239 892 239 896.5 234.5 c 128,-1,3
 901 230 901 230 900 225 c 0,4,5
 889.492790868 191.727171083 889.492790868 191.727171083 878.207625 186.806109375 c 0,6,7
 874.06578629 185 874.06578629 185 869 185 c 2,8,-1
 64 185 l 2,9,10
 59 185 59 185 54.5 188.5 c 128,-1,11
 50 192 50 192 50 197 c 0,12,13
 50 209 50 209 56 224 c 128,-1,14
 62 239 62 239 74 239 c 26,0,-1
EndSplineSet
Validated: 1
EndChar

StartChar: bar
Encoding: 124 124 106
Width: 260
VWidth: 0
Flags: W
HStem: -289 21G<109 116.5>
VStem: 100 60<-285.158 700.038>
LayerCount: 2
Fore
SplineSet
100 676 m 10,0,1
 100 690 100 690 118 698.5 c 128,-1,2
 136 707 136 707 146 707 c 0,3,4
 160 707 160 707 160 694 c 2,5,-1
 160 -265 l 2,6,7
 160 -278 160 -278 143 -283.5 c 128,-1,8
 126 -289 126 -289 112 -289 c 0,9,10
 107 -289 107 -289 103.5 -284.5 c 128,-1,11
 100 -280 100 -280 100 -275 c 2,12,-1
 100 676 l 10,0,1
EndSplineSet
Validated: 1
EndChar

StartChar: brokenbar
Encoding: 166 166 107
Width: 260
VWidth: 0
Flags: W
HStem: -290 21G<109 116.5> 276 21G<109 116.5> 685 20G<143 149.5>
VStem: 100 60<-286.158 171.668 282.519 698.038>
LayerCount: 2
Fore
SplineSet
112 276 m 0,0,1
 108 276 108 276 104 283.5 c 128,-1,2
 100 291 100 291 100 299 c 2,3,-1
 100 674 l 2,4,5
 100 688 100 688 118 696.5 c 128,-1,6
 136 705 136 705 146 705 c 0,7,8
 160 705 160 705 160 692 c 2,9,-1
 160 297 l 2,10,11
 160 290 160 290 140.5 283 c 128,-1,12
 121 276 121 276 112 276 c 0,0,1
146 179 m 4,13,14
 151 179 151 179 155.5 172 c 128,-1,15
 160 165 160 165 160 157 c 2,16,-1
 160 -266 l 2,17,18
 160 -279 160 -279 143 -284.5 c 128,-1,19
 126 -290 126 -290 112 -290 c 0,20,21
 107 -290 107 -290 103.5 -285.5 c 128,-1,22
 100 -281 100 -281 100 -276 c 2,23,-1
 100 156 l 2,24,25
 100 163 100 163 119.5 171 c 128,-1,26
 139 179 139 179 146 179 c 4,13,14
EndSplineSet
Validated: 1
EndChar

StartChar: parenleft
Encoding: 40 40 108
Width: 315
VWidth: 0
Flags: W
VStem: 40 60<122.186 412.903>
LayerCount: 2
Fore
SplineSet
40 269 m 0,0,1
 40 386 40 386 96.5 508.5 c 128,-1,2
 153 631 153 631 216 694 c 0,3,4
 224 702 224 702 240 704 c 0,5,6
 253 706 253 706 261 698 c 0,7,8
 270 690 270 690 262 682 c 0,9,10
 200 620 200 620 150 509 c 128,-1,11
 100 398 100 398 100 281 c 0,12,13
 100 159 100 159 152.5 15 c 128,-1,14
 205 -129 205 -129 262 -186 c 0,15,16
 268 -192 268 -192 260 -204 c 0,17,18
 254 -212 254 -212 242 -213 c 0,19,20
 228 -215 228 -215 220 -207 c 0,21,22
 161 -148 161 -148 100.5 1 c 128,-1,23
 40 150 40 150 40 269 c 0,0,1
EndSplineSet
Validated: 1
EndChar

StartChar: parenright
Encoding: 41 41 109
Width: 316
VWidth: 0
Flags: W
HStem: 684 20G<61.5 72>
VStem: 206 60<134.229 415.813>
LayerCount: 2
Fore
SplineSet
266 281 m 0,0,1
 266 162 266 162 204 7 c 128,-1,2
 142 -148 142 -148 83 -207 c 0,3,4
 75 -215 75 -215 61 -213 c 1,5,6
 46 -212 46 -212 39 -202 c 0,7,8
 33 -194 33 -194 41 -186 c 0,9,10
 99 -128 99 -128 152.5 9.5 c 128,-1,11
 206 147 206 147 206 267 c 0,12,13
 206 385 206 385 155.5 503.5 c 128,-1,14
 105 622 105 622 45 682 c 0,15,16
 36 690 36 690 41 695 c 0,17,18
 50 704 50 704 67 704 c 0,19,20
 81 704 81 704 91 694 c 0,21,22
 155 630 155 630 210.5 513.5 c 128,-1,23
 266 397 266 397 266 281 c 0,0,1
EndSplineSet
Validated: 1
EndChar

StartChar: asciitilde
Encoding: 126 126 110
Width: 500
VWidth: 0
Flags: W
HStem: 260 73<254.041 377.762> 308 73<121.948 238.491>
LayerCount: 2
Fore
SplineSet
50 279 m 0,0,1
 68 313 68 313 106 347 c 128,-1,2
 144 381 144 381 175 381 c 0,3,4
 196 381 196 381 249 357 c 128,-1,5
 302 333 302 333 337 333 c 0,6,7
 358 333 358 333 391.5 348.5 c 128,-1,8
 425 364 425 364 437 380 c 0,9,10
 441.680905809 386.553268133 441.680905809 386.553268133 448.32441701 372.604423868 c 0,11,12
 451.728535506 365.457071011 451.728535506 365.457071011 450 362 c 0,13,14
 435 334 435 334 396 297 c 128,-1,15
 357 260 357 260 325 260 c 0,16,17
 302 260 302 260 244 284 c 128,-1,18
 186 308 186 308 158 308 c 0,19,20
 141 308 141 308 109 291.5 c 128,-1,21
 77 275 77 275 65 261 c 0,22,23
 63 259 63 259 58.5 262 c 128,-1,24
 54 265 54 265 51.5 270.5 c 128,-1,25
 49 276 49 276 50 279 c 0,0,1
EndSplineSet
Validated: 1
EndChar

StartChar: tildecomb
Encoding: 771 771 111
Width: 360
VWidth: 0
Flags: W
HStem: 481 73<130.815 271.413> 497 73<90.8845 231.938>
VStem: 50 260
LayerCount: 2
Fore
SplineSet
50 483 m 128,-1,1
 51 486 51 486 56.5 496 c 128,-1,2
 62 506 62 506 64 510 c 128,-1,3
 66 514 66 514 71.5 523 c 128,-1,4
 77 532 77 532 80 535.5 c 128,-1,5
 83 539 83 539 88.5 546 c 128,-1,6
 94 553 94 553 99 556 c 128,-1,7
 104 559 104 559 110 563 c 128,-1,8
 116 567 116 567 123 568.5 c 128,-1,9
 130 570 130 570 137 570 c 0,10,11
 161 570 161 570 190.5 562 c 128,-1,12
 220 554 220 554 240 554 c 0,13,14
 258 554 258 554 270 563 c 128,-1,15
 282 572 282 572 297 591 c 0,16,17
 301.680905809 597.553268133 301.680905809 597.553268133 308.32441701 583.604423868 c 0,18,19
 311.728535506 576.457071011 311.728535506 576.457071011 310 573 c 0,20,21
 309 572 309 572 298.5 549 c 128,-1,22
 288 526 288 526 281.5 515.5 c 128,-1,23
 275 505 275 505 260 493 c 128,-1,24
 245 481 245 481 228 481 c 0,25,26
 205 481 205 481 176.5 489 c 128,-1,27
 148 497 148 497 120 497 c 0,28,29
 93 497 93 497 65 465 c 0,30,31
 63 463 63 463 58.5 466 c 128,-1,32
 54 469 54 469 51.5 474.5 c 128,-1,0
 49 480 49 480 50 483 c 128,-1,1
EndSplineSet
Validated: 1
EndChar

StartChar: periodcentered
Encoding: 183 183 113
Width: 200
VWidth: 0
Flags: W
HStem: 150 110<56.7433 143.257>
VStem: 45 110<161.743 248.257>
LayerCount: 2
Fore
SplineSet
100 260 m 156,-1,1
 123 260 123 260 139 244 c 128,-1,2
 155 228 155 228 155 205 c 128,-1,3
 155 182 155 182 139 166 c 128,-1,4
 123 150 123 150 100 150 c 128,-1,5
 77 150 77 150 61 166 c 128,-1,6
 45 182 45 182 45 205 c 128,-1,7
 45 228 45 228 61 244 c 128,-1,0
 77 260 77 260 100 260 c 156,-1,1
EndSplineSet
Validated: 1
EndChar

StartChar: guillemotright
Encoding: 187 187 116
Width: 676
VWidth: 0
Flags: W
LayerCount: 2
Fore
SplineSet
257 217 m 0,0,1
 227 241 227 241 209 255.5 c 128,-1,2
 191 270 191 270 161 303.5 c 128,-1,3
 131 337 131 337 105 376 c 0,4,5
 95.3044354839 391.235887097 95.3044354839 391.235887097 101.90625 398.640625 c 0,6,7
 103.760125698 400.719972067 103.760125698 400.719972067 107 400 c 0,8,9
 117 398 117 398 135 382 c 0,10,11
 215 305 215 305 361 218 c 0,12,13
 367 214 367 214 361.5 200 c 128,-1,14
 356 186 356 186 346 182 c 0,15,16
 241 134 241 134 141 37 c 1,17,18
 123 21 123 21 113 19 c 0,19,20
 106 17 106 17 103 24.5 c 128,-1,21
 100 32 100 32 105 40 c 0,22,23
 166 133 166 133 257 203 c 0,24,25
 260 205 260 205 261.5 206.5 c 128,-1,26
 263 208 263 208 263 210 c 128,-1,27
 263 212 263 212 261.5 213.5 c 128,-1,28
 260 215 260 215 257 217 c 0,0,1
469 217 m 0,29,30
 439 241 439 241 421 255.5 c 128,-1,31
 403 270 403 270 373 303.5 c 128,-1,32
 343 337 343 337 317 376 c 0,33,34
 307.304435484 391.235887097 307.304435484 391.235887097 313.90625 398.640625 c 0,35,36
 315.760125698 400.719972067 315.760125698 400.719972067 319 400 c 0,37,38
 329 398 329 398 347 382 c 0,39,40
 427 305 427 305 573 218 c 0,41,42
 579 214 579 214 573.5 200 c 128,-1,43
 568 186 568 186 558 182 c 0,44,45
 453 134 453 134 353 37 c 1,46,47
 335 21 335 21 325 19 c 0,48,49
 318 17 318 17 315 24.5 c 128,-1,50
 312 32 312 32 317 40 c 0,51,52
 378 133 378 133 469 203 c 0,53,54
 472 205 472 205 473.5 206.5 c 128,-1,55
 475 208 475 208 475 210 c 128,-1,56
 475 212 475 212 473.5 213.5 c 128,-1,57
 472 215 472 215 469 217 c 0,29,30
EndSplineSet
Validated: 33
EndChar

StartChar: guillemotleft
Encoding: 171 171 117
Width: 676
VWidth: 0
Flags: W
LayerCount: 2
Fore
SplineSet
419 217 m 0,0,1
 416 215 416 215 414.5 213.5 c 128,-1,2
 413 212 413 212 413 210 c 128,-1,3
 413 208 413 208 414.5 206.5 c 128,-1,4
 416 205 416 205 419 203 c 0,5,6
 510 133 510 133 571 40 c 0,7,8
 576 32 576 32 572.5 24.5 c 128,-1,9
 569 17 569 17 563 19 c 0,10,11
 550 22 550 22 535 37 c 0,12,13
 435 134 435 134 330 182 c 0,14,15
 320 186 320 186 314.5 200 c 128,-1,16
 309 214 309 214 315 218 c 0,17,18
 461 305 461 305 541 382 c 0,19,20
 556 397 556 397 569 400 c 0,21,22
 574.400498969 401.350124742 574.400498969 401.350124742 575.492259838 394.058376736 c 0,23,24
 576.825434374 385.154254016 576.825434374 385.154254016 571 376 c 0,25,26
 545 337 545 337 515 303.5 c 128,-1,27
 485 270 485 270 467 255.5 c 128,-1,28
 449 241 449 241 419 217 c 0,0,1
207 217 m 0,29,30
 204 215 204 215 202.5 213.5 c 128,-1,31
 201 212 201 212 201 210 c 128,-1,32
 201 208 201 208 202.5 206.5 c 128,-1,33
 204 205 204 205 207 203 c 0,34,35
 298 133 298 133 359 40 c 0,36,37
 364 32 364 32 360.5 24.5 c 128,-1,38
 357 17 357 17 351 19 c 0,39,40
 338 22 338 22 323 37 c 0,41,42
 223 134 223 134 118 182 c 0,43,44
 108 186 108 186 102.5 200 c 128,-1,45
 97 214 97 214 103 218 c 0,46,47
 249 305 249 305 329 382 c 0,48,49
 344 397 344 397 357 400 c 0,50,51
 362.400498969 401.350124742 362.400498969 401.350124742 363.492259838 394.058376736 c 0,52,53
 364.825434374 385.154254016 364.825434374 385.154254016 359 376 c 0,54,55
 333 337 333 337 303 303.5 c 128,-1,56
 273 270 273 270 255 255.5 c 128,-1,57
 237 241 237 241 207 217 c 0,29,30
EndSplineSet
Validated: 33
EndChar

StartChar: guilsinglright
Encoding: 8250 8250 118
Width: 464
VWidth: 0
Flags: W
LayerCount: 2
Fore
SplineSet
257 217 m 0,0,1
 227 241 227 241 209 255.5 c 128,-1,2
 191 270 191 270 161 303.5 c 128,-1,3
 131 337 131 337 105 376 c 0,4,5
 95.3044354839 391.235887097 95.3044354839 391.235887097 101.90625 398.640625 c 0,6,7
 103.760125698 400.719972067 103.760125698 400.719972067 107 400 c 0,8,9
 117 398 117 398 135 382 c 0,10,11
 215 305 215 305 361 218 c 0,12,13
 367 214 367 214 361.5 200 c 128,-1,14
 356 186 356 186 346 182 c 0,15,16
 241 134 241 134 141 37 c 1,17,18
 123 21 123 21 113 19 c 0,19,20
 106 17 106 17 103 24.5 c 128,-1,21
 100 32 100 32 105 40 c 0,22,23
 166 133 166 133 257 203 c 0,24,25
 260 205 260 205 261.5 206.5 c 128,-1,26
 263 208 263 208 263 210 c 128,-1,27
 263 212 263 212 261.5 213.5 c 128,-1,28
 260 215 260 215 257 217 c 0,0,1
EndSplineSet
Validated: 33
EndChar

StartChar: guilsinglleft
Encoding: 8249 8249 119
Width: 464
VWidth: 0
Flags: W
LayerCount: 2
Fore
SplineSet
207 217 m 0,0,1
 204 215 204 215 202.5 213.5 c 128,-1,2
 201 212 201 212 201 210 c 128,-1,3
 201 208 201 208 202.5 206.5 c 128,-1,4
 204 205 204 205 207 203 c 0,5,6
 298 133 298 133 359 40 c 0,7,8
 364 32 364 32 360.5 24.5 c 128,-1,9
 357 17 357 17 351 19 c 0,10,11
 338 22 338 22 323 37 c 0,12,13
 223 134 223 134 118 182 c 0,14,15
 108 186 108 186 102.5 200 c 128,-1,16
 97 214 97 214 103 218 c 0,17,18
 249 305 249 305 329 382 c 0,19,20
 344 397 344 397 357 400 c 0,21,22
 362.400498969 401.350124742 362.400498969 401.350124742 363.492259838 394.058376736 c 0,23,24
 364.825434374 385.154254016 364.825434374 385.154254016 359 376 c 0,25,26
 333 337 333 337 303 303.5 c 128,-1,27
 273 270 273 270 255 255.5 c 128,-1,28
 237 241 237 241 207 217 c 0,0,1
EndSplineSet
Validated: 33
EndChar

StartChar: uni00AD
Encoding: 173 173 120
Width: 274
VWidth: 0
Flags: W
HStem: 170 85
VStem: 29 216
LayerCount: 2
Fore
SplineSet
39 170 m 0,0,1
 29 169 29 169 29 176 c 0,2,3
 34 229 34 229 45 230 c 0,4,5
 173 248 173 248 237 255 c 0,6,7
 245 255 245 255 245 249 c 0,8,9
 241 197 241 197 224 195 c 0,10,11
 107 177 107 177 39 170 c 0,0,1
EndSplineSet
Validated: 1
EndChar

StartChar: uni0306
Encoding: 774 774 121
Width: 336
VWidth: 0
Flags: W
HStem: 461 55<115.618 222.382>
VStem: 62 32<547.396 600.922> 244 32<548.031 600.922>
LayerCount: 2
Fore
SplineSet
94 580 m 4,0,1
 96 576 96 576 102.5 561.5 c 128,-1,2
 109 547 109 547 114 539 c 128,-1,3
 119 531 119 531 133.5 523.5 c 128,-1,4
 148 516 148 516 169 516 c 128,-1,5
 190 516 190 516 204.5 523.5 c 128,-1,6
 219 531 219 531 224 539 c 128,-1,7
 229 547 229 547 235.5 561.5 c 128,-1,8
 242 576 242 576 244 580 c 0,9,10
 245 581 245 581 248 588.5 c 128,-1,11
 251 596 251 596 253.5 598.5 c 128,-1,12
 256 601 256 601 261 601 c 0,13,14
 276 601 276 601 276 577 c 0,15,16
 276 527 276 527 248 494 c 128,-1,17
 220 461 220 461 169 461 c 0,18,19
 117 461 117 461 89.5 491 c 128,-1,20
 62 521 62 521 62 577 c 0,21,22
 62 601 62 601 77 601 c 0,23,24
 82 601 82 601 84.5 598.5 c 128,-1,25
 87 596 87 596 90 588.5 c 128,-1,26
 93 581 93 581 94 580 c 4,0,1
EndSplineSet
Validated: 1
EndChar

StartChar: uni0307
Encoding: 775 775 122
Width: 238
VWidth: 0
Flags: W
HStem: 513 101<71.1171 153.823>
VStem: 62 101<522.117 604.823>
LayerCount: 2
Fore
SplineSet
62 563 m 0,0,1
 62 585 62 585 76.5 599.5 c 128,-1,2
 91 614 91 614 112 614 c 0,3,4
 134 614 134 614 148.5 599.5 c 128,-1,5
 163 585 163 585 163 563 c 0,6,7
 163 542 163 542 148.5 527.5 c 128,-1,8
 134 513 134 513 112 513 c 0,9,10
 91 513 91 513 76.5 527.5 c 128,-1,11
 62 542 62 542 62 563 c 0,0,1
EndSplineSet
Validated: 1
EndChar

StartChar: uni030A
Encoding: 778 778 123
Width: 238
VWidth: 0
Flags: W
HStem: 480 28<84.4072 145.196> 619 28<76.7413 137.357>
VStem: 28 37<522.59 612.219> 158 38<517.834 603.573>
LayerCount: 2
Fore
SplineSet
115 647 m 128,-1,1
 148 647 148 647 172 624.5 c 128,-1,2
 196 602 196 602 196 569 c 128,-1,3
 196 536 196 536 169 508 c 128,-1,4
 142 480 142 480 109 480 c 128,-1,5
 76 480 76 480 52 505 c 128,-1,6
 28 530 28 530 28 563 c 128,-1,7
 28 596 28 596 55 621.5 c 128,-1,0
 82 647 82 647 115 647 c 128,-1,1
65 568 m 0,8,9
 65 543 65 543 80 525.5 c 128,-1,10
 95 508 95 508 116 508 c 0,11,12
 136 508 136 508 147 524 c 128,-1,13
 158 540 158 540 158 562 c 0,14,15
 158 583 158 583 142.5 601 c 128,-1,16
 127 619 127 619 106 619 c 0,17,18
 86 619 86 619 75.5 604.5 c 128,-1,19
 65 590 65 590 65 568 c 0,8,9
EndSplineSet
Validated: 1
EndChar

StartChar: uni030B
Encoding: 779 779 124
Width: 382
VWidth: 0
Flags: W
HStem: 441 231
VStem: 45 303
LayerCount: 2
Fore
SplineSet
207 462 m 1,0,1
 197 446 197 446 181 441 c 1,2,3
 175 438 175 438 171 444.5 c 128,-1,4
 167 451 167 451 171 460 c 0,5,6
 182 493 182 493 191 515 c 128,-1,7
 200 537 200 537 205 549 c 128,-1,8
 210 561 210 561 224 590 c 128,-1,9
 238 619 238 619 250 645 c 1,10,11
 259 667 259 667 298 672 c 0,12,13
 334 676 334 676 348 657 c 0,14,15
 356 646 356 646 334 622 c 0,16,17
 268 546 268 546 207 462 c 1,0,1
81 462 m 1,18,19
 71 446 71 446 55 441 c 1,20,21
 49 438 49 438 45 444.5 c 128,-1,22
 41 451 41 451 45 460 c 0,23,24
 56 493 56 493 65 515 c 128,-1,25
 74 537 74 537 79 549 c 128,-1,26
 84 561 84 561 98 590 c 128,-1,27
 112 619 112 619 124 645 c 1,28,29
 133 667 133 667 172 672 c 0,30,31
 208 676 208 676 222 657 c 0,32,33
 230 646 230 646 208 622 c 0,34,35
 142 546 142 546 81 462 c 1,18,19
EndSplineSet
Validated: 33
EndChar

StartChar: uni0312
Encoding: 786 786 125
Width: 216
VWidth: 0
Flags: W
HStem: 426 78<89.5161 156.433> 625 21<133.81 174.748>
LayerCount: 2
Fore
SplineSet
115 504 m 0,0,1
 136 504 136 504 149 491.5 c 128,-1,2
 162 479 162 479 162 462 c 0,3,4
 162 449 162 449 148.5 437.5 c 128,-1,5
 135 426 135 426 115 426 c 0,6,7
 79 426 79 426 55.5 453.5 c 128,-1,8
 32 481 32 481 32 523 c 0,9,10
 32 569 32 569 73.5 606.5 c 128,-1,11
 115 644 115 644 156 646 c 0,12,13
 174.789736997 646.782905708 174.789736997 646.782905708 175.997408487 636.674765144 c 0,14,15
 176.947200224 628.725063209 176.947200224 628.725063209 164.060042523 625.455548382 c 0,16,17
 163.06111501 625.202117145 163.06111501 625.202117145 162 625 c 0,18,19
 130 618 130 618 108 597.5 c 128,-1,20
 86 577 86 577 84 554 c 0,21,22
 82 536 82 536 91.5 520 c 128,-1,23
 101 504 101 504 115 504 c 0,0,1
EndSplineSet
Validated: 33
EndChar

StartChar: uni0313
Encoding: 787 787 126
Width: 216
VWidth: 0
Flags: W
HStem: 426 21<37.2522 77.0775> 568 78<31.5667 110.873>
VStem: 26 146<574.803 608.08>
LayerCount: 2
Fore
SplineSet
73 568 m 0,0,1
 52 569 52 569 39 581 c 128,-1,2
 26 593 26 593 26 610 c 0,3,4
 26 623 26 623 39.5 634.5 c 128,-1,5
 53 646 53 646 73 646 c 0,6,7
 111 646 111 646 141.5 618 c 128,-1,8
 172 590 172 590 172 549 c 0,9,10
 172 503 172 503 134 465.5 c 128,-1,11
 96 428 96 428 56 426 c 0,12,13
 37.2102630028 425.217094292 37.2102630028 425.217094292 36.0025915128 435.325234856 c 0,14,15
 35.052799776 443.274936791 35.052799776 443.274936791 47.939957477 446.544451618 c 0,16,17
 48.9388849901 446.797882855 48.9388849901 446.797882855 50 447 c 0,18,19
 81 453 81 453 99.5 473.5 c 128,-1,20
 118 494 118 494 120 518 c 0,21,22
 122 536 122 536 109 551.5 c 128,-1,23
 96 567 96 567 73 568 c 0,0,1
EndSplineSet
Validated: 33
EndChar

StartChar: uni0314
Encoding: 788 788 127
Width: 216
VWidth: 0
Flags: W
HStem: 426 21<126.544 166.752> 568 78<97.4508 172.433>
VStem: 32 52<481.924 556.608>
LayerCount: 2
Fore
SplineSet
131 568 m 0,0,1
 116 568 116 568 100 551 c 128,-1,2
 84 534 84 534 84 518 c 0,3,4
 84 495 84 495 103.5 474.5 c 128,-1,5
 123 454 123 454 154 447 c 0,6,7
 169.038464396 444.135530591 169.038464396 444.135530591 168.004535147 435.681567865 c 1,8,9
 165.060337019 426.647468037 165.060337019 426.647468037 148 426 c 0,10,11
 107 426 107 426 69.5 462.5 c 128,-1,12
 32 499 32 499 32 549 c 0,13,14
 32 590 32 590 62.5 618 c 128,-1,15
 93 646 93 646 131 646 c 0,16,17
 151 646 151 646 164.5 634.5 c 128,-1,18
 178 623 178 623 178 610 c 0,19,20
 178 593 178 593 165 580.5 c 128,-1,21
 152 568 152 568 131 568 c 0,0,1
EndSplineSet
Validated: 1
EndChar

StartChar: uni0328
Encoding: 808 808 128
Width: 390
VWidth: 0
Flags: W
HStem: -287 66<200.909 282.82>
VStem: 108 78<-206.67 -104.632>
LayerCount: 2
Fore
SplineSet
272 18 m 9,0,-1
 298 18 l 1,1,2
 294 14 294 14 274.5 -2 c 128,-1,3
 255 -18 255 -18 251.5 -21 c 128,-1,4
 248 -24 248 -24 233.5 -37.5 c 128,-1,5
 219 -51 219 -51 216 -57 c 128,-1,6
 213 -63 213 -63 204 -76 c 128,-1,7
 195 -89 195 -89 193 -99 c 128,-1,8
 191 -109 191 -109 188.5 -124 c 128,-1,9
 186 -139 186 -139 186 -155 c 0,10,11
 186 -181 186 -181 202 -201 c 128,-1,12
 218 -221 218 -221 243 -221 c 0,13,14
 259 -221 259 -221 276 -211.5 c 128,-1,15
 293 -202 293 -202 307.5 -190 c 128,-1,16
 322 -178 322 -178 323 -177 c 0,17,18
 327 -174 327 -174 331 -175.5 c 128,-1,19
 335 -177 335 -177 335 -183 c 0,20,21
 335 -202 335 -202 321 -227 c 0,22,23
 308 -250 308 -250 278.5 -268.5 c 128,-1,24
 249 -287 249 -287 215 -287 c 0,25,26
 170 -287 170 -287 139 -253 c 128,-1,27
 108 -219 108 -219 108 -173 c 0,28,29
 108 -135 108 -135 133.5 -99 c 128,-1,30
 159 -63 159 -63 188.5 -40 c 128,-1,31
 218 -17 218 -17 272 18 c 9,0,-1
EndSplineSet
Validated: 1
EndChar

StartChar: uni0326
Encoding: 806 806 129
Width: 216
VWidth: 0
Flags: W
HStem: -274 21<54.5755 82.7123> -145 88<48.4821 116.02>
VStem: 118.5 53.5<-221.477 -148.127>
LayerCount: 2
Fore
SplineSet
87.5 -145 m 0,0,1
 75.7205882353 -142.382352941 75.7205882353 -142.382352941 64.6801470588 -136.282369844 c 128,-1,2
 53.6397058824 -130.182386748 53.6397058824 -130.182386748 45.8198529412 -120.550963489 c 128,-1,3
 38 -110.91954023 38 -110.91954023 38 -100.5 c 0,4,5
 38 -82 38 -82 50.5 -69.5 c 128,-1,6
 63 -57 63 -57 84 -57 c 0,7,8
 120 -57 120 -57 146 -85 c 128,-1,9
 172 -113 172 -113 172 -154 c 0,10,11
 172 -199 172 -199 141.5 -232.5 c 128,-1,12
 111 -266 111 -266 71 -274 c 0,13,14
 60 -276 60 -276 54.5 -272.5 c 128,-1,15
 49 -269 49 -269 52 -262.5 c 128,-1,16
 55 -256 55 -256 65 -253 c 0,17,18
 91.9454790917 -243.327263916 91.9454790917 -243.327263916 105.222739546 -220.482565781 c 128,-1,19
 118.5 -197.637867647 118.5 -197.637867647 118.5 -173.5 c 0,20,21
 118.5 -151.888704763 118.5 -151.888704763 87.5 -145 c 0,0,1
EndSplineSet
Validated: 1
EndChar

StartChar: Ccedilla
Encoding: 199 199 136
Width: 665
VWidth: 0
Flags: W
HStem: -275 53<317.75 414.871> -15 40<315.131 395> 624 39<301.044 497.269>
VStem: 50 96<213.307 426.224> 425 53<-216.671 -138.332> 586 33<103.166 151.533 471.051 544.883>
LayerCount: 2
Fore
SplineSet
410 663 m 0,0,1
 480 663 480 663 516 651 c 0,2,3
 526 648 526 648 555.5 641.5 c 128,-1,4
 585 635 585 635 592 633 c 0,5,6
 603 630 603 630 605 603 c 1,7,8
 612 549 612 549 613 494 c 0,9,10
 614 486 614 486 611.5 478 c 128,-1,11
 609 470 609 470 602 471 c 0,12,13
 594 472 594 472 591 478 c 128,-1,14
 588 484 588 484 585 502 c 0,15,16
 580 546 580 546 541 581 c 0,17,18
 528 594 528 594 487 609 c 128,-1,19
 446 624 446 624 386 624 c 0,20,21
 281 624 281 624 213.5 537 c 128,-1,22
 146 450 146 450 146 334 c 0,23,24
 146 211 146 211 218 118 c 128,-1,25
 290 25 290 25 403 25 c 0,26,27
 461 25 461 25 527 62 c 1,28,29
 573 89 573 89 586 137 c 0,30,31
 588 142 588 142 593 146 c 128,-1,32
 598 150 598 150 604 152.5 c 128,-1,33
 610 155 610 155 611 156 c 0,34,35
 615.869363395 159.478116711 615.869363395 159.478116711 618.375 149 c 0,36,37
 620.692488263 139.308685446 620.692488263 139.308685446 619 130 c 0,38,39
 616 111 616 111 602.5 77.5 c 128,-1,40
 589 44 589 44 578 27 c 0,41,42
 576 24 576 24 572.5 21.5 c 128,-1,43
 569 19 569 19 565 17.5 c 128,-1,44
 561 16 561 16 552 12 c 128,-1,45
 543 8 543 8 537 5 c 0,46,47
 509 -8 509 -8 429 -14 c 1,48,-1
 402 -54 l 2,49,50
 395 -63 395 -63 412 -70 c 0,51,52
 438 -81 438 -81 458 -104 c 128,-1,53
 478 -127 478 -127 478 -159 c 0,54,55
 478 -206 478 -206 433 -240.5 c 128,-1,56
 388 -275 388 -275 349 -275 c 0,57,58
 320 -275 320 -275 311 -262 c 0,59,60
 300 -248 300 -248 309 -221 c 0,61,62
 314 -205 314 -205 323 -210 c 1,63,64
 351 -222 351 -222 383 -222 c 0,65,66
 399 -222 399 -222 412 -212.5 c 128,-1,67
 425 -203 425 -203 425 -183 c 0,68,69
 425 -134 425 -134 378 -131 c 1,70,71
 356 -131 356 -131 351 -132 c 0,72,73
 335 -134 335 -134 328 -122 c 0,74,75
 322 -112 322 -112 332 -100 c 2,76,-1
 395 -15 l 1,77,-1
 369 -15 l 2,78,79
 237 -15 237 -15 143.5 80.5 c 128,-1,80
 50 176 50 176 50 310 c 0,81,82
 50 457 50 457 156 560 c 128,-1,83
 262 663 262 663 410 663 c 0,0,1
EndSplineSet
Validated: 33
EndChar

StartChar: agrave
Encoding: 224 224 156
Width: 555
VWidth: 0
Flags: HW
HStem: -3 24<32.5977 66.9576 182.452 212.952 498.912 529.715> 139 27<198.819 333.7> 443 20G<310.5 314> 490 215
VStem: 179 178
LayerCount: 2
Fore
SplineSet
270 337 m 4,0,1
 249 285 249 285 199 176 c 0,2,3
 196 170 196 170 199 168 c 0,4,5
 202 166 202 166 212 166 c 2,6,-1
 329 166 l 2,7,8
 337 166 337 166 338 167 c 0,9,10
 339 168 339 168 337 176 c 0,11,12
 331 198 331 198 282 337 c 0,13,14
 279 345 279 345 277.5 347 c 0,15,16
 276 349 276 349 274.5 347 c 0,17,18
 273 345 273 345 270 337 c 4,0,1
37 -3 m 4,19,20
 31 -3 31 -3 31.5 8 c 0,21,22
 32 19 32 19 37 21 c 0,23,24
 73 33 73 33 94 50 c 0,25,26
 112 64 112 64 125 92 c 0,27,28
 170 187 170 187 241 360 c 1,29,30
 245 373 245 373 248 386 c 0,31,32
 249 391 249 391 250 399 c 0,33,34
 251 407 251 407 252 412.5 c 2,35,-1
 253 418 l 1,36,37
 259 419 259 419 276 431 c 0,38,39
 293 443 293 443 298 449 c 0,40,41
 310 463 310 463 312 463 c 0,42,43
 316 463 316 463 319 454 c 0,44,45
 339 400 339 400 378.5 288 c 0,46,47
 418 176 418 176 444 107 c 0,48,49
 455 75 455 75 479 50 c 0,50,51
 501 26 501 26 524 21 c 0,52,53
 530 19 530 19 531 8 c 0,54,55
 532 -3 532 -3 524 -3 c 0,56,57
 505 -3 505 -3 476 -0.5 c 0,58,59
 447 2 447 2 428 2 c 0,60,61
 407 2 407 2 373.5 -0.5 c 0,62,63
 340 -3 340 -3 324 -3 c 0,64,65
 320 -3 320 -3 319 3 c 0,66,67
 318 9 318 9 320 15 c 0,68,69
 322 21 322 21 325 21 c 0,70,71
 351 26 351 26 365 48 c 0,72,73
 373 62 373 62 367 89 c 0,74,75
 365 100 365 100 353 132 c 0,76,77
 351 139 351 139 334 139 c 2,78,-1
 192 139 l 2,79,80
 185 139 185 139 180 127 c 0,81,82
 165 87 165 87 164 84 c 0,83,84
 159 61 159 61 165 51 c 0,85,86
 180 27 180 27 207 21 c 0,87,88
 214 20 214 20 214 8.5 c 0,89,90
 214 -3 214 -3 207 -3 c 0,91,92
 187 -3 187 -3 157 -0.5 c 0,93,94
 127 2 127 2 108 2 c 0,95,96
 94 2 94 2 72 -0.5 c 0,97,98
 50 -3 50 -3 37 -3 c 4,19,20
EndSplineSet
Refer: 975 768 S 1 0 0 1 419 33 2
EndChar

StartChar: aacute
Encoding: 225 225 157
Width: 555
VWidth: 0
Flags: HW
HStem: -3 24<32.5977 66.9576 182.452 212.952 498.912 529.715> 139 27<198.819 333.7> 443 20G<310.5 314> 490 215
VStem: 229 178
LayerCount: 2
Fore
SplineSet
270 337 m 4,0,1
 249 285 249 285 199 176 c 0,2,3
 196 170 196 170 199 168 c 0,4,5
 202 166 202 166 212 166 c 2,6,-1
 329 166 l 2,7,8
 337 166 337 166 338 167 c 0,9,10
 339 168 339 168 337 176 c 0,11,12
 331 198 331 198 282 337 c 0,13,14
 279 345 279 345 277.5 347 c 0,15,16
 276 349 276 349 274.5 347 c 0,17,18
 273 345 273 345 270 337 c 4,0,1
37 -3 m 4,19,20
 31 -3 31 -3 31.5 8 c 0,21,22
 32 19 32 19 37 21 c 0,23,24
 73 33 73 33 94 50 c 0,25,26
 112 64 112 64 125 92 c 0,27,28
 170 187 170 187 241 360 c 1,29,30
 245 373 245 373 248 386 c 0,31,32
 249 391 249 391 250 399 c 0,33,34
 251 407 251 407 252 412.5 c 2,35,-1
 253 418 l 1,36,37
 259 419 259 419 276 431 c 0,38,39
 293 443 293 443 298 449 c 0,40,41
 310 463 310 463 312 463 c 0,42,43
 316 463 316 463 319 454 c 0,44,45
 339 400 339 400 378.5 288 c 0,46,47
 418 176 418 176 444 107 c 0,48,49
 455 75 455 75 479 50 c 0,50,51
 501 26 501 26 524 21 c 0,52,53
 530 19 530 19 531 8 c 0,54,55
 532 -3 532 -3 524 -3 c 0,56,57
 505 -3 505 -3 476 -0.5 c 0,58,59
 447 2 447 2 428 2 c 0,60,61
 407 2 407 2 373.5 -0.5 c 0,62,63
 340 -3 340 -3 324 -3 c 0,64,65
 320 -3 320 -3 319 3 c 0,66,67
 318 9 318 9 320 15 c 0,68,69
 322 21 322 21 325 21 c 0,70,71
 351 26 351 26 365 48 c 0,72,73
 373 62 373 62 367 89 c 0,74,75
 365 100 365 100 353 132 c 0,76,77
 351 139 351 139 334 139 c 2,78,-1
 192 139 l 2,79,80
 185 139 185 139 180 127 c 0,81,82
 165 87 165 87 164 84 c 0,83,84
 159 61 159 61 165 51 c 0,85,86
 180 27 180 27 207 21 c 0,87,88
 214 20 214 20 214 8.5 c 0,89,90
 214 -3 214 -3 207 -3 c 0,91,92
 187 -3 187 -3 157 -0.5 c 0,93,94
 127 2 127 2 108 2 c 0,95,96
 94 2 94 2 72 -0.5 c 0,97,98
 50 -3 50 -3 37 -3 c 4,19,20
EndSplineSet
Refer: 622 769 S 1 0 0 1 441 33 2
EndChar

StartChar: atilde
Encoding: 227 227 158
Width: 555
VWidth: 0
Flags: HW
HStem: -3 24<32.5977 66.9576 182.452 212.952 498.912 529.715> 139 27<198.819 333.7> 443 20G<310.5 314> 548 66<245.585 380.262> 561 67<217.463 352.915>
VStem: 166 266
LayerCount: 2
Fore
SplineSet
270 337 m 4,0,1
 249 285 249 285 199 176 c 0,2,3
 196 170 196 170 199 168 c 0,4,5
 202 166 202 166 212 166 c 2,6,-1
 329 166 l 2,7,8
 337 166 337 166 338 167 c 0,9,10
 339 168 339 168 337 176 c 0,11,12
 331 198 331 198 282 337 c 0,13,14
 279 345 279 345 277.5 347 c 0,15,16
 276 349 276 349 274.5 347 c 0,17,18
 273 345 273 345 270 337 c 4,0,1
37 -3 m 4,19,20
 31 -3 31 -3 31.5 8 c 0,21,22
 32 19 32 19 37 21 c 0,23,24
 73 33 73 33 94 50 c 0,25,26
 112 64 112 64 125 92 c 0,27,28
 170 187 170 187 241 360 c 1,29,30
 245 373 245 373 248 386 c 0,31,32
 249 391 249 391 250 399 c 0,33,34
 251 407 251 407 252 412.5 c 2,35,-1
 253 418 l 1,36,37
 259 419 259 419 276 431 c 0,38,39
 293 443 293 443 298 449 c 0,40,41
 310 463 310 463 312 463 c 0,42,43
 316 463 316 463 319 454 c 0,44,45
 339 400 339 400 378.5 288 c 0,46,47
 418 176 418 176 444 107 c 0,48,49
 455 75 455 75 479 50 c 0,50,51
 501 26 501 26 524 21 c 0,52,53
 530 19 530 19 531 8 c 0,54,55
 532 -3 532 -3 524 -3 c 0,56,57
 505 -3 505 -3 476 -0.5 c 0,58,59
 447 2 447 2 428 2 c 0,60,61
 407 2 407 2 373.5 -0.5 c 0,62,63
 340 -3 340 -3 324 -3 c 0,64,65
 320 -3 320 -3 319 3 c 0,66,67
 318 9 318 9 320 15 c 0,68,69
 322 21 322 21 325 21 c 0,70,71
 351 26 351 26 365 48 c 0,72,73
 373 62 373 62 367 89 c 0,74,75
 365 100 365 100 353 132 c 0,76,77
 351 139 351 139 334 139 c 2,78,-1
 192 139 l 2,79,80
 185 139 185 139 180 127 c 0,81,82
 165 87 165 87 164 84 c 0,83,84
 159 61 159 61 165 51 c 0,85,86
 180 27 180 27 207 21 c 0,87,88
 214 20 214 20 214 8.5 c 0,89,90
 214 -3 214 -3 207 -3 c 0,91,92
 187 -3 187 -3 157 -0.5 c 0,93,94
 127 2 127 2 108 2 c 0,95,96
 94 2 94 2 72 -0.5 c 0,97,98
 50 -3 50 -3 37 -3 c 4,19,20
EndSplineSet
Refer: 350 732 S 1 0 0 1 482 50 2
EndChar

StartChar: aring
Encoding: 229 229 159
Width: 555
VWidth: 0
Flags: W
HStem: -3 24<32.5977 66.9576 182.452 212.952 498.912 529.715> 139 27<198.819 333.7> 443 20G<310.5 314>
LayerCount: 2
Fore
SplineSet
270 337 m 4,0,1
 249 285 249 285 199 176 c 0,2,3
 196 170 196 170 199 168 c 128,-1,4
 202 166 202 166 212 166 c 2,5,-1
 329 166 l 2,6,7
 337 166 337 166 338 167 c 128,-1,8
 339 168 339 168 337 176 c 0,9,10
 331 198 331 198 282 337 c 0,11,12
 279 345 279 345 277.5 347 c 128,-1,13
 276 349 276 349 274.5 347 c 128,-1,14
 273 345 273 345 270 337 c 4,0,1
37 -3 m 4,15,16
 31 -3 31 -3 31.5 8 c 128,-1,17
 32 19 32 19 37 21 c 0,18,19
 73 33 73 33 94 50 c 0,20,21
 112 64 112 64 125 92 c 0,22,23
 170 187 170 187 241 360 c 1,24,25
 245 373 245 373 248 386 c 0,26,27
 249 391 249 391 250 399 c 128,-1,28
 251 407 251 407 252 412.5 c 2,29,-1
 253 418 l 1,30,31
 259 419 259 419 276 431 c 128,-1,32
 293 443 293 443 298 449 c 0,33,34
 310 463 310 463 312 463 c 0,35,36
 316 463 316 463 319 454 c 0,37,38
 339 400 339 400 378.5 288 c 128,-1,39
 418 176 418 176 444 107 c 0,40,41
 455 75 455 75 479 50 c 0,42,43
 501 26 501 26 524 21 c 0,44,45
 530 19 530 19 531 8 c 128,-1,46
 532 -3 532 -3 524 -3 c 0,47,48
 505 -3 505 -3 476 -0.5 c 128,-1,49
 447 2 447 2 428 2 c 0,50,51
 407 2 407 2 373.5 -0.5 c 128,-1,52
 340 -3 340 -3 324 -3 c 0,53,54
 320 -3 320 -3 319 3 c 128,-1,55
 318 9 318 9 320 15 c 128,-1,56
 322 21 322 21 325 21 c 0,57,58
 351 26 351 26 365 48 c 0,59,60
 373 62 373 62 367 89 c 0,61,62
 365 100 365 100 353 132 c 0,63,64
 351 139 351 139 334 139 c 2,65,-1
 192 139 l 2,66,67
 185 139 185 139 180 127 c 0,68,69
 165 87 165 87 164 84 c 0,70,71
 159 61 159 61 165 51 c 0,72,73
 180 27 180 27 207 21 c 0,74,75
 214 20 214 20 214 8.5 c 128,-1,76
 214 -3 214 -3 207 -3 c 0,77,78
 187 -3 187 -3 157 -0.5 c 128,-1,79
 127 2 127 2 108 2 c 0,80,81
 94 2 94 2 72 -0.5 c 128,-1,82
 50 -3 50 -3 37 -3 c 4,15,16
EndSplineSet
EndChar

StartChar: ccedilla
Encoding: 231 231 160
Width: 429
VWidth: 0
Flags: W
HStem: -286.6 49<176.47 250.045> -14 9.40039<259.5 290.5> 427 31<184.191 329.172>
VStem: 12 83<132.261 317.163> 269.5 50<-218.312 -135.1>
LayerCount: 2
Fore
SplineSet
186.5 -141.599609375 m 0,0,1
 180.028116253 -144.188170344 180.028116253 -144.188170344 171.798237913 -135.440822751 c 128,-1,2
 163.568359572 -126.693475158 163.568359572 -126.693475158 171.5 -116.599609375 c 2,3,-1
 259.5 -4.599609375 l 1,4,-1
 290.5 -4.599609375 l 1,5,-1
 251.5 -55.599609375 l 1,6,7
 247.720208883 -62.7750958412 247.720208883 -62.7750958412 250.620483398 -68.0982666016 c 128,-1,8
 253.520757914 -73.4214373619 253.520757914 -73.4214373619 258.5 -75.599609375 c 0,9,10
 274.998727735 -82.8178027592 274.998727735 -82.8178027592 288.541348601 -94.0336622256 c 128,-1,11
 302.083969466 -105.249521692 302.083969466 -105.249521692 310.791984733 -120.498889858 c 128,-1,12
 319.5 -135.748258024 319.5 -135.748258024 319.5 -151.599609375 c 0,13,14
 319.5 -205.594936478 319.5 -205.594936478 273.881578947 -246.097272926 c 128,-1,15
 228.263157895 -286.599609375 228.263157895 -286.599609375 194.5 -286.599609375 c 0,16,17
 177.22 -286.599609375 177.22 -286.599609375 170.5 -274.599609375 c 0,18,19
 161.406079535 -258.360814167 161.406079535 -258.360814167 166.5 -236.599609375 c 0,20,21
 167.706397238 -231.445140773 167.706397238 -231.445140773 172.211402967 -228.565870239 c 128,-1,22
 176.716408697 -225.686599706 176.716408697 -225.686599706 181.5 -227.599609375 c 0,23,24
 206.5 -237.599609375 206.5 -237.599609375 230.5 -237.599609375 c 0,25,26
 249.390625 -237.599609375 249.390625 -237.599609375 259.4453125 -225.224609375 c 128,-1,27
 269.5 -212.849609375 269.5 -212.849609375 269.5 -192.599609375 c 0,28,29
 269.5 -167.34455887 269.5 -167.34455887 250.510483501 -154.301254608 c 128,-1,30
 231.520967003 -141.257950347 231.520967003 -141.257950347 202.5 -139.599609375 c 0,31,32
 191.5 -139.599609375 191.5 -139.599609375 186.5 -141.599609375 c 0,0,1
263 458 m 20,33,34
 309 458 309 458 335 450 c 0,35,36
 341 448 341 448 363.5 443.5 c 128,-1,37
 386 439 386 439 392 437 c 0,38,39
 397 436 397 436 401 416 c 1,40,41
 405 373 405 373 406 340 c 0,42,43
 406 335 406 335 401.5 329 c 128,-1,44
 397 323 397 323 393 324 c 0,45,46
 373 326 373 326 371 346 c 0,47,48
 367 380 367 380 346 401 c 0,49,50
 335 412 335 412 306.5 419.5 c 128,-1,51
 278 427 278 427 247 427 c 0,52,53
 176 427 176 427 135.5 370 c 128,-1,54
 95 313 95 313 95 239 c 0,55,56
 95 154 95 154 140 89 c 128,-1,57
 185 24 185 24 261 21 c 0,58,59
 300 20 300 20 345 47 c 1,60,61
 372 62 372 62 383 99 c 0,62,63
 384 104 384 104 395.5 108 c 128,-1,64
 407 112 407 112 413 112 c 0,65,66
 422 112 422 112 420 94 c 0,67,68
 418 82 418 82 406.5 55 c 128,-1,69
 395 28 395 28 387 15 c 0,70,71
 382 5 382 5 332.5 -4.5 c 128,-1,72
 283 -14 283 -14 239 -14 c 0,73,74
 147 -14 147 -14 79.5 56 c 128,-1,75
 12 126 12 126 12 222 c 0,76,77
 12 322 12 322 86.5 390 c 128,-1,78
 161 458 161 458 263 458 c 20,33,34
EndSplineSet
EndChar

StartChar: egrave
Encoding: 232 232 161
Width: 421
VWidth: 0
Flags: HW
HStem: -3 24<11.2984 48.2279> 3 36<164.786 334.559> 410 41<161.645 328.992> 429 21<22.3123 57.3167> 491 215
VStem: 77 178 79 75<45.5227 217.677 253 406.614> 347 19<347.096 375.298>
LayerCount: 2
Fore
SplineSet
257 216 m 1,0,1
 209 223 209 223 171 217 c 0,2,3
 154 214 154 214 154 200 c 0,4,5
 154 168 154 168 156 90 c 0,6,7
 158 39 158 39 199 39 c 2,8,-1
 287 39 l 2,9,10
 292 39 292 39 310.5 43 c 0,11,12
 329 47 329 47 335 51 c 0,13,14
 353 66 353 66 367 97 c 0,15,16
 371 104 371 104 382 104 c 0,17,18
 391 104 391 104 391 96 c 0,19,20
 387 56 387 56 374 10 c 1,21,22
 372 -2 372 -2 365 -2 c 0,23,24
 314 -2 314 -2 233.5 0.5 c 0,25,26
 153 3 153 3 122 3 c 1,27,-1
 15 -3 l 2,28,29
 13 -3 13 -3 11.5 3 c 0,30,31
 10 9 10 9 11 15 c 0,32,33
 12 21 12 21 15 21 c 0,34,35
 46 30 46 30 60 42 c 0,36,37
 79 59 79 59 79 79 c 2,38,-1
 79 357 l 2,39,40
 79 398 79 398 70 407 c 0,41,42
 67 410 67 410 65 412.5 c 0,43,44
 63 415 63 415 60.5 416.5 c 0,45,46
 58 418 58 418 56.5 419 c 0,47,48
 55 420 55 420 51 421.5 c 0,49,50
 47 423 47 423 45 423.5 c 0,51,52
 43 424 43 424 37 426 c 0,53,54
 31 428 31 428 27 429 c 0,55,56
 22 430 22 430 21.5 440 c 0,57,58
 21 450 21 450 27 450 c 0,59,60
 41 450 41 450 66.5 449 c 0,61,62
 92 448 92 448 108 448 c 0,63,64
 146 448 146 448 202.5 449 c 0,65,66
 259 450 259 450 297 450.5 c 0,67,68
 335 451 335 451 343 451 c 0,69,70
 354 451 354 451 355 445 c 0,71,72
 366 388 366 388 366 353 c 0,73,74
 366 347 366 347 355 347 c 0,75,76
 350 347 350 347 347 354 c 0,77,78
 338 381 338 381 327 392 c 1,79,80
 312 410 312 410 285 410 c 2,81,-1
 179 410 l 2,82,83
 173 410 173 410 168 404.5 c 0,84,85
 163 399 163 399 162 392 c 0,86,87
 157 364 157 364 156 339 c 0,88,89
 154 273 154 273 154 268 c 0,90,91
 154 253 154 253 161 253 c 2,92,-1
 248 253 l 2,93,94
 267 253 267 253 278 263 c 0,95,96
 287 272 287 272 290 281 c 1,97,98
 299 294 299 294 304 294 c 0,99,100
 307 294 307 294 310.5 290.5 c 0,101,102
 314 287 314 287 313 283 c 0,103,104
 310 243 310 243 313 182 c 1,105,106
 315 170 315 170 307 170 c 0,107,108
 298 170 298 170 289 189 c 1,109,110
 283 211 283 211 257 216 c 1,0,1
EndSplineSet
Refer: 975 768 S 1 0 0 1 317 34 2
EndChar

StartChar: eacute
Encoding: 233 233 162
Width: 421
VWidth: 0
Flags: HW
HStem: -3 24<11.2984 48.2279> 3 36<164.786 334.559> 410 41<161.645 328.992> 429 21<22.3123 57.3167> 491 215
VStem: 79 75<45.5227 217.677 253 406.614> 149 178 347 19<347.096 375.298>
LayerCount: 2
Fore
SplineSet
257 216 m 1,0,1
 209 223 209 223 171 217 c 0,2,3
 154 214 154 214 154 200 c 0,4,5
 154 168 154 168 156 90 c 0,6,7
 158 39 158 39 199 39 c 2,8,-1
 287 39 l 2,9,10
 292 39 292 39 310.5 43 c 0,11,12
 329 47 329 47 335 51 c 0,13,14
 353 66 353 66 367 97 c 0,15,16
 371 104 371 104 382 104 c 0,17,18
 391 104 391 104 391 96 c 0,19,20
 387 56 387 56 374 10 c 1,21,22
 372 -2 372 -2 365 -2 c 0,23,24
 314 -2 314 -2 233.5 0.5 c 0,25,26
 153 3 153 3 122 3 c 1,27,-1
 15 -3 l 2,28,29
 13 -3 13 -3 11.5 3 c 0,30,31
 10 9 10 9 11 15 c 0,32,33
 12 21 12 21 15 21 c 0,34,35
 46 30 46 30 60 42 c 0,36,37
 79 59 79 59 79 79 c 2,38,-1
 79 357 l 2,39,40
 79 398 79 398 70 407 c 0,41,42
 67 410 67 410 65 412.5 c 0,43,44
 63 415 63 415 60.5 416.5 c 0,45,46
 58 418 58 418 56.5 419 c 0,47,48
 55 420 55 420 51 421.5 c 0,49,50
 47 423 47 423 45 423.5 c 0,51,52
 43 424 43 424 37 426 c 0,53,54
 31 428 31 428 27 429 c 0,55,56
 22 430 22 430 21.5 440 c 0,57,58
 21 450 21 450 27 450 c 0,59,60
 41 450 41 450 66.5 449 c 0,61,62
 92 448 92 448 108 448 c 0,63,64
 146 448 146 448 202.5 449 c 0,65,66
 259 450 259 450 297 450.5 c 0,67,68
 335 451 335 451 343 451 c 0,69,70
 354 451 354 451 355 445 c 0,71,72
 366 388 366 388 366 353 c 0,73,74
 366 347 366 347 355 347 c 0,75,76
 350 347 350 347 347 354 c 0,77,78
 338 381 338 381 327 392 c 1,79,80
 312 410 312 410 285 410 c 2,81,-1
 179 410 l 2,82,83
 173 410 173 410 168 404.5 c 0,84,85
 163 399 163 399 162 392 c 0,86,87
 157 364 157 364 156 339 c 0,88,89
 154 273 154 273 154 268 c 0,90,91
 154 253 154 253 161 253 c 2,92,-1
 248 253 l 2,93,94
 267 253 267 253 278 263 c 0,95,96
 287 272 287 272 290 281 c 1,97,98
 299 294 299 294 304 294 c 0,99,100
 307 294 307 294 310.5 290.5 c 0,101,102
 314 287 314 287 313 283 c 0,103,104
 310 243 310 243 313 182 c 1,105,106
 315 170 315 170 307 170 c 0,107,108
 298 170 298 170 289 189 c 1,109,110
 283 211 283 211 257 216 c 1,0,1
EndSplineSet
Refer: 622 769 S 1 0 0 1 361 34 2
EndChar

StartChar: ecircumflex
Encoding: 234 234 163
Width: 421
VWidth: 0
Flags: W
HStem: -3 24<12.8546 45.8193> 0.5 38.5<163.513 334.809> 410 39<161.845 328.367> 429 21<21.541 57.2581> 504 201
VStem: 79 75<45.0264 217.699 253 406.711> 100 212
LayerCount: 2
Fore
SplineSet
257 216 m 1
 209 223 209 223 171 217 c 0
 154 214 154 214 154 200 c 0
 154 168 154 168 156 90 c 0
 158 39 158 39 199 39 c 2
 287 39 l 2
 292 39 292 39 310.5 43 c 0
 329 47 329 47 335 51 c 0
 353 66 353 66 367 97 c 0
 371 104 371 104 382 104 c 0
 391 104 391 104 391 96 c 0
 387 56 387 56 374 10 c 1
 372 -2 372 -2 365 -2 c 0
 314 -2 314 -2 233.5 0.5 c 0
 153 3 153 3 122 3 c 1
 15 -3 l 2
 13 -3 13 -3 11.5 3 c 0
 10 9 10 9 11 15 c 0
 12 21 12 21 15 21 c 0
 46 30 46 30 60 42 c 0
 79 59 79 59 79 79 c 2
 79 357 l 2
 79 398 79 398 70 407 c 0
 67 410 67 410 65 412.5 c 0
 63 415 63 415 60.5 416.5 c 0
 58 418 58 418 56.5 419 c 0
 55 420 55 420 51 421.5 c 0
 47 423 47 423 45 423.5 c 0
 43 424 43 424 37 426 c 0
 31 428 31 428 27 429 c 0
 22 430 22 430 21.5 440 c 0
 21 450 21 450 27 450 c 0
 41 450 41 450 66.5 449 c 0
 92 448 92 448 108 448 c 0
 146 448 146 448 202.5 449 c 0
 259 450 259 450 297 450.5 c 0
 335 451 335 451 343 451 c 0
 354 451 354 451 355 445 c 0
 366 388 366 388 366 353 c 0
 366 347 366 347 355 347 c 0
 350 347 350 347 347 354 c 0
 338 381 338 381 327 392 c 1
 312 410 312 410 285 410 c 2
 179 410 l 2
 173 410 173 410 168 404.5 c 0
 163 399 163 399 162 392 c 0
 157 364 157 364 156 339 c 0
 154 273 154 273 154 268 c 0
 154 253 154 253 161 253 c 2
 248 253 l 2
 267 253 267 253 278 263 c 0
 287 272 287 272 290 281 c 1
 299 294 299 294 304 294 c 0
 307 294 307 294 310.5 290.5 c 0
 314 287 314 287 313 283 c 0
 310 243 310 243 313 182 c 1
 315 170 315 170 307 170 c 0
 298 170 298 170 289 189 c 1
 283 211 283 211 257 216 c 1
EndSplineSet
Refer: 90 710 S 1 0 0 1 373 57 2
EndChar

